<svg width="945" height="595" viewBox="0 0 945 595" fill="none" xmlns="http://www.w3.org/2000/svg">
<path d="M446.899 100.74C442.472 100.74 441.735 105.313 453.39 107.083C465.046 108.853 482.899 107.083 482.899 107.083" stroke="#16A1DC" stroke-width="1.5" stroke-miterlimit="10" stroke-linecap="round" stroke-linejoin="round"/>
<path d="M482.898 98.2324C482.898 98.2324 493.964 106.492 484.669 112.687C484.669 112.687 497.062 124.044 482.898 181.715" stroke="#16A1DC" stroke-width="1.5" stroke-miterlimit="10" stroke-linecap="round" stroke-linejoin="round"/>
<path d="M448.08 96.7577C443.654 96.0202 436.719 100.15 440.408 107.967C440.408 107.967 429.637 111.802 417.539 163.278" stroke="#16A1DC" stroke-width="1.5" stroke-miterlimit="10" stroke-linecap="round" stroke-linejoin="round"/>
<path d="M480.243 114.015C480.243 114.015 477.292 115.342 465.637 114.605" stroke="#16A1DC" stroke-width="1.5" stroke-miterlimit="10" stroke-linecap="round" stroke-linejoin="round"/>
<path d="M446.16 103.837C446.16 103.837 450.439 91.5953 449.701 83.9254C448.963 76.2556 446.308 69.4708 447.931 58.5561C449.554 47.6414 449.849 28.6143 461.652 25.5169C469.914 23.3045 475.816 22.567 478.472 22.272C479.504 22.1245 480.39 23.0095 480.095 24.042C479.799 26.4019 477.881 30.5318 470.209 33.1867C466.816 34.3667 465.34 46.4614 465.34 46.4614C465.34 46.4614 480.537 60.4735 476.406 74.9282" stroke="#252B2D" stroke-width="1.5" stroke-miterlimit="10" stroke-linecap="round" stroke-linejoin="round"/>
<path d="M480.391 106.345C480.391 106.345 481.423 98.3802 484.374 94.2503C487.473 90.1204 499.128 67.7009 499.866 62.5386" stroke="#252B2D" stroke-width="1.5" stroke-miterlimit="10" stroke-linecap="round" stroke-linejoin="round"/>
<path d="M498.833 44.6913C497.062 44.6913 495.587 45.8713 494.554 47.3462C493.226 49.2637 491.456 52.8036 490.128 58.4085C489.833 59.8834 489.685 61.0634 489.537 62.0959C489.242 66.0783 493.669 68.4382 496.915 66.0783C498.685 64.7508 500.308 62.6858 501.046 59.1459C502.521 52.2136 503.406 44.5438 498.833 44.6913Z" stroke="#252B2D" stroke-width="1.5" stroke-miterlimit="10" stroke-linecap="round" stroke-linejoin="round"/>
<path d="M493.67 48.6739C494.998 43.5115 494.26 39.2341 490.719 39.3816C488.949 39.3816 487.473 40.5616 486.441 42.0366C485.113 43.954 483.342 47.4939 482.014 53.0988C481.719 54.5737 481.572 55.7537 481.424 56.7862C481.129 60.7686 485.555 63.1285 488.801 60.7686C489.096 60.6211 489.244 60.3261 489.539 60.1786" stroke="#252B2D" stroke-width="1.5" stroke-miterlimit="10" stroke-linecap="round" stroke-linejoin="round"/>
<path d="M487.912 40.2667C488.06 36.4318 487.322 33.7769 484.224 33.6294C482.158 33.6294 480.388 34.6619 479.207 36.2843C477.585 38.3493 475.224 42.3317 473.601 48.5265C473.158 50.149 472.863 51.4764 472.716 52.6564C472.273 57.0813 477.142 60.1787 480.83 57.6713" stroke="#252B2D" stroke-width="1.5" stroke-miterlimit="10" stroke-linecap="round" stroke-linejoin="round"/>
<path d="M479.21 35.9892C479.357 32.3018 478.767 30.0894 476.406 30.0894" stroke="#252B2D" stroke-width="1.5" stroke-miterlimit="10" stroke-linecap="round" stroke-linejoin="round"/>
<path d="M234.442 198.383H298.77" stroke="#16A1DC" stroke-width="1.5" stroke-miterlimit="10" stroke-linecap="round" stroke-linejoin="round"/>
<path d="M307.622 97.4951H217.917V165.196" stroke="#16A1DC" stroke-width="1.5" stroke-miterlimit="10" stroke-linecap="round" stroke-linejoin="round"/>
<path d="M369.001 97.4951H359.559" stroke="#16A1DC" stroke-width="1.5" stroke-miterlimit="10" stroke-linecap="round" stroke-linejoin="round"/>
<path d="M437.017 97.4951H431.263" stroke="#16A1DC" stroke-width="1.5" stroke-miterlimit="10" stroke-linecap="round" stroke-linejoin="round"/>
<path d="M340.968 198.383H376.673L358.23 223.899L411.197 198.383H472.869" stroke="#16A1DC" stroke-width="1.5" stroke-miterlimit="10" stroke-linecap="round" stroke-linejoin="round"/>
<path d="M326.36 238.501L308.507 238.059C305.852 238.059 303.786 235.846 303.786 233.192L305.114 187.468C305.114 184.813 307.327 182.748 309.983 182.748L327.835 183.19C330.491 183.19 332.557 185.403 332.557 188.058L331.229 233.782C331.229 236.584 329.016 238.649 326.36 238.501Z" fill="#16A1DC" stroke="#16A1DC" stroke-width="1.5" stroke-miterlimit="10" stroke-linecap="round" stroke-linejoin="round"/>
<path d="M335.95 211.804L336.245 200.005C336.245 199.12 335.213 198.53 334.475 198.972C333.295 199.857 332.557 201.185 332.409 202.807L332.262 209.002" fill="white"/>
<path d="M335.95 211.804L336.245 200.005C336.245 199.12 335.213 198.53 334.475 198.972C333.295 199.857 332.557 201.185 332.409 202.807L332.262 209.002" stroke="#252B2D" stroke-width="1.5" stroke-miterlimit="10" stroke-linecap="round" stroke-linejoin="round"/>
<path d="M332.411 255.168L333.149 241.894C325.034 233.929 326.657 226.702 326.657 226.702L316.624 228.472C315.739 228.767 314.706 228.324 314.264 227.439C313.674 226.407 314.264 225.079 315.297 224.637L324.739 220.802L312.051 219.179C311.461 219.179 311.018 218.737 310.87 218.294C310.575 217.409 311.165 216.377 312.051 216.229L323.559 214.902L309.985 209.297C309.395 209.002 308.952 208.412 309.1 207.675C309.247 206.79 310.133 206.2 311.018 206.495L324.149 210.034L311.756 199.562C311.165 198.972 310.87 198.087 311.313 197.35C311.756 196.465 312.936 196.17 313.821 196.76C319.87 200.595 337.87 211.952 339.641 214.607C341.706 217.704 345.247 234.371 345.985 237.911L346.723 247.499" fill="white"/>
<path d="M332.411 255.168L333.149 241.894C325.034 233.929 326.657 226.702 326.657 226.702L316.624 228.472C315.739 228.767 314.706 228.324 314.264 227.439C313.674 226.407 314.264 225.079 315.297 224.637L324.739 220.802L312.051 219.179C311.461 219.179 311.018 218.737 310.87 218.294C310.575 217.409 311.165 216.377 312.051 216.229L323.559 214.902L309.985 209.297C309.395 209.002 308.952 208.412 309.1 207.675C309.247 206.79 310.133 206.2 311.018 206.495L324.149 210.034L311.756 199.562C311.165 198.972 310.87 198.087 311.313 197.35C311.756 196.465 312.936 196.17 313.821 196.76C319.87 200.595 337.87 211.952 339.641 214.607C341.706 217.704 345.247 234.371 345.985 237.911L346.723 247.499" stroke="#252B2D" stroke-width="1.5" stroke-miterlimit="10" stroke-linecap="round" stroke-linejoin="round"/>
<path d="M190.18 253.694C195.049 254.136 200.508 253.694 206.704 252.071C244.77 240.419 235.032 207.822 227.212 191.45" stroke="#252B2D" stroke-width="1.5" stroke-miterlimit="10" stroke-linecap="round" stroke-linejoin="round"/>
<path d="M219.984 247.351C219.689 244.844 223.378 267.116 223.378 267.116" stroke="#252B2D" stroke-width="1.5" stroke-miterlimit="10" stroke-linecap="round" stroke-linejoin="round"/>
<path d="M162.145 232.602C161.997 232.602 164.948 252.514 164.948 252.514" stroke="#252B2D" stroke-width="1.5" stroke-miterlimit="10" stroke-linecap="round" stroke-linejoin="round"/>
<path d="M215.705 220.36C218.361 219.917 219.984 218.147 219.689 215.492C219.246 212.837 216.738 210.92 214.377 209.887" stroke="#252B2D" stroke-width="1.5" stroke-miterlimit="10" stroke-linecap="round" stroke-linejoin="round"/>
<path d="M159.932 217.41C155.654 218 152.703 221.835 153.293 226.112C153.883 230.39 157.719 233.34 161.998 232.75" stroke="#252B2D" stroke-width="1.5" stroke-miterlimit="10" stroke-linecap="round" stroke-linejoin="round"/>
<path d="M160.081 222.572C158.606 222.72 157.425 224.194 157.72 225.817C157.868 227.292 159.343 228.472 160.966 228.177" stroke="#252B2D" stroke-width="1.5" stroke-miterlimit="10" stroke-linecap="round" stroke-linejoin="round"/>
<path d="M191.95 217.557C193.253 217.557 194.31 216.5 194.31 215.197C194.31 213.894 193.253 212.837 191.95 212.837C190.646 212.837 189.589 213.894 189.589 215.197C189.589 216.5 190.646 217.557 191.95 217.557Z" fill="#252B2D"/>
<path d="M225.149 212.985C226.453 212.985 227.509 211.928 227.509 210.625C227.509 209.321 226.453 208.265 225.149 208.265C223.845 208.265 222.788 209.321 222.788 210.625C222.788 211.928 223.845 212.985 225.149 212.985Z" fill="#252B2D"/>
<path d="M187.377 209.887C187.82 208.855 188.852 207.97 190.033 207.822C191.065 207.675 192.246 208.117 192.984 208.855" stroke="#252B2D" stroke-width="1.5" stroke-miterlimit="10" stroke-linecap="round" stroke-linejoin="round"/>
<path d="M227.656 204.43C226.918 203.545 225.738 202.955 224.558 203.103C223.525 203.25 222.492 203.988 222.049 204.873" stroke="#252B2D" stroke-width="1.5" stroke-miterlimit="10" stroke-linecap="round" stroke-linejoin="round"/>
<path d="M194.458 222.129L185.016 223.457" stroke="#252B2D" stroke-width="1.5" stroke-miterlimit="10" stroke-linecap="round" stroke-linejoin="round"/>
<path d="M232.67 216.967L224.851 218" stroke="#252B2D" stroke-width="1.5" stroke-miterlimit="10" stroke-linecap="round" stroke-linejoin="round"/>
<path d="M215.557 233.782C213.196 234.077 211.13 232.454 210.688 230.094L210.098 225.817L218.508 224.637L219.098 228.914C219.54 231.422 217.917 233.487 215.557 233.782Z" stroke="#252B2D" stroke-width="1.5" stroke-miterlimit="10" stroke-linecap="round" stroke-linejoin="round"/>
<path d="M103.868 315.495C75.0973 321.099 55.4744 284.963 82.917 256.496C108.737 229.652 136.179 240.567 140.901 207.527C149.163 148.676 200.802 168.146 200.802 168.146C209.802 165.048 215.704 166.081 228.097 177.291C233.261 182.01 237.097 182.6 244.179 182.01C244.622 182.01 244.917 182.01 244.917 182.01C239.901 186.73 232.671 185.993 232.671 185.993C232.671 185.993 240.196 189.975 240.638 189.975C214.671 195.728 201.245 183.043 201.245 183.043C181.769 217.557 150.048 218.737 150.048 218.737C149.606 218.885 155.507 216.672 161.261 209.592C161.261 209.592 157.278 213.87 150.196 214.165C150.196 214.165 155.802 211.657 158.31 205.905" stroke="#252B2D" stroke-width="1.5" stroke-miterlimit="10" stroke-linecap="round" stroke-linejoin="round"/>
<path d="M224.262 267.263C224.262 267.263 208.328 279.948 176.311 271.393C176.311 271.393 170.115 262.544 163.623 270.803C157.131 279.063 166.721 284.815 171.295 285.11C175.869 285.405 189.443 326.704 231.639 319.92C242.705 318.15 232.082 311.955 229.131 301.04C226.033 290.273 232.082 276.703 232.082 276.703" stroke="#252B2D" stroke-width="1.5" stroke-miterlimit="10" stroke-linecap="round" stroke-linejoin="round"/>
<path d="M203.164 288.355C203.164 288.355 228.836 284.815 235.18 272.426C241.524 260.036 222.049 259.299 222.049 259.299" stroke="#252B2D" stroke-width="1.5" stroke-miterlimit="10" stroke-linecap="round" stroke-linejoin="round"/>
<path d="M169.229 266.673C169.229 266.673 170.557 258.266 164.507 252.071C158.458 245.876 159.343 242.336 159.343 242.336C159.343 242.336 146.507 248.826 149.458 260.183C151.524 268.148 156.688 269.033 163.917 270.803" stroke="#252B2D" stroke-width="1.5" stroke-miterlimit="10" stroke-linecap="round" stroke-linejoin="round"/>
<path d="M162.886 270.951C162.886 270.951 148.722 266.968 145.771 281.128C144.886 285.258 144.295 288.06 144.295 288.06" stroke="#252B2D" stroke-width="1.5" stroke-miterlimit="10" stroke-linecap="round" stroke-linejoin="round"/>
<path d="M166.721 276.85C166.721 276.85 170.41 273.605 171.59 276.85C172.77 280.095 168.787 281.275 172.033 285.258" stroke="#252B2D" stroke-width="1.5" stroke-miterlimit="10" stroke-linecap="round" stroke-linejoin="round"/>
<path d="M156.101 256.496C156.101 256.496 162.887 257.529 164.806 267.116" stroke="#252B2D" stroke-width="1.5" stroke-miterlimit="10" stroke-linecap="round" stroke-linejoin="round"/>
<path d="M162.885 281.423C162.885 281.423 115.377 293.37 88.2293 334.227C61.0817 375.083 45.2948 437.769 84.8358 456.944C124.377 476.118 190.18 377.886 190.18 377.886L183.836 351.189C183.836 351.189 125.705 358.711 100.328 385.85C94.426 391.308 87.6391 408.122 87.6391 408.122" stroke="#16A1DC" stroke-width="1.5" stroke-miterlimit="10" stroke-linecap="round" stroke-linejoin="round"/>
<path d="M85.8701 391.603C85.8701 391.603 95.4603 386.145 100.329 385.703" stroke="#16A1DC" stroke-width="1.5" stroke-miterlimit="10" stroke-linecap="round" stroke-linejoin="round"/>
<path d="M236.655 267.116C236.655 267.116 264.245 262.543 282.54 288.945C300.688 315.347 314.852 334.817 314.852 334.817" stroke="#16A1DC" stroke-width="1.5" stroke-miterlimit="10" stroke-linecap="round" stroke-linejoin="round"/>
<path d="M297.295 422.134C297.295 422.134 356.754 450.454 364.279 368.003C365.311 357.384 365.164 346.764 364.131 336.292C357.639 265.051 350.852 245.286 350.852 245.286L324.738 259.299C324.738 259.299 321.344 324.934 310.279 346.174" stroke="#16A1DC" stroke-width="1.5" stroke-miterlimit="10" stroke-linecap="round" stroke-linejoin="round"/>
<path d="M305.41 337.767L314.852 334.964" stroke="#16A1DC" stroke-width="1.5" stroke-miterlimit="10" stroke-linecap="round" stroke-linejoin="round"/>
<path d="M61.374 419.922C61.374 419.922 98.8494 412.99 104.899 458.124" stroke="#16A1DC" stroke-width="1.5" stroke-miterlimit="10" stroke-linecap="round" stroke-linejoin="round"/>
<path d="M93.0972 440.424L104.9 433.934" stroke="#252B2D" stroke-width="1.5" stroke-miterlimit="10" stroke-linecap="round" stroke-linejoin="round"/>
<path d="M95.46 444.849L104.903 440.424" stroke="#252B2D" stroke-width="1.5" stroke-miterlimit="10" stroke-linecap="round" stroke-linejoin="round"/>
<path d="M299.358 422.134C299.358 422.134 313.227 375.82 359.998 391.603" stroke="#16A1DC" stroke-width="1.5" stroke-miterlimit="10" stroke-linecap="round" stroke-linejoin="round"/>
<path d="M347.459 393.373L350.262 380.688" stroke="#252B2D" stroke-width="1.5" stroke-miterlimit="10" stroke-linecap="round" stroke-linejoin="round"/>
<path d="M352.917 393.373L356.458 384.375" stroke="#252B2D" stroke-width="1.5" stroke-miterlimit="10" stroke-linecap="round" stroke-linejoin="round"/>
<path d="M305.408 414.612C305.555 414.612 297.44 410.187 297.44 410.187" stroke="#252B2D" stroke-width="1.5" stroke-miterlimit="10" stroke-linecap="round" stroke-linejoin="round"/>
<path d="M148.425 428.624C152.556 459.156 156.393 486.148 156.393 486.148C156.393 486.148 219.983 532.019 308.36 458.271L266.015 324.197" stroke="#16A1DC" stroke-width="1.5" stroke-miterlimit="10" stroke-linecap="round" stroke-linejoin="round"/>
<path d="M136.769 342.634C136.769 343.077 137.801 350.746 139.424 362.398" stroke="#16A1DC" stroke-width="1.5" stroke-miterlimit="10" stroke-linecap="round" stroke-linejoin="round"/>
<path d="M152.411 284.226C152.411 284.226 151.821 279.653 156.837 277.146" stroke="#252B2D" stroke-width="1.5" stroke-miterlimit="10" stroke-linecap="round" stroke-linejoin="round"/>
<path d="M185.608 355.466C185.608 355.466 191.215 352.959 192.1 352.221C192.1 352.221 203.018 344.699 209.215 333.342C209.805 332.309 211.281 332.162 211.871 333.194C212.756 334.817 212.461 338.061 209.805 343.371C209.805 343.371 208.477 346.321 211.723 344.994C215.264 343.519 217.477 342.486 230.608 337.914C231.346 337.619 232.231 337.766 232.674 338.504C232.969 339.094 232.969 339.979 232.379 340.421C230.608 342.044 221.903 346.469 216.887 350.304" stroke="#252B2D" stroke-width="1.5" stroke-miterlimit="10" stroke-linecap="round" stroke-linejoin="round"/>
<path d="M218.805 354.876C220.723 353.991 224.411 352.664 223.821 350.451C223.231 348.534 220.133 348.386 216.887 350.304" stroke="#252B2D" stroke-width="1.5" stroke-miterlimit="10" stroke-linecap="round" stroke-linejoin="round"/>
<path d="M218.214 355.171C219.837 354.581 224.411 352.368 225.591 355.171C225.886 356.646 225.738 357.678 223.378 358.711L220.279 360.186" stroke="#252B2D" stroke-width="1.5" stroke-miterlimit="10" stroke-linecap="round" stroke-linejoin="round"/>
<path d="M219.248 365.348L224.707 362.693C226.773 361.513 225.002 358.121 223.232 358.711" stroke="#252B2D" stroke-width="1.5" stroke-miterlimit="10" stroke-linecap="round" stroke-linejoin="round"/>
<path d="M219.247 365.348C219.247 365.348 211.722 369.478 207.591 370.511C203.46 371.543 195.788 370.806 195.788 370.806L189.886 375.083" stroke="#252B2D" stroke-width="1.5" stroke-miterlimit="10" stroke-linecap="round" stroke-linejoin="round"/>
<path d="M558.295 324.05C562.131 326.557 566.853 328.769 572.754 330.244C608.017 342.929 616.427 310.48 618.05 291.6" stroke="#252B2D" stroke-width="1.5" stroke-miterlimit="10" stroke-linecap="round" stroke-linejoin="round"/>
<path d="M584.557 343.814L585.295 333.489" stroke="#252B2D" stroke-width="1.5" stroke-miterlimit="10" stroke-linecap="round" stroke-linejoin="round"/>
<path d="M544.722 293.813C544.574 293.813 529.377 340.422 529.377 340.422" stroke="#252B2D" stroke-width="1.5" stroke-miterlimit="10" stroke-linecap="round" stroke-linejoin="round"/>
<path d="M547.524 284.668C546.197 284.078 544.574 284.816 544.131 286.143C543.541 287.47 544.279 289.093 545.606 289.535" stroke="#252B2D" stroke-width="1.5" stroke-miterlimit="10" stroke-linecap="round" stroke-linejoin="round"/>
<path d="M579.688 300.598C580.91 300.598 581.901 299.607 581.901 298.385C581.901 297.163 580.91 296.173 579.688 296.173C578.465 296.173 577.475 297.163 577.475 298.385C577.475 299.607 578.465 300.598 579.688 300.598Z" fill="#252B2D"/>
<path d="M607.719 310.48C608.942 310.48 609.933 309.489 609.933 308.267C609.933 307.045 608.942 306.055 607.719 306.055C606.497 306.055 605.506 307.045 605.506 308.267C605.506 309.489 606.497 310.48 607.719 310.48Z" fill="#252B2D"/>
<path d="M578.213 291.895C579.099 291.158 580.279 291.01 581.312 291.453C582.345 291.895 582.935 292.633 583.23 293.518" stroke="#252B2D" stroke-width="1.5" stroke-miterlimit="10" stroke-linecap="round" stroke-linejoin="round"/>
<path d="M612.59 304.285C612.442 303.253 611.704 302.22 610.524 301.778C609.491 301.335 608.458 301.483 607.721 302.073" stroke="#252B2D" stroke-width="1.5" stroke-miterlimit="10" stroke-linecap="round" stroke-linejoin="round"/>
<path d="M595.771 315.495C595.18 316.97 593.557 317.707 592.082 317.117C590.607 316.527 589.869 314.905 590.459 313.43" stroke="#252B2D" stroke-width="1.5" stroke-miterlimit="10" stroke-linecap="round" stroke-linejoin="round"/>
<path d="M544.573 293.813C540.885 292.338 538.967 288.208 540.442 284.373C541.918 280.538 546.049 278.768 549.885 280.243C549.885 280.243 549.442 285.111 552.393 286.881C555.344 288.798 560.803 285.553 559.622 276.851C558.147 265.641 574.672 255.316 583.967 266.821C591.196 275.966 588.541 283.488 598.868 283.783C605.655 284.078 603.737 274.933 603.737 273.458C603.737 271.836 610.229 274.933 612.59 284.963C614.36 292.485 621.737 293.075 622.327 291.158" stroke="#252B2D" stroke-width="1.5" stroke-miterlimit="10" stroke-linecap="round" stroke-linejoin="round"/>
<path d="M590.311 238.354C598.426 241.747 604.475 246.614 609.196 254.284" stroke="#252B2D" stroke-width="1.5" stroke-miterlimit="10" stroke-linecap="round" stroke-linejoin="round"/>
<path d="M536.902 316.527C536.902 316.527 512.262 309.595 518.459 281.718C522.885 261.659 535.574 248.531 554.312 239.534" stroke="#252B2D" stroke-width="1.5" stroke-miterlimit="10" stroke-linecap="round" stroke-linejoin="round"/>
<path d="M565.821 281.718L595.476 293.813C595.476 293.813 588.099 307.087 574.968 301.778C561.69 296.173 565.821 281.718 565.821 281.718Z" stroke="#252B2D" stroke-width="1.5" stroke-miterlimit="10" stroke-linecap="round" stroke-linejoin="round"/>
<path d="M600.494 295.583L623.658 303.548C623.658 303.548 619.379 317.855 609.199 315.2C595.182 311.512 600.494 295.583 600.494 295.583Z" stroke="#252B2D" stroke-width="1.5" stroke-miterlimit="10" stroke-linecap="round" stroke-linejoin="round"/>
<path d="M595.475 293.813L600.492 295.583" stroke="#252B2D" stroke-width="1.5" stroke-miterlimit="10" stroke-linecap="round" stroke-linejoin="round"/>
<path d="M603.148 254.579C603.148 254.579 622.623 252.661 632.361 264.756C640.623 275.081 637.23 301.925 631.918 308.268C626.459 314.61 614.804 310.037 614.804 310.037" stroke="#252B2D" stroke-width="1.5" stroke-miterlimit="10" stroke-linecap="round" stroke-linejoin="round"/>
<path d="M586.18 221.245C586.18 221.245 579.098 216.82 566.852 214.312C559.18 212.69 549.147 221.54 551.361 231.864C551.951 234.519 553.426 237.027 555.049 237.912" stroke="#252B2D" stroke-width="1.5" stroke-miterlimit="10" stroke-linecap="round" stroke-linejoin="round"/>
<path d="M586.18 239.387C586.18 239.387 583.082 241.599 573.197 243.664C563.311 245.729 552.688 243.664 552.836 240.714C552.984 237.912 555.197 237.912 555.197 237.912C555.197 237.912 558 242.779 571.721 240.419C576.738 239.829 578.361 239.092 578.361 239.092" fill="white"/>
<path d="M586.18 239.387C586.18 239.387 583.082 241.599 573.197 243.664C563.311 245.729 552.688 243.664 552.836 240.714C552.984 237.912 555.197 237.912 555.197 237.912C555.197 237.912 558 242.779 571.721 240.419C576.738 239.829 578.361 239.092 578.361 239.092" stroke="#252B2D" stroke-width="1.5" stroke-miterlimit="10" stroke-linecap="round" stroke-linejoin="round"/>
<path d="M573.935 237.912C573.935 237.912 593.411 243.517 595.034 231.864C596.509 220.802 584.263 210.625 571.87 215.492" stroke="#252B2D" stroke-width="1.5" stroke-miterlimit="10" stroke-linecap="round" stroke-linejoin="round"/>
<path d="M552.608 236.289C552.608 236.289 544.051 236.142 539.33 229.799C535.494 224.637 544.051 223.604 544.199 228.324C544.199 231.864 543.166 234.667 537.264 235.552" stroke="#252B2D" stroke-width="1.5" stroke-miterlimit="10" stroke-linecap="round" stroke-linejoin="round"/>
<path d="M591.901 238.944C591.901 238.944 597.655 232.307 605.327 235.699C611.229 238.354 604.737 243.516 602.081 239.239" stroke="#252B2D" stroke-width="1.5" stroke-miterlimit="10" stroke-linecap="round" stroke-linejoin="round"/>
<path d="M521.264 323.165C521.264 323.165 524.215 312.987 529.084 320.067C531.74 323.902 525.395 327.442 525.395 320.51C525.395 317.855 527.461 312.987 535.576 316.085" stroke="#252B2D" stroke-width="1.5" stroke-miterlimit="10" stroke-linecap="round" stroke-linejoin="round"/>
<path d="M595.033 311.07C597.394 311.955 599.607 311.217 600.492 308.857C601.377 306.497 600.197 303.695 598.574 301.778" fill="white"/>
<path d="M595.033 311.07C597.394 311.955 599.607 311.217 600.492 308.857C601.377 306.497 600.197 303.695 598.574 301.778" stroke="#252B2D" stroke-width="1.5" stroke-miterlimit="10" stroke-linecap="round" stroke-linejoin="round"/>
<path d="M464.163 484.378C464.163 484.378 447.639 485.115 438.786 450.011C428.163 408.27 464.311 364.021 487.475 355.024C504.147 348.534 526.721 342.044 528.344 340.569C528.344 340.569 560.95 357.384 574.229 394.11" stroke="#16A1DC" stroke-width="1.5" stroke-miterlimit="10" stroke-linecap="round" stroke-linejoin="round"/>
<path d="M467.706 435.852C467.706 435.852 490.427 428.182 534.69 448.979" stroke="#16A1DC" stroke-width="1.5" stroke-miterlimit="10" stroke-linecap="round" stroke-linejoin="round"/>
<path d="M520.968 443.079C525.246 444.702 529.82 446.619 534.689 448.979" stroke="#252B2D" stroke-width="1.5" stroke-miterlimit="10" stroke-linecap="round" stroke-linejoin="round"/>
<path d="M498.097 407.09C498.097 407.09 487.474 424.347 500.162 436.294" stroke="#16A1DC" stroke-width="1.5" stroke-miterlimit="10" stroke-linecap="round" stroke-linejoin="round"/>
<path d="M517.574 345.289C517.574 345.289 559.328 377.296 564.935 419.332" stroke="#16A1DC" stroke-width="1.5" stroke-miterlimit="10" stroke-linecap="round" stroke-linejoin="round"/>
<path d="M533.214 452.519C533.952 450.896 543.984 438.064 549.591 438.064C555.198 438.064 555.05 444.259 555.05 444.259" stroke="#252B2D" stroke-width="1.5" stroke-miterlimit="10" stroke-linecap="round" stroke-linejoin="round"/>
<path d="M553.129 469.333H641.359C644.162 469.333 646.523 467.711 647.703 465.204L681.785 390.718C682.965 388.063 681.047 384.966 678.097 384.966H583.08C580.129 384.966 577.621 386.736 576.588 389.39L546.933 465.351" fill="#16A1DC"/>
<path d="M553.129 469.333H641.359C644.162 469.333 646.523 467.711 647.703 465.204L681.785 390.718C682.965 388.063 681.047 384.966 678.097 384.966H583.08C580.129 384.966 577.621 386.736 576.588 389.39L546.933 465.351" stroke="#16A1DC" stroke-width="1.5" stroke-miterlimit="10" stroke-linecap="round" stroke-linejoin="round"/>
<path d="M564.049 373.608C569.213 366.528 582.787 343.667 585.885 343.667C591.197 343.667 603 348.681 608.902 351.189C623.803 357.679 637.377 366.381 640.328 384.67" stroke="#16A1DC" stroke-width="1.5" stroke-miterlimit="10" stroke-linecap="round" stroke-linejoin="round"/>
<path d="M571.573 385.851C571.573 385.851 593.556 350.009 599.015 347.059" stroke="#16A1DC" stroke-width="1.5" stroke-miterlimit="10" stroke-linecap="round" stroke-linejoin="round"/>
<path d="M505.917 458.566C505.917 458.124 503.261 445.439 510.195 439.392" stroke="#16A1DC" stroke-width="1.5" stroke-miterlimit="10" stroke-linecap="round" stroke-linejoin="round"/>
<path d="M514.918 456.354C514.918 456.354 513 445.144 519.935 442.784" stroke="#16A1DC" stroke-width="1.5" stroke-miterlimit="10" stroke-linecap="round" stroke-linejoin="round"/>
<path d="M594.145 494.555C594.145 494.555 538.67 459.894 532.031 457.386C525.391 454.879 477.736 454.731 453.096 500.603C428.457 546.621 497.211 550.899 497.211 550.899" stroke="#16A1DC" stroke-width="1.5" stroke-miterlimit="10" stroke-linecap="round" stroke-linejoin="round"/>
<path d="M493.082 506.208C493.082 506.798 497.213 526.709 525.098 534.379" stroke="#16A1DC" stroke-width="1.5" stroke-miterlimit="10" stroke-linecap="round" stroke-linejoin="round"/>
<path d="M537.344 466.383C537.344 466.383 539.852 471.693 537.049 478.773" stroke="#16A1DC" stroke-width="1.5" stroke-miterlimit="10" stroke-linecap="round" stroke-linejoin="round"/>
<path d="M533.212 550.751C533.212 550.751 511.671 551.194 498.687 550.751C491.458 550.456 486.294 546.916 483.195 543.819C480.687 541.459 481.277 537.329 484.228 535.559C490.72 531.577 504.294 526.709 525.097 534.379C525.097 534.379 541.622 527.447 548.113 522.579C554.605 517.712 617.31 480.986 627.343 480.248" stroke="#16A1DC" stroke-width="1.5" stroke-miterlimit="10" stroke-linecap="round" stroke-linejoin="round"/>
<path d="M533.212 550.751C533.212 550.751 511.671 551.194 498.687 550.751C491.458 550.456 486.294 546.917 483.195 543.819C480.687 541.459 481.277 537.329 484.228 535.559C490.72 531.577 504.294 526.71 525.097 534.379C525.097 534.379 538.081 528.922 545.605 524.202" stroke="#252B2D" stroke-width="1.5" stroke-miterlimit="10" stroke-linecap="round" stroke-linejoin="round"/>
<path d="M619.081 549.276H669.687C674.261 549.276 678.835 548.391 683.113 546.769C686.359 545.442 689.9 543.819 691.376 542.344C693.884 539.984 693.294 535.854 690.343 534.084C686.212 531.577 679.13 528.627 669.097 528.922" stroke="#252B2D" stroke-width="1.5" stroke-miterlimit="10" stroke-linecap="round" stroke-linejoin="round"/>
<path d="M653.164 453.404C690.639 465.351 688.131 496.03 687.098 503.11C686.95 504.143 686.655 505.175 686.213 506.207C684.147 511.517 675.442 529.364 649.918 541.459C619.819 555.766 542.508 550.751 542.508 550.751" stroke="#16A1DC" stroke-width="1.5" stroke-miterlimit="10" stroke-linecap="round" stroke-linejoin="round"/>
<path d="M548.704 551.046C544.868 550.899 542.508 550.751 542.508 550.751" stroke="#252B2D" stroke-width="1.5" stroke-miterlimit="10" stroke-linecap="round" stroke-linejoin="round"/>
<path d="M668.802 511.96C668.36 511.96 663.638 504.88 662.605 500.603" stroke="#16A1DC" stroke-width="1.5" stroke-miterlimit="10" stroke-linecap="round" stroke-linejoin="round"/>
<path d="M549.293 550.751C554.752 540.574 546.194 523.907 546.194 523.907" stroke="#16A1DC" stroke-width="1.5" stroke-miterlimit="10" stroke-linecap="round" stroke-linejoin="round"/>
<path d="M550.034 521.252C550.034 521.252 567.149 531.577 561.542 551.194" stroke="#16A1DC" stroke-width="1.5" stroke-miterlimit="10" stroke-linecap="round" stroke-linejoin="round"/>
<path d="M537.05 528.922C537.05 528.922 544.575 542.934 542.066 550.751C542.066 550.751 541.329 553.553 539.411 554.438C537.493 555.323 538.673 551.046 533.214 550.751" stroke="#252B2D" stroke-width="1.5" stroke-miterlimit="10" stroke-linecap="round" stroke-linejoin="round"/>
<path d="M616.278 420.954C615.245 419.184 614.802 417.267 614.95 415.35C614.36 415.497 613.77 415.792 613.032 416.235C608.458 418.89 606.835 424.789 609.638 429.362C612.294 433.934 618.196 435.557 622.77 432.754C625.573 431.132 627.196 428.329 627.491 425.232C623.36 426.559 618.638 424.937 616.278 420.954Z" fill="white" stroke="#252B2D" stroke-width="1.5" stroke-miterlimit="10" stroke-linecap="round" stroke-linejoin="round"/>
<path d="M565.821 281.718L550.034 275.081" stroke="#252B2D" stroke-width="1.5" stroke-miterlimit="10" stroke-linecap="round" stroke-linejoin="round"/>
<path d="M546.491 276.851C546.491 276.851 550.032 275.081 551.95 272.721" stroke="#252B2D" stroke-width="1.5" stroke-miterlimit="10" stroke-linecap="round" stroke-linejoin="round"/>
<path d="M552.098 452.371L550.18 447.504C550.18 447.504 549.294 456.354 544.721 459.156" stroke="#252B2D" stroke-width="1.5" stroke-miterlimit="10" stroke-linecap="round" stroke-linejoin="round"/>
<path d="M416.065 445.291V351.484C416.065 336.586 428.164 324.492 443.065 324.492H512.115" stroke="#16A1DC" stroke-width="1.5" stroke-miterlimit="10" stroke-linecap="round" stroke-linejoin="round"/>
<path d="M687.688 377.59C690.784 377.59 693.294 375.081 693.294 371.985C693.294 368.89 690.784 366.38 687.688 366.38C684.591 366.38 682.081 368.89 682.081 371.985C682.081 375.081 684.591 377.59 687.688 377.59Z" stroke="#16A1DC" stroke-width="1.5" stroke-miterlimit="10" stroke-linecap="round" stroke-linejoin="round"/>
<path d="M754.965 377.59C758.061 377.59 760.572 375.081 760.572 371.985C760.572 368.89 758.061 366.38 754.965 366.38C751.869 366.38 749.358 368.89 749.358 371.985C749.358 375.081 751.869 377.59 754.965 377.59Z" stroke="#16A1DC" stroke-width="1.5" stroke-miterlimit="10" stroke-linecap="round" stroke-linejoin="round"/>
<path d="M687.688 440.129C690.784 440.129 693.294 437.619 693.294 434.524C693.294 431.428 690.784 428.919 687.688 428.919C684.591 428.919 682.081 431.428 682.081 434.524C682.081 437.619 684.591 440.129 687.688 440.129Z" stroke="#16A1DC" stroke-width="1.5" stroke-miterlimit="10" stroke-linecap="round" stroke-linejoin="round"/>
<path d="M754.965 440.129C758.061 440.129 760.572 437.619 760.572 434.524C760.572 431.428 758.061 428.919 754.965 428.919C751.869 428.919 749.358 431.428 749.358 434.524C749.358 437.619 751.869 440.129 754.965 440.129Z" stroke="#16A1DC" stroke-width="1.5" stroke-miterlimit="10" stroke-linecap="round" stroke-linejoin="round"/>
<path d="M722.066 408.712C725.162 408.712 727.673 406.203 727.673 403.107C727.673 400.012 725.162 397.502 722.066 397.502C718.97 397.502 716.459 400.012 716.459 403.107C716.459 406.203 718.97 408.712 722.066 408.712Z" stroke="#16A1DC" stroke-width="1.5" stroke-miterlimit="10" stroke-linecap="round" stroke-linejoin="round"/>
<path d="M445.723 377.59C448.819 377.59 451.329 375.081 451.329 371.985C451.329 368.89 448.819 366.38 445.723 366.38C442.626 366.38 440.116 368.89 440.116 371.985C440.116 375.081 442.626 377.59 445.723 377.59Z" stroke="#16A1DC" stroke-width="1.5" stroke-miterlimit="10" stroke-linecap="round" stroke-linejoin="round"/>
<path d="M653.162 574.94C536.604 610.045 448.67 584.97 426.834 577.448C423.736 576.415 421.522 573.318 421.522 570.073V555.324C421.522 552.816 422.703 550.604 424.621 549.129C430.818 544.556 445.277 535.412 459.293 539.099" stroke="#16A1DC" stroke-width="1.5" stroke-miterlimit="10" stroke-linecap="round" stroke-linejoin="round"/>
<path d="M790.819 593.23C722.065 597.95 673.229 583.79 657.737 578.48C654.639 577.448 652.426 574.35 652.426 571.105V556.356C652.426 553.848 653.606 551.636 655.524 550.161" stroke="#16A1DC" stroke-width="1.5" stroke-miterlimit="10" stroke-linecap="round" stroke-linejoin="round"/>
<path d="M437.015 552.668C437.015 552.668 452.654 557.388 474.343 560.043" stroke="#16A1DC" stroke-width="1.5" stroke-miterlimit="10" stroke-linecap="round" stroke-linejoin="round"/>
<path d="M608.753 559.158C608.753 559.158 625.13 558.863 646.523 554.438" stroke="#16A1DC" stroke-width="1.5" stroke-miterlimit="10" stroke-linecap="round" stroke-linejoin="round"/>
<path d="M687.69 550.751C687.69 550.751 743.313 560.781 786.69 555.766" stroke="#16A1DC" stroke-width="1.5" stroke-miterlimit="10" stroke-linecap="round" stroke-linejoin="round"/>
<path d="M627.492 324.492H764.705" stroke="#16A1DC" stroke-width="1.5" stroke-miterlimit="10" stroke-linecap="round" stroke-linejoin="round"/>
<path d="M725.309 532.609C716.161 515.204 733.128 508.125 733.128 508.125" stroke="#252B2D" stroke-miterlimit="10" stroke-linecap="round" stroke-linejoin="round"/>
<path d="M741.687 543.966H773.851C777.392 543.966 780.785 542.639 783.441 540.279C789.343 534.969 796.72 524.202 782.703 511.074C782.703 511.074 786.539 505.617 782.851 500.602C779.162 495.587 764.998 488.36 761.015 487.327C757.031 486.295 763.523 500.602 763.523 500.602" stroke="#252B2D" stroke-miterlimit="10" stroke-linecap="round" stroke-linejoin="round"/>
<path d="M748.916 499.865C745.375 494.85 731.063 488.36 727.08 487.327C723.096 486.295 732.981 508.124 732.981 508.124" stroke="#252B2D" stroke-miterlimit="10" stroke-linecap="round" stroke-linejoin="round"/>
<path d="M746.851 500.602H767.064" stroke="#252B2D" stroke-miterlimit="10" stroke-linecap="round" stroke-linejoin="round"/>
<path d="M726.195 488.508C726.195 488.508 722.506 500.307 729.588 510.19" stroke="#252B2D" stroke-miterlimit="10" stroke-linecap="round" stroke-linejoin="round"/>
<path d="M726.784 532.461H739.916C743.161 532.461 745.67 535.116 745.67 538.214V539.984C745.67 542.196 743.899 543.966 741.686 543.966H724.866C722.653 543.966 720.883 542.196 720.883 539.984V538.214C720.883 534.969 723.539 532.461 726.784 532.461Z" stroke="#252B2D" stroke-miterlimit="10" stroke-linecap="round" stroke-linejoin="round"/>
<path d="M740.212 518.597L748.179 520.367" stroke="#252B2D" stroke-miterlimit="10" stroke-linecap="round" stroke-linejoin="round"/>
<path d="M773.557 518.597L765.59 520.367" stroke="#252B2D" stroke-miterlimit="10" stroke-linecap="round" stroke-linejoin="round"/>
<path d="M753.637 521.399H761.014L757.325 525.234L753.637 521.399Z" fill="#252B2D" stroke="#252B2D" stroke-miterlimit="10" stroke-linecap="round" stroke-linejoin="round"/>
<path d="M757.324 524.644V528.921" stroke="#252B2D" stroke-miterlimit="10" stroke-linecap="round" stroke-linejoin="round"/>
<path d="M775.622 522.284H785.064" stroke="#252B2D" stroke-miterlimit="10" stroke-linecap="round" stroke-linejoin="round"/>
<path d="M775.622 525.382H785.064" stroke="#252B2D" stroke-miterlimit="10" stroke-linecap="round" stroke-linejoin="round"/>
<path d="M775.622 528.479H785.064" stroke="#252B2D" stroke-miterlimit="10" stroke-linecap="round" stroke-linejoin="round"/>
<path d="M728.41 522.284H737.853" stroke="#252B2D" stroke-miterlimit="10" stroke-linecap="round" stroke-linejoin="round"/>
<path d="M728.41 525.382H737.853" stroke="#252B2D" stroke-miterlimit="10" stroke-linecap="round" stroke-linejoin="round"/>
<path d="M728.41 528.479H737.853" stroke="#252B2D" stroke-miterlimit="10" stroke-linecap="round" stroke-linejoin="round"/>
<path d="M727.078 539.394V543.966" stroke="#252B2D" stroke-miterlimit="10" stroke-linecap="round" stroke-linejoin="round"/>
<path d="M732.242 539.394V543.966" stroke="#252B2D" stroke-miterlimit="10" stroke-linecap="round" stroke-linejoin="round"/>
<path d="M737.556 539.394V543.966" stroke="#252B2D" stroke-miterlimit="10" stroke-linecap="round" stroke-linejoin="round"/>
<path d="M759.097 500.602C758.065 480.985 720.884 446.029 683.852 478.625" stroke="#252B2D" stroke-miterlimit="10" stroke-linecap="round" stroke-linejoin="round"/>
<path d="M692.704 540.721C692.704 540.721 705.097 544.851 721.032 539.984" stroke="#252B2D" stroke-miterlimit="10" stroke-linecap="round" stroke-linejoin="round"/>
<path d="M678.539 520.367C678.539 520.367 689.605 531.282 707.014 530.102C724.424 529.069 722.654 509.747 710.26 505.027C707.9 504.142 705.392 504.142 703.326 504.437C699.933 504.88 696.687 503.11 695.506 499.865C694.031 496.03 695.949 491.753 699.785 490.278C703.326 489.098 709.228 488.803 714.096 490.72C722.654 493.818 725.31 498.537 725.31 498.537" stroke="#252B2D" stroke-miterlimit="10" stroke-linecap="round" stroke-linejoin="round"/>
<path d="M418.427 116.965C418.427 116.965 439.968 109.295 448.82 117.85C457.673 126.404 457.968 139.237 457.968 139.237C457.968 139.237 447.05 144.252 437.607 138.942C428.164 133.632 419.902 121.242 419.902 121.242" fill="white"/>
<path d="M418.427 116.965C418.427 116.965 439.968 109.295 448.82 117.85C457.673 126.404 457.968 139.237 457.968 139.237C457.968 139.237 447.05 144.252 437.607 138.942C428.164 133.632 419.902 121.242 419.902 121.242" stroke="#252B2D" stroke-width="1.5" stroke-miterlimit="10" stroke-linecap="round" stroke-linejoin="round"/>
<path d="M422.704 119.03C422.704 119.03 434.507 119.915 438.195 127.879" stroke="#252B2D" stroke-width="1.5" stroke-miterlimit="10" stroke-linecap="round" stroke-linejoin="round"/>
<path d="M369.737 126.847C369.737 126.847 375.344 98.5276 373.131 89.5303C371.065 80.533 366.639 72.7157 366.491 58.9985C366.344 45.2814 365.754 19.7645 377.409 16.6671C387.59 14.0122 394.082 10.6198 397.328 9.88228C398.508 9.58729 399.688 10.4723 399.688 11.7997C399.688 14.7497 398.213 20.0595 389.36 24.4844C385.377 26.4019 385.672 41.4465 385.672 41.4465C385.672 41.4465 406.475 55.9011 403.819 74.0432" stroke="#252B2D" stroke-width="1.5" stroke-miterlimit="10" stroke-linecap="round" stroke-linejoin="round"/>
<path d="M413.704 122.569C413.704 122.569 413.999 101.477 416.95 96.0201C419.901 90.4152 430.376 61.3585 430.376 55.0161" stroke="#252B2D" stroke-width="1.5" stroke-miterlimit="10" stroke-linecap="round" stroke-linejoin="round"/>
<path d="M425.804 33.4819C423.738 33.7769 421.968 35.3993 421.083 37.3168C419.902 39.8242 418.279 44.5441 417.689 51.4764C417.542 53.2464 417.542 54.8688 417.689 56.0488C418.132 60.9162 423.886 63.1286 427.279 59.5887C429.197 57.6713 430.82 54.8688 431.116 50.5914C431.558 42.0367 431.558 32.5969 425.804 33.4819Z" stroke="#252B2D" stroke-width="1.5" stroke-miterlimit="10" stroke-linecap="round" stroke-linejoin="round"/>
<path d="M420.344 39.2341C421.082 32.7443 419.459 27.7294 415.18 28.4669C413.114 28.7618 411.344 30.3843 410.459 32.3018C409.278 34.8092 407.655 39.5291 407.065 46.4614C406.918 48.2314 406.918 49.8538 407.065 51.0338C407.508 55.9012 413.262 58.1136 416.655 54.5737C416.951 54.2787 417.246 53.9837 417.393 53.6887" stroke="#252B2D" stroke-width="1.5" stroke-miterlimit="10" stroke-linecap="round" stroke-linejoin="round"/>
<path d="M411.786 30.0895C411.343 25.5171 409.868 22.2722 406.179 22.7147C403.671 23.0097 401.753 24.6321 400.573 26.8446C398.95 29.647 396.884 34.8094 395.851 42.7742C395.556 44.8391 395.556 46.6091 395.556 47.9365C395.704 53.3939 402.195 56.1963 406.327 52.5089" stroke="#252B2D" stroke-width="1.5" stroke-miterlimit="10" stroke-linecap="round" stroke-linejoin="round"/>
<path d="M400.575 26.402C400.133 21.8296 398.952 19.4697 396.149 19.7646" stroke="#252B2D" stroke-width="1.5" stroke-miterlimit="10" stroke-linecap="round" stroke-linejoin="round"/>
<path d="M369.591 125.224C369.591 125.519 361.919 131.272 369.738 139.679C376.525 147.201 416.066 135.549 414.886 121.242" stroke="#252B2D" stroke-width="1.5" stroke-miterlimit="10" stroke-linecap="round" stroke-linejoin="round"/>
<path d="M371.068 119.177C371.068 119.177 352.035 125.667 359.264 152.069" stroke="#252B2D" stroke-width="1.5" stroke-miterlimit="10" stroke-linecap="round" stroke-linejoin="round"/>
<path d="M356.46 142.334C356.46 142.334 345.689 154.134 354.394 187.32C354.394 187.32 407.361 182.305 415.919 151.184C415.919 151.184 419.017 136.876 418.427 128.617" stroke="#252B2D" stroke-width="1.5" stroke-miterlimit="10" stroke-linecap="round" stroke-linejoin="round"/>
<path d="M391.723 155.609C391.723 155.609 415.33 145.284 419.018 125.962C421.084 115.195 413.854 115.637 413.854 115.637" stroke="#252B2D" stroke-width="1.5" stroke-miterlimit="10" stroke-linecap="round" stroke-linejoin="round"/>
<path d="M417.395 116.965C417.395 116.965 423.001 113.867 426.837 103.395C429.345 95.4304 426.542 86.5806 422.706 82.4507" stroke="#252B2D" stroke-width="1.5" stroke-miterlimit="10" stroke-linecap="round" stroke-linejoin="round"/>
<path d="M413.706 157.969L412.23 188.353" stroke="#252B2D" stroke-width="1.5" stroke-miterlimit="10" stroke-linecap="round" stroke-linejoin="round"/>
<path d="M313.525 115.637C312.05 101.182 310.427 88.0552 309.099 85.2528C305.705 78.468 300.836 73.0106 298.476 62.0959C295.968 51.3286 292.869 32.7441 297.148 29.3517C303.787 23.8943 311.754 18.732 314.115 17.4045C315 16.962 316.181 17.4045 316.328 18.437C316.771 20.7969 314.853 26.9918 308.509 32.1541C305.705 34.3666 310.427 44.6913 310.427 44.6913C310.427 44.6913 329.607 52.5086 330.787 67.4057" stroke="#252B2D" stroke-width="1.5" stroke-miterlimit="10" stroke-linecap="round" stroke-linejoin="round"/>
<path d="M317.362 160.771C317.362 160.771 316.476 144.989 315.148 129.944" stroke="#252B2D" stroke-width="1.5" stroke-miterlimit="10" stroke-linecap="round" stroke-linejoin="round"/>
<path d="M346.575 96.6099C345.837 91.4475 344.804 83.7777 345.1 82.5978C346.427 77.5829 349.526 52.5085 348.493 47.4937" stroke="#252B2D" stroke-width="1.5" stroke-miterlimit="10" stroke-linecap="round" stroke-linejoin="round"/>
<path d="M354.396 135.254C354.396 135.254 351.15 121.832 348.789 109.737" stroke="#252B2D" stroke-width="1.5" stroke-miterlimit="10" stroke-linecap="round" stroke-linejoin="round"/>
<path d="M341.116 31.269C339.493 32.0065 338.46 33.4815 338.018 35.2514C337.575 37.4639 336.985 41.4463 337.87 47.1986C338.018 48.6736 338.313 49.8536 338.608 50.886C339.788 54.5734 344.805 55.3109 346.87 52.066C348.051 50.296 348.788 47.6411 348.346 44.1012C347.313 36.8739 345.542 29.3516 341.116 31.269Z" stroke="#252B2D" stroke-width="1.5" stroke-miterlimit="10" stroke-linecap="round" stroke-linejoin="round"/>
<path d="M337.723 36.7267C337.133 31.4168 334.92 27.7294 331.674 29.0569C330.051 29.7944 329.018 31.2693 328.575 33.0393C328.133 35.2517 327.543 39.2341 328.428 44.9865C328.575 46.4615 328.87 47.6414 329.166 48.6739C330.346 52.3613 335.362 53.0988 337.428 49.8539C337.575 49.5589 337.723 49.2639 337.87 48.9689" stroke="#252B2D" stroke-width="1.5" stroke-miterlimit="10" stroke-linecap="round" stroke-linejoin="round"/>
<path d="M329.459 30.974C328.279 27.4341 326.508 25.0742 323.705 26.1067C321.787 26.8441 320.459 28.4666 319.869 30.3841C319.131 32.8915 318.393 37.4639 318.984 43.8062C319.131 45.4287 319.426 46.9036 319.721 48.0836C320.754 52.361 326.508 53.541 329.164 49.8536" stroke="#252B2D" stroke-width="1.5" stroke-miterlimit="10" stroke-linecap="round" stroke-linejoin="round"/>
<path d="M319.721 29.9417C318.541 26.4018 317.213 24.6318 315 25.5168" stroke="#252B2D" stroke-width="1.5" stroke-miterlimit="10" stroke-linecap="round" stroke-linejoin="round"/>
<path d="M312.198 102.362C312.198 102.362 297.443 112.392 304.23 117.849C311.017 123.307 347.607 96.0199 349.673 92.775C351.591 89.6776 350.706 87.0226 345.394 87.3176" stroke="#252B2D" stroke-width="1.5" stroke-miterlimit="10" stroke-linecap="round" stroke-linejoin="round"/>
<path d="M350.559 89.6775L353.805 95.2823C355.133 97.6423 355.133 100.592 353.658 102.952C349.379 109.884 338.313 123.749 314.117 129.796C307.92 131.566 302.461 115.489 302.461 115.489" stroke="#252B2D" stroke-width="1.5" stroke-miterlimit="10" stroke-linecap="round" stroke-linejoin="round"/>
<path d="M314.262 129.944L318.393 114.752" stroke="#252B2D" stroke-width="1.5" stroke-miterlimit="10" stroke-linecap="round" stroke-linejoin="round"/>
<path d="M325.031 126.404L329.458 108.41" stroke="#252B2D" stroke-width="1.5" stroke-miterlimit="10" stroke-linecap="round" stroke-linejoin="round"/>
<path d="M335.508 121.094L339.934 101.33" stroke="#252B2D" stroke-width="1.5" stroke-miterlimit="10" stroke-linecap="round" stroke-linejoin="round"/>
<path d="M346.575 112.097L347.165 95.5774" stroke="#252B2D" stroke-width="1.5" stroke-miterlimit="10" stroke-linecap="round" stroke-linejoin="round"/>
<path d="M307.625 131.714V140.121H232.379V110.032H299.953C299.953 110.032 298.477 112.835 299.51 115.637C300.543 118.44 303.936 128.764 307.625 131.714Z" fill="#16A1DC" stroke="#16A1DC" stroke-width="1.5" stroke-miterlimit="10" stroke-linecap="round" stroke-linejoin="round"/>
<path d="M232.379 150.446H307.625" stroke="#16A1DC" stroke-width="1.5" stroke-miterlimit="10" stroke-linecap="round" stroke-linejoin="round"/>
<path d="M232.379 160.034H307.625" stroke="#16A1DC" stroke-width="1.5" stroke-miterlimit="10" stroke-linecap="round" stroke-linejoin="round"/>
<path d="M232.379 169.621H307.625" stroke="#16A1DC" stroke-width="1.5" stroke-miterlimit="10" stroke-linecap="round" stroke-linejoin="round"/>
<path d="M251.113 179.061H307.621" stroke="#16A1DC" stroke-width="1.5" stroke-miterlimit="10" stroke-linecap="round" stroke-linejoin="round"/>
<path d="M944.234 268.02L854.594 253.02L839.589 342.633L929.229 357.633L944.234 268.02Z" fill="white" stroke="#16A1DC" stroke-width="1.5" stroke-miterlimit="10" stroke-linecap="round" stroke-linejoin="round"/>
<path d="M875.783 279.87L867.114 304.652L918.781 322.715L927.45 297.934L875.783 279.87Z" fill="white" stroke="#16A1DC" stroke-width="1.5" stroke-miterlimit="10" stroke-linecap="round" stroke-linejoin="round"/>
<path d="M898.68 293.488L898.304 294.564C898.543 294.674 898.759 294.809 898.954 294.969C899.148 295.13 899.306 295.3 899.428 295.481C899.555 295.664 899.639 295.849 899.68 296.035C899.726 296.222 899.721 296.399 899.663 296.563C899.61 296.716 899.527 296.819 899.416 296.873C899.305 296.926 899.179 296.928 899.038 296.879C898.909 296.834 898.823 296.767 898.781 296.68C898.745 296.595 898.725 296.499 898.723 296.393C898.723 296.281 898.728 296.16 898.74 296.033C898.752 295.905 898.746 295.781 898.722 295.66C898.7 295.534 898.647 295.413 898.562 295.297C898.485 295.178 898.351 295.072 898.159 294.978L897.308 297.412C897.636 297.718 897.902 297.996 898.105 298.245C898.316 298.49 898.474 298.727 898.579 298.955C898.686 299.177 898.743 299.392 898.75 299.599C898.756 299.805 898.722 300.018 898.646 300.235C898.549 300.511 898.41 300.75 898.227 300.95C898.047 301.144 897.835 301.298 897.591 301.41C897.349 301.517 897.081 301.578 896.785 301.594C896.495 301.611 896.193 301.578 895.879 301.495L895.38 302.923L894.895 302.754L895.391 301.334C895.101 301.219 894.839 301.075 894.603 300.9C894.367 300.725 894.17 300.534 894.012 300.327C893.859 300.122 893.753 299.907 893.693 299.681C893.641 299.452 893.655 299.226 893.733 299.002C893.803 298.803 893.896 298.677 894.013 298.625C894.13 298.574 894.244 298.568 894.356 298.607C894.468 298.646 894.544 298.712 894.584 298.805C894.631 298.894 894.659 298.996 894.665 299.111C894.673 299.219 894.67 299.33 894.657 299.444C894.643 299.558 894.633 299.654 894.626 299.73C894.617 299.833 894.62 299.936 894.636 300.041C894.66 300.142 894.704 300.243 894.768 300.344C894.837 300.447 894.931 300.546 895.05 300.641C895.177 300.731 895.342 300.815 895.546 300.893L896.471 298.248C896.28 298.076 896.095 297.899 895.914 297.717C895.734 297.535 895.585 297.338 895.468 297.125C895.351 296.913 895.277 296.682 895.245 296.434C895.213 296.185 895.25 295.911 895.355 295.611C895.447 295.346 895.573 295.12 895.731 294.931C895.897 294.739 896.088 294.591 896.302 294.487C896.518 294.378 896.754 294.316 897.011 294.3C897.269 294.278 897.54 294.307 897.822 294.386L898.195 293.319L898.68 293.488ZM897.581 300.338C897.64 300.167 897.66 300.006 897.641 299.854C897.629 299.698 897.588 299.552 897.517 299.415C897.454 299.274 897.366 299.141 897.251 299.015C897.139 298.884 897.016 298.755 896.882 298.629L896.037 301.045C896.441 301.134 896.771 301.114 897.027 300.986C897.291 300.854 897.476 300.638 897.581 300.338ZM896.338 295.46C896.251 295.707 896.25 295.957 896.333 296.21C896.421 296.466 896.609 296.739 896.897 297.031L897.671 294.818C897.349 294.758 897.07 294.782 896.834 294.891C896.598 295 896.432 295.189 896.338 295.46Z" fill="#16A1DC"/>
<path d="M897.049 312.25C902.997 312.25 907.819 307.429 907.819 301.482C907.819 295.536 902.997 290.715 897.049 290.715C891.1 290.715 886.278 295.536 886.278 301.482C886.278 307.429 891.1 312.25 897.049 312.25Z" stroke="#16A1DC" stroke-width="1.5" stroke-miterlimit="10" stroke-linecap="round" stroke-linejoin="round"/>
<path d="M883.92 282.603C882.445 287.028 877.576 289.24 873.297 287.765" stroke="#16A1DC" stroke-width="1.5" stroke-miterlimit="10" stroke-linecap="round" stroke-linejoin="round"/>
<path d="M865.919 295.435C870.346 296.91 872.559 301.777 871.083 306.055" stroke="#16A1DC" stroke-width="1.5" stroke-miterlimit="10" stroke-linecap="round" stroke-linejoin="round"/>
<path d="M911.067 319.182C912.542 314.757 917.411 312.545 921.69 314.02" stroke="#16A1DC" stroke-width="1.5" stroke-miterlimit="10" stroke-linecap="round" stroke-linejoin="round"/>
<path d="M924.639 305.76C920.213 304.285 918 299.418 919.475 295.14" stroke="#16A1DC" stroke-width="1.5" stroke-miterlimit="10" stroke-linecap="round" stroke-linejoin="round"/>
<path d="M910.777 302.657L857.008 312.9L861.925 338.69L915.693 328.446L910.777 302.657Z" fill="white" stroke="#16A1DC" stroke-width="1.5" stroke-miterlimit="10" stroke-linecap="round" stroke-linejoin="round"/>
<path d="M883.786 313.264L884 314.383C884.261 314.359 884.517 314.367 884.765 314.409C885.014 314.45 885.237 314.519 885.432 314.614C885.634 314.709 885.799 314.827 885.927 314.967C886.062 315.106 886.145 315.261 886.178 315.433C886.208 315.592 886.189 315.722 886.119 315.824C886.05 315.926 885.942 315.991 885.795 316.019C885.661 316.045 885.553 316.03 885.473 315.976C885.399 315.92 885.334 315.847 885.279 315.756C885.223 315.659 885.167 315.552 885.113 315.436C885.06 315.319 884.992 315.215 884.911 315.123C884.829 315.024 884.722 314.946 884.591 314.889C884.464 314.824 884.295 314.799 884.082 314.815L884.565 317.347C885.002 317.448 885.372 317.555 885.672 317.669C885.978 317.775 886.233 317.901 886.438 318.046C886.642 318.185 886.799 318.342 886.909 318.517C887.018 318.693 887.095 318.894 887.138 319.12C887.193 319.408 887.191 319.684 887.134 319.949C887.075 320.207 886.969 320.446 886.814 320.666C886.658 320.879 886.456 321.067 886.208 321.228C885.966 321.388 885.688 321.511 885.375 321.596L885.658 323.083L885.153 323.179L884.872 321.701C884.564 321.747 884.264 321.754 883.972 321.721C883.68 321.687 883.414 321.621 883.173 321.521C882.938 321.42 882.739 321.287 882.574 321.122C882.414 320.949 882.312 320.747 882.268 320.514C882.228 320.306 882.246 320.151 882.322 320.048C882.397 319.944 882.493 319.882 882.609 319.86C882.725 319.837 882.824 319.857 882.905 319.917C882.992 319.971 883.066 320.045 883.129 320.141C883.19 320.231 883.244 320.328 883.289 320.434C883.335 320.539 883.374 320.627 883.406 320.697C883.449 320.79 883.504 320.878 883.57 320.96C883.642 321.035 883.73 321.101 883.836 321.157C883.948 321.212 884.079 321.25 884.229 321.272C884.384 321.287 884.569 321.277 884.784 321.243L884.26 318.49C884.008 318.436 883.759 318.376 883.512 318.309C883.264 318.242 883.037 318.146 882.829 318.02C882.621 317.895 882.441 317.733 882.289 317.534C882.137 317.334 882.031 317.079 881.972 316.767C881.92 316.491 881.915 316.232 881.957 315.99C882.004 315.74 882.095 315.516 882.229 315.32C882.361 315.117 882.534 314.945 882.748 314.802C882.961 314.654 883.209 314.543 883.493 314.47L883.282 313.36L883.786 313.264ZM886.267 319.743C886.233 319.565 886.17 319.416 886.077 319.294C885.989 319.165 885.88 319.059 885.75 318.976C885.625 318.886 885.482 318.815 885.32 318.763C885.157 318.705 884.985 318.656 884.806 318.614L885.286 321.128C885.68 321.002 885.956 320.82 886.113 320.58C886.275 320.334 886.327 320.055 886.267 319.743ZM882.747 316.143C882.796 316.4 882.92 316.618 883.119 316.795C883.324 316.972 883.623 317.115 884.018 317.223L883.579 314.92C883.27 315.029 883.041 315.19 882.891 315.403C882.742 315.615 882.694 315.862 882.747 316.143Z" fill="#16A1DC"/>
<path d="M886.426 331.719C892.375 331.719 897.197 326.898 897.197 320.952C897.197 315.005 892.375 310.185 886.426 310.185C880.478 310.185 875.656 315.005 875.656 320.952C875.656 326.898 880.478 331.719 886.426 331.719Z" stroke="#16A1DC" stroke-width="1.5" stroke-miterlimit="10" stroke-linecap="round" stroke-linejoin="round"/>
<path d="M865.624 311.217C866.51 315.79 863.559 320.067 858.985 320.952" stroke="#16A1DC" stroke-width="1.5" stroke-miterlimit="10" stroke-linecap="round" stroke-linejoin="round"/>
<path d="M907.376 329.212C906.491 324.639 909.442 320.362 914.015 319.477" stroke="#16A1DC" stroke-width="1.5" stroke-miterlimit="10" stroke-linecap="round" stroke-linejoin="round"/>
<path d="M912.394 310.775C907.82 311.66 903.541 308.71 902.656 304.137" stroke="#16A1DC" stroke-width="1.5" stroke-miterlimit="10" stroke-linecap="round" stroke-linejoin="round"/>
<path d="M867.689 314.61C873.637 314.61 878.46 309.789 878.46 303.842C878.46 297.896 873.637 293.075 867.689 293.075C861.741 293.075 856.918 297.896 856.918 303.842C856.918 309.789 861.741 314.61 867.689 314.61Z" fill="white" stroke="#16A1DC" stroke-width="1.5" stroke-miterlimit="10" stroke-linecap="round" stroke-linejoin="round"/>
<path d="M869.229 295.808L868.852 296.883C869.091 296.993 869.308 297.128 869.502 297.289C869.697 297.449 869.855 297.62 869.976 297.801C870.104 297.984 870.187 298.168 870.228 298.354C870.275 298.542 870.269 298.718 870.211 298.882C870.158 299.035 870.076 299.138 869.965 299.192C869.853 299.246 869.727 299.248 869.586 299.198C869.457 299.153 869.371 299.087 869.329 299C869.293 298.914 869.274 298.819 869.271 298.712C869.271 298.6 869.277 298.48 869.289 298.352C869.3 298.224 869.294 298.1 869.27 297.979C869.249 297.853 869.195 297.732 869.11 297.617C869.033 297.497 868.899 297.391 868.707 297.298L867.856 299.731C868.184 300.038 868.45 300.315 868.653 300.564C868.864 300.81 869.022 301.046 869.127 301.274C869.234 301.496 869.291 301.711 869.298 301.918C869.305 302.125 869.27 302.337 869.194 302.555C869.097 302.831 868.958 303.069 868.776 303.269C868.596 303.464 868.384 303.617 868.14 303.73C867.898 303.836 867.629 303.898 867.333 303.913C867.044 303.93 866.742 303.897 866.428 303.814L865.928 305.242L865.443 305.073L865.94 303.653C865.65 303.539 865.387 303.394 865.151 303.219C864.915 303.044 864.718 302.854 864.56 302.646C864.407 302.441 864.301 302.226 864.241 302.001C864.19 301.771 864.203 301.545 864.281 301.322C864.351 301.122 864.444 300.996 864.561 300.945C864.678 300.893 864.793 300.887 864.904 300.926C865.016 300.965 865.092 301.031 865.132 301.124C865.18 301.214 865.207 301.316 865.213 301.43C865.221 301.538 865.219 301.65 865.205 301.764C865.192 301.878 865.181 301.973 865.174 302.05C865.165 302.152 865.168 302.255 865.185 302.36C865.209 302.461 865.253 302.562 865.316 302.663C865.385 302.767 865.479 302.866 865.598 302.96C865.725 303.05 865.89 303.135 866.094 303.212L867.019 300.567C866.829 300.395 866.643 300.218 866.463 300.036C866.282 299.854 866.133 299.657 866.016 299.445C865.899 299.232 865.825 299.002 865.793 298.753C865.761 298.504 865.798 298.23 865.903 297.93C865.995 297.666 866.121 297.439 866.279 297.25C866.446 297.058 866.636 296.91 866.85 296.807C867.066 296.698 867.303 296.635 867.559 296.619C867.817 296.597 868.088 296.626 868.37 296.705L868.744 295.638L869.229 295.808ZM868.129 302.657C868.189 302.487 868.209 302.325 868.189 302.174C868.178 302.018 868.137 301.871 868.066 301.734C868.003 301.594 867.914 301.46 867.8 301.335C867.687 301.203 867.564 301.074 867.43 300.948L866.585 303.364C866.989 303.453 867.32 303.433 867.576 303.305C867.84 303.173 868.024 302.957 868.129 302.657ZM866.886 297.779C866.8 298.026 866.798 298.276 866.881 298.53C866.97 298.785 867.158 299.058 867.445 299.35L868.219 297.137C867.897 297.077 867.618 297.102 867.382 297.21C867.146 297.319 866.981 297.509 866.886 297.779Z" fill="#16A1DC"/>
<path d="M699.199 176.258H772.674V267.263H681.789V193.662" fill="white"/>
<path d="M699.199 176.258H772.674V267.263H681.789V193.662" stroke="#16A1DC" stroke-width="1.5" stroke-miterlimit="10" stroke-linecap="round" stroke-linejoin="round"/>
<path d="M732.098 211.657C732.098 201.185 723.54 192.63 713.065 192.63C702.59 192.63 694.032 201.185 694.032 211.657C694.032 218.737 698.016 225.079 703.77 228.324C705.688 232.602 702.295 235.257 702.295 235.257C706.426 237.174 711.442 235.404 713.36 231.274C713.36 231.127 713.508 230.979 713.508 230.832C723.836 230.389 732.098 221.982 732.098 211.657Z" fill="white" stroke="#16A1DC" stroke-width="1.5" stroke-miterlimit="10" stroke-linecap="round" stroke-linejoin="round"/>
<path d="M722.363 231.274C722.363 220.802 730.921 212.247 741.396 212.247C751.871 212.247 760.429 220.802 760.429 231.274C760.429 238.354 756.445 244.696 750.691 247.941C748.773 252.219 752.167 254.874 752.167 254.874C748.035 256.791 743.019 255.021 741.101 250.891C741.101 250.744 740.953 250.596 740.953 250.449C730.626 250.006 722.363 241.599 722.363 231.274Z" fill="white" stroke="#16A1DC" stroke-width="1.5" stroke-miterlimit="10" stroke-linecap="round" stroke-linejoin="round"/>
<path d="M722.361 208.855C722.213 207.97 721.475 207.232 720.443 207.232H719.115H716.459H712.18C712.771 206.052 713.213 204.872 713.656 203.692V203.545C713.951 202.512 713.508 201.48 712.623 201.185C711.59 200.742 710.41 201.332 710.115 202.512C709.672 203.84 709.23 205.315 708.344 206.937C707.754 207.822 707.016 208.56 706.279 209.297C704.656 210.625 703.771 212.689 703.771 214.902C703.918 218.737 707.311 221.834 711.148 221.834H713.951H716.459H718.082C718.967 221.834 719.852 221.097 720 220.212C720.148 219.179 719.262 218.294 718.229 218.294H717.934H718.967C719.852 218.294 720.738 217.557 720.885 216.672C721.033 215.639 720.148 214.754 719.115 214.754H719.852C720.738 214.754 721.623 214.017 721.771 213.132C721.771 212.247 721.18 211.51 720.295 211.215H720.738C721.623 210.772 722.361 209.887 722.361 208.855Z" fill="#EBF7FE" stroke="#16A1DC" stroke-width="1.5" stroke-miterlimit="10" stroke-linecap="round" stroke-linejoin="round"/>
<path d="M720.146 210.772H716.31" stroke="#16A1DC" stroke-width="1.5" stroke-miterlimit="10" stroke-linecap="round" stroke-linejoin="round"/>
<path d="M719.26 214.312H716.31" stroke="#16A1DC" stroke-width="1.5" stroke-miterlimit="10" stroke-linecap="round" stroke-linejoin="round"/>
<path d="M718.228 217.852H716.31" stroke="#16A1DC" stroke-width="1.5" stroke-miterlimit="10" stroke-linecap="round" stroke-linejoin="round"/>
<path d="M732.246 236.436C732.394 237.321 733.131 238.059 734.164 238.059H735.492H738.148H742.426C741.836 239.239 741.394 240.419 740.951 241.599V241.746C740.656 242.779 741.099 243.811 741.984 244.106C743.017 244.549 744.197 243.959 744.492 242.779C744.935 241.451 745.377 239.976 746.262 238.354C746.853 237.469 747.59 236.731 748.328 235.994C749.951 234.667 750.836 232.602 750.836 230.389C750.689 226.554 747.295 223.457 743.459 223.457H740.656H738.148H736.525C735.64 223.457 734.754 224.194 734.607 225.079C734.459 226.112 735.344 226.997 736.377 226.997H736.672H735.64C734.754 226.997 733.869 227.734 733.722 228.619C733.574 229.652 734.459 230.537 735.492 230.537H734.754C733.869 230.537 732.984 231.274 732.836 232.159C732.836 233.044 733.426 233.782 734.312 234.077H733.869C732.984 234.519 732.246 235.404 732.246 236.436Z" fill="#EBF7FE" stroke="#16A1DC" stroke-width="1.5" stroke-miterlimit="10" stroke-linecap="round" stroke-linejoin="round"/>
<path d="M734.609 234.519H738.298" stroke="#16A1DC" stroke-width="1.5" stroke-miterlimit="10" stroke-linecap="round" stroke-linejoin="round"/>
<path d="M735.344 230.979H738.295" stroke="#16A1DC" stroke-width="1.5" stroke-miterlimit="10" stroke-linecap="round" stroke-linejoin="round"/>
<path d="M736.379 227.292H738.297" stroke="#16A1DC" stroke-width="1.5" stroke-miterlimit="10" stroke-linecap="round" stroke-linejoin="round"/>
<path d="M767.654 272.278L763.375 198.53L854.26 193.663L859.129 284.373L785.801 288.798" fill="white"/>
<path d="M767.654 272.278L763.375 198.53L854.26 193.663L859.129 284.373L785.801 288.798" stroke="#16A1DC" stroke-width="1.5" stroke-miterlimit="10" stroke-linecap="round" stroke-linejoin="round"/>
<path d="M821.523 219.92L776.586 222.339L778.046 249.44L822.983 247.021L821.523 219.92Z" fill="#EBF7FE" stroke="#16A1DC" stroke-width="1.5" stroke-miterlimit="10" stroke-linecap="round" stroke-linejoin="round"/>
<path d="M776.653 222.277L799.964 237.617L821.505 219.917" stroke="#16A1DC" stroke-width="1.5" stroke-miterlimit="10" stroke-linecap="round" stroke-linejoin="round"/>
<path d="M778.129 249.416L791.556 232.159" stroke="#16A1DC" stroke-width="1.5" stroke-miterlimit="10" stroke-linecap="round" stroke-linejoin="round"/>
<path d="M822.834 246.909L807.637 231.274" stroke="#16A1DC" stroke-width="1.5" stroke-miterlimit="10" stroke-linecap="round" stroke-linejoin="round"/>
<path d="M815.462 275.965L821.216 275.818C821.216 275.818 822.839 269.623 822.691 269.623C822.544 269.476 821.806 253.546 821.806 253.546L814.282 253.988L815.462 275.965Z" fill="white" stroke="#16A1DC" stroke-width="1.5" stroke-miterlimit="10"/>
<path d="M818.412 253.398L810.297 253.841C810.002 253.841 809.707 254.136 809.707 254.431L810.592 270.508C810.74 273.753 813.543 276.113 816.641 275.965L837.15 274.933L840.838 274.785C843.642 274.638 845.707 272.278 845.559 269.475L843.789 235.846C843.789 235.551 843.494 235.256 843.199 235.256L818.117 236.584C817.822 236.584 817.527 236.879 817.527 237.174L819.445 272.573C819.592 274.343 818.117 275.965 816.346 276.113" fill="white"/>
<path d="M818.412 253.398L810.297 253.841C810.002 253.841 809.707 254.136 809.707 254.431L810.592 270.508C810.74 273.753 813.543 276.113 816.641 275.965L837.15 274.933L840.838 274.785C843.642 274.638 845.707 272.278 845.559 269.475L843.789 235.846C843.789 235.551 843.494 235.256 843.199 235.256L818.117 236.584C817.822 236.584 817.527 236.879 817.527 237.174L819.445 272.573C819.592 274.343 818.117 275.965 816.346 276.113" stroke="#16A1DC" stroke-width="1.5" stroke-miterlimit="10" stroke-linecap="round" stroke-linejoin="round"/>
<path d="M823.28 259.446L840.985 258.561" stroke="#16A1DC" stroke-width="1.5" stroke-miterlimit="10" stroke-linecap="round" stroke-linejoin="round"/>
<path d="M823.43 263.428L841.282 262.543" stroke="#16A1DC" stroke-width="1.5" stroke-miterlimit="10" stroke-linecap="round" stroke-linejoin="round"/>
<path d="M823.724 267.411L841.429 266.526" stroke="#16A1DC" stroke-width="1.5" stroke-miterlimit="10" stroke-linecap="round" stroke-linejoin="round"/>
<path d="M822.542 247.351L840.247 246.319" stroke="#16A1DC" stroke-width="1.5" stroke-miterlimit="10" stroke-linecap="round" stroke-linejoin="round"/>
<path d="M822.691 251.333L840.543 250.301" stroke="#16A1DC" stroke-width="1.5" stroke-miterlimit="10" stroke-linecap="round" stroke-linejoin="round"/>
<path d="M822.984 255.316L840.689 254.283" stroke="#16A1DC" stroke-width="1.5" stroke-miterlimit="10" stroke-linecap="round" stroke-linejoin="round"/>
<path d="M812.656 258.413L818.706 258.118" stroke="#16A1DC" stroke-width="1.5" stroke-miterlimit="10" stroke-linecap="round" stroke-linejoin="round"/>
<path d="M812.953 262.396L818.854 262.101" stroke="#16A1DC" stroke-width="1.5" stroke-miterlimit="10" stroke-linecap="round" stroke-linejoin="round"/>
<path d="M813.101 266.378L819.15 266.083" stroke="#16A1DC" stroke-width="1.5" stroke-miterlimit="10" stroke-linecap="round" stroke-linejoin="round"/>
<path d="M813.396 270.36L819.297 270.065" stroke="#16A1DC" stroke-width="1.5" stroke-miterlimit="10" stroke-linecap="round" stroke-linejoin="round"/>
<path d="M823.872 271.245L841.576 270.36" stroke="#16A1DC" stroke-width="1.5" stroke-miterlimit="10" stroke-linecap="round" stroke-linejoin="round"/>
<path d="M699.199 193.662H681.789L699.199 176.258V193.662Z" fill="white" stroke="#16A1DC" stroke-width="1.5" stroke-miterlimit="10" stroke-linecap="round" stroke-linejoin="round"/>
<path d="M785.066 271.541L785.804 288.798L767.656 272.278L785.066 271.541Z" fill="white" stroke="#16A1DC" stroke-width="1.5" stroke-miterlimit="10" stroke-linecap="round" stroke-linejoin="round"/>
<path d="M831.097 187.468L834.491 126.847L925.228 131.419L921.097 203.84C920.802 209.002 914.901 212.985 909.737 212.837L829.77 208.707" fill="white"/>
<path d="M831.097 187.468L834.491 126.847L925.228 131.419L921.097 203.84C920.802 209.002 914.901 212.985 909.737 212.837L829.77 208.707" stroke="#16A1DC" stroke-width="1.5" stroke-miterlimit="10" stroke-linecap="round" stroke-linejoin="round"/>
<path d="M896.755 156.494C895.575 153.544 893.067 151.184 889.821 150.299C889.526 150.151 889.231 150.151 888.936 150.151C881.706 148.824 876.1 156.641 879.345 163.131L882.886 170.358L889.526 183.78L901.477 175.816L908.116 171.391C913.87 167.556 913.575 158.559 907.231 155.609C906.641 155.314 906.198 155.166 905.608 155.019C902.362 154.134 899.263 154.871 896.755 156.494Z" fill="#EBF7FE" stroke="#16A1DC" stroke-width="1.5" stroke-miterlimit="10" stroke-linecap="round" stroke-linejoin="round"/>
<path d="M850.722 173.161C849.542 172.718 848.951 171.391 849.394 170.063L856.328 151.921C856.771 150.741 858.099 150.151 859.427 150.594C860.607 151.036 861.197 152.364 860.755 153.691L853.82 171.833C853.23 173.013 851.902 173.603 850.722 173.161Z" fill="#EBF7FE" stroke="#16A1DC" stroke-width="1.5" stroke-miterlimit="10" stroke-linecap="round" stroke-linejoin="round"/>
<path d="M877.281 176.848L872.117 174.93L876.396 163.426L881.56 165.343C883.478 166.081 884.363 168.146 883.626 170.063L881.855 174.636C881.265 176.553 879.052 177.585 877.281 176.848Z" fill="#EBF7FE" stroke="#16A1DC" stroke-width="1.5" stroke-miterlimit="10" stroke-linecap="round" stroke-linejoin="round"/>
<path d="M860.605 153.101C860.605 153.101 864.589 158.558 876.392 163.426" stroke="#16A1DC" stroke-width="1.5" stroke-miterlimit="10" stroke-linecap="round" stroke-linejoin="round"/>
<path d="M853.378 172.276C853.378 172.276 860.017 170.801 871.968 174.931" stroke="#16A1DC" stroke-width="1.5" stroke-miterlimit="10" stroke-linecap="round" stroke-linejoin="round"/>
<path d="M877.426 163.573L877.868 162.394C878.163 161.509 879.196 161.066 880.081 161.361L881.409 161.951C882.295 162.246 882.737 163.278 882.442 164.163L881.999 165.343" fill="#EBF7FE"/>
<path d="M877.426 163.573L877.868 162.394C878.163 161.509 879.196 161.066 880.081 161.361L881.409 161.951C882.295 162.246 882.737 163.278 882.442 164.163L881.999 165.343" stroke="#16A1DC" stroke-width="1.5" stroke-miterlimit="10" stroke-linecap="round" stroke-linejoin="round"/>
<path d="M875.657 176.258L873.739 181.421C872.558 184.518 869.165 185.993 866.066 184.813L865.624 184.666C864.739 184.371 864.443 183.486 864.739 182.601C864.886 182.158 865.181 181.863 865.624 181.716L866.804 181.273C867.837 180.831 868.722 179.946 869.165 178.913L870.788 174.488" stroke="#16A1DC" stroke-width="1.5" stroke-miterlimit="10" stroke-linecap="round" stroke-linejoin="round"/>
<path d="M851.016 153.839L845.41 148.529" stroke="#16A1DC" stroke-width="1.5" stroke-miterlimit="10" stroke-linecap="round" stroke-linejoin="round"/>
<path d="M839.656 163.573L847.476 163.278" stroke="#16A1DC" stroke-width="1.5" stroke-miterlimit="10" stroke-linecap="round" stroke-linejoin="round"/>
<path d="M849.098 158.706L840.983 155.609" stroke="#16A1DC" stroke-width="1.5" stroke-miterlimit="10" stroke-linecap="round" stroke-linejoin="round"/>
<path d="M834.195 187.615L821.064 186.878L820.621 196.465C820.621 196.465 821.506 206.495 826.67 207.822C831.834 209.15 833.9 203.545 833.9 203.545L834.195 187.615Z" fill="white"/>
<path d="M875.656 198.53L900.59 200.595L901.475 191.155L878.459 189.975L875.656 198.53Z" fill="white"/>
<path d="M829.919 208.707C824.46 208.412 820.329 203.84 820.624 198.382L821.214 187.025L901.476 191.155L900.886 202.512C900.591 207.97 904.722 212.542 910.181 212.837" stroke="#16A1DC" stroke-width="1.5" stroke-miterlimit="10" stroke-linecap="round" stroke-linejoin="round"/>
<path d="M810.002 211.215C812.365 211.215 814.281 209.3 814.281 206.937C814.281 204.575 812.365 202.66 810.002 202.66C807.639 202.66 805.723 204.575 805.723 206.937C805.723 209.3 807.639 211.215 810.002 211.215Z" fill="#252B2D"/>
<path d="M808.525 211.215C810.888 211.215 812.804 209.3 812.804 206.937C812.804 204.575 810.888 202.66 808.525 202.66C806.162 202.66 804.247 204.575 804.247 206.937C804.247 209.3 806.162 211.215 808.525 211.215Z" fill="#16A1DC"/>
<path d="M731.507 192.483C733.87 192.483 735.786 190.568 735.786 188.205C735.786 185.843 733.87 183.928 731.507 183.928C729.144 183.928 727.229 185.843 727.229 188.205C727.229 190.568 729.144 192.483 731.507 192.483Z" fill="#252B2D"/>
<path d="M730.18 192.483C732.543 192.483 734.459 190.568 734.459 188.205C734.459 185.843 732.543 183.928 730.18 183.928C727.817 183.928 725.901 185.843 725.901 188.205C725.901 190.568 727.817 192.483 730.18 192.483Z" fill="#16A1DC"/>
<path d="M878.31 144.989C880.673 144.989 882.589 143.074 882.589 140.711C882.589 138.349 880.673 136.434 878.31 136.434C875.947 136.434 874.031 138.349 874.031 140.711C874.031 143.074 875.947 144.989 878.31 144.989Z" fill="#252B2D"/>
<path d="M876.833 144.989C879.196 144.989 881.112 143.074 881.112 140.711C881.112 138.349 879.196 136.434 876.833 136.434C874.47 136.434 872.555 138.349 872.555 140.711C872.555 143.074 874.47 144.989 876.833 144.989Z" fill="#16A1DC"/>
<path d="M895.279 280.096C897.642 280.096 899.558 278.18 899.558 275.818C899.558 273.456 897.642 271.541 895.279 271.541C892.916 271.541 891 273.456 891 275.818C891 278.18 892.916 280.096 895.279 280.096Z" fill="#252B2D"/>
<path d="M893.803 280.244C896.166 280.244 898.081 278.329 898.081 275.967C898.081 273.604 896.166 271.689 893.803 271.689C891.44 271.689 889.524 273.604 889.524 275.967C889.524 278.329 891.44 280.244 893.803 280.244Z" fill="#16A1DC"/>
<path d="M10.1967 146.196C6.21311 140.444 4 133.511 4 125.989C4 106.077 20.2295 90 40.1475 90C45.7541 90 51.0656 91.3275 55.7869 93.5399" stroke="#252B2D" stroke-width="1.5" stroke-miterlimit="10" stroke-linecap="round" stroke-linejoin="round" stroke-dasharray="0.5 0.5"/>
<path d="M117.014 118.614V174.515H58.293V97.522H96.3585" fill="white"/>
<path d="M117.014 118.614V174.515H58.293V97.522H96.3585" stroke="#252B2D" stroke-width="1.5" stroke-miterlimit="10" stroke-linejoin="round"/>
<path d="M117.015 118.614H96.3594V97.522L117.015 118.614Z" fill="white" stroke="#252B2D" stroke-width="1.5" stroke-miterlimit="10" stroke-linejoin="round"/>
<path d="M101.081 131.594V187.495H42.3594V110.649H80.4249" fill="white"/>
<path d="M101.081 131.594V187.495H42.3594V110.649H80.4249" stroke="#252B2D" stroke-width="1.5" stroke-miterlimit="10" stroke-linejoin="round"/>
<path d="M101.082 131.594H80.4258V110.649L101.082 131.594Z" fill="white" stroke="#252B2D" stroke-width="1.5" stroke-miterlimit="10" stroke-linejoin="round"/>
<path d="M59.3111 131.419H31.2783V180.683H59.3111V131.419Z" fill="white"/>
<path d="M11.2286 162.863C12.2614 164.338 12.2614 166.256 11.2286 167.731L9.90076 169.648C8.42535 171.713 9.16306 174.663 11.3762 175.695L13.2942 176.728C14.9172 177.613 15.8024 179.383 15.5073 181.005L15.0647 183.07C14.6221 185.578 16.5401 187.79 19.0483 187.938L21.2614 188.085C23.0319 188.233 24.6549 189.413 25.0975 191.035L25.6876 193.1C26.4254 195.46 29.0811 196.787 31.4417 195.755L33.5073 194.87C35.1303 194.132 37.0483 194.575 38.2286 195.902L39.704 197.525C41.327 199.442 44.2778 199.442 46.0483 197.377L47.5237 195.755C48.704 194.427 50.6221 193.985 52.245 194.575L54.3106 195.46C56.6713 196.492 59.327 195.165 59.9172 192.657L60.5073 190.592C60.9499 188.823 62.5729 187.643 64.3434 187.495L66.5565 187.348C69.0647 187.2 70.8352 184.84 70.3926 182.333L69.9499 180.268C69.6549 178.498 70.5401 176.728 72.0155 175.843L73.9336 174.81C76.1467 173.63 76.7368 170.681 75.2614 168.616L73.9336 166.846C72.9008 165.371 72.9008 163.453 73.9336 161.978L75.2614 160.208C76.7368 158.143 75.9991 155.193 73.786 154.161L71.7204 153.423C70.0975 152.538 69.2122 150.769 69.5073 149.146L69.9499 147.081C70.3926 144.574 68.4745 142.361 65.9663 142.214L63.7532 142.066C61.9827 141.919 60.3598 140.739 59.9172 139.116L59.327 137.051C58.5893 134.691 55.9335 133.364 53.5729 134.396L51.3598 135.281C49.7368 136.019 47.8188 135.576 46.6385 134.249L45.1631 132.626C43.5401 130.857 40.5893 130.857 38.9663 132.774L37.4909 134.396C36.3106 135.724 34.3926 136.166 32.7696 135.576L30.704 134.691C28.3434 133.659 25.6876 134.986 25.0975 137.494L24.5073 139.559C24.0647 141.329 22.4417 142.509 20.6713 142.656L18.4581 142.804C15.9499 142.951 14.1795 145.311 14.6221 147.819L15.0647 149.589C15.3598 151.359 14.4745 153.128 12.9991 154.013L11.0811 155.046C8.86798 156.226 8.27781 159.176 9.75322 161.241L11.2286 162.863ZM25.5401 157.996L36.1631 157.258L40.1467 147.376C40.8844 145.459 43.5401 145.459 44.2778 147.376L48.2614 157.258L58.8844 157.996C60.9499 158.143 61.6876 160.651 60.2122 161.978L52.0975 168.911L54.6057 179.383C55.0483 181.3 52.9827 182.923 51.2122 181.89L42.2122 176.138L33.2122 181.743C31.4417 182.775 29.3762 181.153 29.8188 179.235L32.327 168.763L24.2122 161.831C22.7368 160.651 23.4745 158.143 25.5401 157.996Z" fill="#16A1DC"/>
<path d="M546.852 125.896V108.491C546.852 106.426 548.475 104.804 550.54 104.804C552.606 104.804 554.229 106.426 554.229 108.049V121.176C554.229 121.176 566.622 120.144 570.606 129.583C574.589 139.023 561.901 147.43 561.901 147.43" fill="white"/>
<path d="M546.852 125.896V108.491C546.852 106.426 548.475 104.804 550.54 104.804C552.606 104.804 554.229 106.426 554.229 108.049V121.176C554.229 121.176 566.622 120.144 570.606 129.583C574.589 139.023 561.901 147.43 561.901 147.43" stroke="#252B2D" stroke-width="1.5" stroke-miterlimit="10"/>
<path d="M541.246 116.013V105.246C541.246 103.181 542.869 101.559 544.935 101.559C547 101.559 548.623 103.181 548.623 105.246V122.651" fill="white"/>
<path d="M541.246 116.013V105.246C541.246 103.181 542.869 101.559 544.935 101.559C547 101.559 548.623 103.181 548.623 105.246V122.651" stroke="#252B2D" stroke-width="1.5" stroke-miterlimit="10"/>
<path d="M534.605 123.536V106.279C534.605 104.214 536.228 102.592 538.294 102.592C540.36 102.592 541.983 104.214 541.983 106.279V118.521" fill="white"/>
<path d="M534.605 123.536V106.279C534.605 104.214 536.228 102.592 538.294 102.592C540.36 102.592 541.983 104.214 541.983 106.279V118.521" stroke="#252B2D" stroke-width="1.5" stroke-miterlimit="10"/>
<path d="M544.787 134.008L541.541 116.751C541.098 114.096 542.721 111.589 545.377 111.146C548.033 110.704 550.541 112.326 550.984 114.981L553.639 129.288C556.147 128.993 558.656 129.583 560.869 131.058C565.738 134.303 566.918 140.941 563.672 145.808C560.574 150.233 554.525 151.413 550.098 148.463L532.984 136.811C530.77 135.336 529.295 132.681 529.295 130.026L529 108.344C529 106.426 530.623 104.804 532.541 104.804C532.541 104.804 532.541 104.804 532.689 104.804C534.459 104.804 536.082 106.279 536.082 108.196L536.82 125.306L544.344 131.796" fill="white"/>
<path d="M544.787 134.008L541.541 116.751C541.098 114.096 542.721 111.589 545.377 111.146C548.033 110.704 550.541 112.326 550.984 114.981L553.639 129.288C556.147 128.993 558.656 129.583 560.869 131.058C565.738 134.303 566.918 140.941 563.672 145.808C560.574 150.233 554.525 151.413 550.098 148.463L532.984 136.811C530.77 135.336 529.295 132.681 529.295 130.026L529 108.344C529 106.426 530.623 104.804 532.541 104.804C532.541 104.804 532.541 104.804 532.689 104.804C534.459 104.804 536.082 106.279 536.082 108.196L536.82 125.306L544.344 131.796" stroke="#252B2D" stroke-width="1.5" stroke-miterlimit="10"/>
<path d="M624.165 125.896V108.491C624.165 106.426 622.542 104.804 620.476 104.804C618.411 104.804 616.788 106.426 616.788 108.049V121.176C616.788 121.176 604.394 120.143 600.411 129.583C596.427 139.023 609.116 147.43 609.116 147.43" fill="white"/>
<path d="M624.165 125.896V108.491C624.165 106.426 622.542 104.804 620.476 104.804C618.411 104.804 616.788 106.426 616.788 108.049V121.176C616.788 121.176 604.394 120.143 600.411 129.583C596.427 139.023 609.116 147.43 609.116 147.43" stroke="#252B2D" stroke-width="1.5" stroke-miterlimit="10"/>
<path d="M629.772 116.013V105.246C629.772 103.181 628.149 101.559 626.084 101.559C624.018 101.559 622.395 103.181 622.395 105.246V122.651" fill="white"/>
<path d="M629.772 116.013V105.246C629.772 103.181 628.149 101.559 626.084 101.559C624.018 101.559 622.395 103.181 622.395 105.246V122.651" stroke="#252B2D" stroke-width="1.5" stroke-miterlimit="10"/>
<path d="M636.411 123.536V106.278C636.411 104.214 634.788 102.591 632.723 102.591C630.657 102.591 629.034 104.214 629.034 106.278V118.521" fill="white"/>
<path d="M636.411 123.536V106.278C636.411 104.214 634.788 102.591 632.723 102.591C630.657 102.591 629.034 104.214 629.034 106.278V118.521" stroke="#252B2D" stroke-width="1.5" stroke-miterlimit="10"/>
<path d="M626.232 134.008L629.478 116.751C629.921 114.096 628.298 111.589 625.642 111.146C622.986 110.704 620.478 112.326 620.035 114.981L617.38 129.141C614.871 128.846 612.363 129.436 610.15 130.911C605.281 134.155 604.101 140.793 607.347 145.66C610.445 150.085 616.494 151.265 620.921 148.315L638.035 136.663C640.249 135.188 641.724 132.533 641.724 129.878L642.019 108.196C642.019 106.279 640.396 104.656 638.478 104.656C638.478 104.656 638.478 104.656 638.331 104.656C636.56 104.656 634.937 106.131 634.937 108.049L634.199 125.158L626.675 131.648" fill="white"/>
<path d="M626.232 134.008L629.478 116.751C629.921 114.096 628.298 111.589 625.642 111.146C622.986 110.704 620.478 112.326 620.035 114.981L617.38 129.141C614.871 128.846 612.363 129.436 610.15 130.911C605.281 134.155 604.101 140.793 607.347 145.66C610.445 150.085 616.494 151.265 620.921 148.315L638.035 136.663C640.249 135.188 641.724 132.533 641.724 129.878L642.019 108.196C642.019 106.279 640.396 104.656 638.478 104.656C638.478 104.656 638.478 104.656 638.331 104.656C636.56 104.656 634.937 106.131 634.937 108.049L634.199 125.158L626.675 131.648" stroke="#252B2D" stroke-width="1.5" stroke-miterlimit="10"/>
<path d="M573.855 116.898C575.625 116.898 577.248 115.423 577.248 113.506V110.114H582.117V105.099H585.51C587.281 105.099 588.904 103.624 588.904 101.706C588.904 99.9363 587.428 98.3139 585.51 98.3139H581.969V93.299H577.101V89.9066C577.101 88.1366 575.625 86.5142 573.707 86.5142C571.937 86.5142 570.314 87.9891 570.314 89.9066V93.299H565.74V98.3139H562.347C560.576 98.3139 558.953 99.7888 558.953 101.706C558.953 103.476 560.429 105.099 562.347 105.099H565.74V110.114H570.609V113.506C570.461 115.423 571.937 116.898 573.855 116.898Z" fill="#16A1DC"/>
<path d="M594.802 90.349V93.7414H589.934V98.7562H593.327C595.098 98.7562 596.72 100.231 596.72 102.149C596.72 103.919 595.245 105.541 593.327 105.541H589.934V110.556H594.802V113.948C594.802 115.718 596.278 117.341 598.196 117.341C599.966 117.341 601.589 115.866 601.589 113.948V110.556H606.458V105.541H609.852C611.622 105.541 613.245 104.066 613.245 102.149C613.245 100.379 611.77 98.7562 609.852 98.7562H606.458V93.7414H601.589V90.349C601.589 88.579 600.114 86.9565 598.196 86.9565C596.278 86.9565 594.802 88.4315 594.802 90.349Z" fill="#16A1DC"/>
<path d="M547.148 99.3465C547.148 99.199 547.148 99.0515 547.148 99.0515" stroke="#252B2D" stroke-width="1.5" stroke-linecap="round" stroke-linejoin="round"/>
<path d="M547.297 96.1014C548.92 76.4844 565.445 61.1448 585.51 61.1448C606.019 61.1448 622.838 77.3694 623.724 97.5763" stroke="#252B2D" stroke-width="1.5" stroke-linecap="round" stroke-linejoin="round" stroke-dasharray="0.49 0.49"/>
<path d="M623.722 98.9041C623.722 99.0515 623.722 99.199 623.722 99.199" stroke="#252B2D" stroke-width="1.5" stroke-linecap="round" stroke-linejoin="round"/>
<path d="M585.51 56.1299C583.592 53.6225 580.494 52 576.953 52C576.658 52 576.363 52 576.068 52C568.543 52.59 565.15 61.8822 570.166 67.4871L575.625 73.682L585.805 85.1867L595.396 74.1244L600.707 67.9296C605.428 62.4722 602.477 53.77 595.543 52.7375C594.953 52.59 594.363 52.59 593.773 52.59C590.379 52.295 587.428 53.77 585.51 56.1299Z" fill="white" stroke="#252B2D" stroke-width="1.5" stroke-miterlimit="10"/>
<path d="M129.738 23.8971C136.23 14.8999 147.001 9 158.951 9C178.869 9 195.099 25.2246 195.099 45.1366C195.099 46.3166 195.099 47.349 194.951 48.529" stroke="#252B2D" stroke-width="1.5" stroke-miterlimit="10" stroke-linecap="round" stroke-linejoin="round" stroke-dasharray="0.5 0.5"/>
<path d="M122.656 67.8509C139.36 67.8509 152.902 60.0586 152.902 50.4463C152.902 40.834 139.36 33.0417 122.656 33.0417C105.952 33.0417 92.4102 40.834 92.4102 50.4463C92.4102 60.0586 105.952 67.8509 122.656 67.8509Z" stroke="#16A1DC" stroke-width="1.5" stroke-miterlimit="10"/>
<path d="M122.656 67.1135C131.863 67.1135 139.328 59.6514 139.328 50.4464C139.328 41.2414 131.863 33.7793 122.656 33.7793C113.448 33.7793 105.983 41.2414 105.983 50.4464C105.983 59.6514 113.448 67.1135 122.656 67.1135Z" fill="#16A1DC"/>
<path d="M109.969 24.9297L112.477 33.927" stroke="#16A1DC" stroke-width="1.5" stroke-miterlimit="10"/>
<path d="M98 29.2627L103.164 37.2275" stroke="#16A1DC" stroke-width="1.5" stroke-miterlimit="10"/>
<path d="M89 38.2627L95.7869 43.7201" stroke="#16A1DC" stroke-width="1.5" stroke-miterlimit="10"/>
<path d="M122.656 23.0122V32.452" stroke="#16A1DC" stroke-width="1.5" stroke-miterlimit="10"/>
<path d="M135.343 24.9297L132.688 34.3694" stroke="#16A1DC" stroke-width="1.5" stroke-miterlimit="10"/>
<path d="M147.164 29.2627L142 37.08" stroke="#16A1DC" stroke-width="1.5" stroke-miterlimit="10"/>
<path d="M156.639 38.2627L150 43.5726" stroke="#16A1DC" stroke-width="1.5" stroke-miterlimit="10"/>
<path d="M207.197 58.5592C206.902 56.0517 204.689 54.2818 202.18 54.2818H198.639H191.41H180.197C181.82 51.1843 183.148 48.0869 184.18 44.6945L184.328 44.252C185.066 41.5971 183.885 38.7947 181.377 37.7622C178.426 36.5822 175.328 38.2047 174.443 41.1546C173.41 44.842 172.082 48.8244 169.721 52.8068C168.246 55.1667 166.328 57.2317 164.262 59.0017C160.131 62.6891 157.475 67.9989 157.623 74.0463C157.918 84.5185 167.066 92.6308 177.541 92.6308H184.918H191.705H195.984C198.492 92.6308 200.853 90.8608 201 88.3534C201.295 85.551 199.082 83.0435 196.279 83.0435H195.394H198.049C200.557 83.0435 202.918 81.2736 203.066 78.7661C203.361 75.9637 201.148 73.4563 198.344 73.4563H200.262C202.771 73.4563 205.131 71.5388 205.279 69.0314C205.426 66.524 203.656 64.459 201.443 64.0165H202.623C205.131 63.869 207.492 61.5091 207.197 58.5592Z" fill="white" stroke="#252B2D" stroke-width="1.5" stroke-miterlimit="10" stroke-linecap="round" stroke-linejoin="round"/>
<path d="M201.146 63.8691H191.113" stroke="#252B2D" stroke-width="1.5" stroke-miterlimit="10" stroke-linecap="round" stroke-linejoin="round"/>
<path d="M199.08 73.3086H191.113" stroke="#252B2D" stroke-width="1.5" stroke-miterlimit="10" stroke-linecap="round" stroke-linejoin="round"/>
<path d="M196.13 83.0435H191.113" stroke="#252B2D" stroke-width="1.5" stroke-miterlimit="10" stroke-linecap="round" stroke-linejoin="round"/>
<path d="M156.739 91.8931H145.526C143.313 91.8931 141.395 89.9756 141.395 87.7632V61.3613C141.395 59.1489 143.313 57.2314 145.526 57.2314H156.739C158.952 57.2314 160.87 59.1489 160.87 61.3613V87.7632C160.87 89.9756 159.099 91.8931 156.739 91.8931Z" fill="white" stroke="#252B2D" stroke-width="1.3928" stroke-miterlimit="10" stroke-linecap="round" stroke-linejoin="round"/>
<path d="M151.131 87.3208C153.413 87.3208 155.262 85.4718 155.262 83.1909C155.262 80.9101 153.413 79.061 151.131 79.061C148.85 79.061 147 80.9101 147 83.1909C147 85.4718 148.85 87.3208 151.131 87.3208Z" fill="white" stroke="#252B2D" stroke-width="1.3928" stroke-miterlimit="10" stroke-linecap="round" stroke-linejoin="round"/>
</svg>
