<svg width="579" height="622" viewBox="0 0 579 622" fill="none" xmlns="http://www.w3.org/2000/svg">
<g clip-path="url(#clip0)">
<path d="M259.412 204.472C255.262 207.795 245.854 209.179 240.597 207.795" stroke="#16A1DC" stroke-width="1.5" stroke-miterlimit="10" stroke-linecap="round" stroke-linejoin="round"/>
<path d="M166.023 102.998C166.023 102.998 198.121 99.952 210.157 111.165C222.194 122.379 237.551 148.267 239.073 158.096C239.073 158.096 248.758 89.5691 252.908 68.2498L279.195 70.4648C279.195 70.4648 284.729 98.2907 285.144 128.885" stroke="#16A1DC" stroke-width="1.5" stroke-miterlimit="10" stroke-linecap="round" stroke-linejoin="round"/>
<path d="M112.895 64.0967C112.757 64.0967 112.895 100.367 112.895 100.367" stroke="#252B2D" stroke-width="1.5" stroke-miterlimit="10" stroke-linecap="round" stroke-linejoin="round"/>
<path d="M137.8 60.3587C138.869 60.3587 139.737 59.5529 139.737 58.559C139.737 57.565 138.869 56.7593 137.8 56.7593C136.73 56.7593 135.863 57.565 135.863 58.559C135.863 59.5529 136.73 60.3587 137.8 60.3587Z" fill="#252B2D"/>
<path d="M168.1 60.3587C169.169 60.3587 170.036 59.5529 170.036 58.559C170.036 57.565 169.169 56.7593 168.1 56.7593C167.03 56.7593 166.163 57.565 166.163 58.559C166.163 59.5529 167.03 60.3587 168.1 60.3587Z" fill="#252B2D"/>
<path d="M140.431 59.6665C140.431 61.4662 139.048 62.8506 137.249 62.8506C136.557 62.8506 135.866 62.5737 135.451 62.2968" stroke="#252B2D" stroke-width="1.5" stroke-miterlimit="10" stroke-linecap="round" stroke-linejoin="round"/>
<path d="M165.608 59.6665C165.608 61.4662 166.991 62.8506 168.79 62.8506C169.482 62.8506 170.173 62.5737 170.589 62.2968" stroke="#252B2D" stroke-width="1.5" stroke-miterlimit="10" stroke-linecap="round" stroke-linejoin="round"/>
<path d="M134.616 53.8521C135.031 53.0215 136 52.4678 136.968 52.4678C137.937 52.4678 138.628 52.8831 139.182 53.5753" stroke="#252B2D" stroke-width="1.5" stroke-miterlimit="10" stroke-linecap="round" stroke-linejoin="round"/>
<path d="M170.865 53.8521C170.45 53.0215 169.482 52.4678 168.513 52.4678C167.545 52.4678 166.853 52.8831 166.3 53.5753" stroke="#252B2D" stroke-width="1.5" stroke-miterlimit="10" stroke-linecap="round" stroke-linejoin="round"/>
<path d="M148.729 72.6797C148.729 72.6797 154.401 74.8947 161.318 71.8491" stroke="#252B2D" stroke-width="1.5" stroke-miterlimit="10" stroke-linecap="round" stroke-linejoin="round"/>
<path d="M149.7 70.603C149.7 70.603 148.178 71.2952 147.21 74.6177" stroke="#252B2D" stroke-width="1.5" stroke-miterlimit="10" stroke-linecap="round" stroke-linejoin="round"/>
<path d="M105.704 29.6257C110.27 24.9188 117.326 20.0735 127.979 18.5507C176.263 11.2135 175.71 49.5607 175.71 49.5607C178.892 63.9582 183.734 87.3541 158.693 91.2304C152.19 91.9226 141.399 90.9535 137.248 89.4307" stroke="#252B2D" stroke-width="1.5" stroke-miterlimit="10" stroke-linecap="round" stroke-linejoin="round"/>
<path d="M280.718 83.2011L250.695 80.5708" stroke="#16A1DC" stroke-width="1.5" stroke-miterlimit="10" stroke-linecap="round" stroke-linejoin="round"/>
<path d="M255.537 68.2497C255.537 68.2497 253.185 58.0053 242.809 49.9759C241.979 49.2837 241.979 48.1762 242.947 47.7609C244.469 47.0687 247.375 47.484 251.94 50.1143C251.94 50.1143 254.43 51.3603 253.462 48.4531C252.355 45.269 252.77 45.8228 247.375 33.3634C247.098 32.6712 247.375 31.979 248.066 31.7021C248.62 31.4253 249.311 31.5637 249.726 32.1174C251.11 33.7787 254.707 37.5165 257.474 41.8081L255.399 25.334C255.261 24.5034 255.952 23.8112 256.782 23.5343C257.613 23.3959 258.581 23.8112 258.858 24.6418L263.562 40.1468L264.945 24.3649C264.945 23.8112 265.499 23.2574 266.052 23.119C266.744 22.9806 267.435 23.3959 267.712 24.2265C268.404 27.1337 269.926 34.7478 269.372 39.7315L272.831 31.8406C273.246 30.8715 274.63 30.5946 275.321 31.4253C275.598 31.7021 275.737 32.1174 275.737 32.5328C275.46 36.2706 275.321 48.3146 275.46 62.02C275.46 62.02 275.46 67.9728 275.737 70.3262" stroke="#252B2D" stroke-width="1.5" stroke-miterlimit="10" stroke-linecap="round" stroke-linejoin="round"/>
<path d="M263.008 54.2676C263.008 54.2676 262.04 51.6373 258.442 50.8066" stroke="#252B2D" stroke-width="1.5" stroke-miterlimit="10" stroke-linecap="round" stroke-linejoin="round"/>
<path d="M114.419 52.4678C110.545 52.1909 107.917 54.6828 107.778 57.8669C107.64 61.0509 110.13 63.6813 113.312 63.8197" stroke="#252B2D" stroke-width="1.5" stroke-miterlimit="10" stroke-linecap="round" stroke-linejoin="round"/>
<path d="M113.173 56.344C112.066 56.344 110.959 57.1746 110.959 58.2821C110.959 59.3896 111.79 60.3587 113.035 60.4971" stroke="#252B2D" stroke-width="1.5" stroke-miterlimit="10" stroke-linecap="round" stroke-linejoin="round"/>
<path d="M114.419 52.4679C114.419 52.4679 120.23 54.2676 120.921 49.5607C121.613 44.8538 122.028 33.7788 122.028 33.7788C122.028 33.7788 121.613 30.041 116.909 29.6257C114.004 29.3488 108.331 29.4872 104.458 29.4872C100.999 29.4872 97.8167 31.2869 96.1565 34.3326C93.8045 38.3473 91.7292 45.4076 94.2195 56.2057C97.2633 69.4957 103.627 76.2792 112.205 78.4942" stroke="#252B2D" stroke-width="1.5" stroke-miterlimit="10" stroke-linecap="round" stroke-linejoin="round"/>
<path d="M147.346 68.2497H132.127C129.637 68.2497 127.562 66.1732 127.562 63.6813V50.5297C127.562 49.1454 128.668 47.8994 130.19 47.8994H149.421C150.805 47.8994 152.05 49.0069 152.05 50.5297V63.6813C151.911 66.3116 149.836 68.2497 147.346 68.2497Z" stroke="#252B2D" stroke-width="1.5" stroke-miterlimit="10" stroke-linecap="round" stroke-linejoin="round"/>
<path d="M180.687 68.2497H165.468C162.978 68.2497 160.903 66.1732 160.903 63.6813V50.5297C160.903 49.1454 162.01 47.8994 163.531 47.8994H182.762C184.146 47.8994 185.391 49.0069 185.391 50.5297V63.6813C185.391 66.3116 183.316 68.2497 180.687 68.2497Z" stroke="#252B2D" stroke-width="1.5" stroke-miterlimit="10" stroke-linecap="round" stroke-linejoin="round"/>
<path d="M158.692 65.8962C160.906 65.8962 162.705 64.0965 162.705 62.0199C162.705 59.8049 160.768 60.0818 158.692 56.7593" fill="white"/>
<path d="M158.692 65.8962C160.906 65.8962 162.705 64.0965 162.705 62.0199C162.705 59.8049 160.768 60.0818 158.692 56.7593" stroke="#252B2D" stroke-width="1.5" stroke-miterlimit="10" stroke-linecap="round" stroke-linejoin="round"/>
<path d="M135.308 21.7347L141.949 13.8438" stroke="#252B2D" stroke-width="1.5" stroke-miterlimit="10" stroke-linecap="round" stroke-linejoin="round"/>
<path d="M141.951 23.5344L148.73 13.8438" stroke="#252B2D" stroke-width="1.5" stroke-miterlimit="10" stroke-linecap="round" stroke-linejoin="round"/>
<path d="M148.452 23.5345L156.476 15.782" stroke="#252B2D" stroke-width="1.5" stroke-miterlimit="10" stroke-linecap="round" stroke-linejoin="round"/>
<path d="M128.53 48.0378H112.066" stroke="#252B2D" stroke-width="1.5" stroke-miterlimit="10" stroke-linecap="round" stroke-linejoin="round"/>
<path d="M149.282 47.8994H162.702" stroke="#252B2D" stroke-width="1.5" stroke-miterlimit="10" stroke-linecap="round" stroke-linejoin="round"/>
<path d="M162.702 91.092V96.9064" stroke="#252B2D" stroke-width="1.5" stroke-miterlimit="10" stroke-linecap="round" stroke-linejoin="round"/>
<path d="M114.833 199.35C115.248 199.35 123.411 196.028 125.348 196.72C125.348 196.72 120.367 178.446 121.751 166.402L111.651 170.971L114.833 199.35Z" fill="#16A1DC"/>
<path d="M65.0259 260.54C65.0259 260.54 42.1979 237.559 41.6445 207.795L68.623 191.736L71.39 193.259C71.39 193.259 75.6789 214.994 76.2323 217.347C76.9241 219.7 67.2395 239.082 67.2395 239.082C67.2395 239.082 66.9628 242.543 68.623 243.512C70.1449 244.619 71.1133 245.311 70.6983 248.08C70.2832 250.987 65.0259 260.54 65.0259 260.54Z" fill="white"/>
<path d="M66.9632 224.407C66.4098 224.961 59.9073 218.455 57.832 203.503L73.8808 193.813L77.6163 214.025C77.4779 214.025 68.7618 222.469 66.9632 224.407Z" fill="#16A1DC"/>
<path d="M129.36 156.711L127.562 156.85C127.562 156.85 127.562 190.49 131.712 201.288C131.989 202.119 135.032 205.857 137.8 206.549C142.088 208.626 145.132 209.595 145.132 209.595L133.787 158.096C133.372 156.711 130.605 156.019 129.36 156.711Z" fill="#EBF7FE"/>
<path d="M108.191 109.504C108.191 109.504 74.0178 115.872 71.8042 155.05C70.8357 172.632 73.4644 196.72 77.8916 215.27" fill="white"/>
<path d="M108.191 109.504C108.191 109.504 74.0178 115.872 71.8042 155.05C70.8357 172.632 73.4644 196.72 77.8916 215.27" stroke="#16A1DC" stroke-width="1.5" stroke-miterlimit="10" stroke-linecap="round" stroke-linejoin="round"/>
<path d="M108.19 98.7061V109.504L139.181 131.793L146.929 110.196L108.19 98.7061Z" stroke="#16A1DC" stroke-width="1.5" stroke-miterlimit="10" stroke-linecap="round" stroke-linejoin="round"/>
<path d="M147.897 109.919L164.915 95.3835L166.021 102.998L165.33 124.732L147.897 109.919Z" stroke="#16A1DC" stroke-width="1.5" stroke-miterlimit="10" stroke-linecap="round" stroke-linejoin="round"/>
<path d="M141.95 124.317L147.899 132.762L158.552 131.239L161.181 121.133" stroke="#252B2D" stroke-width="1.5" stroke-miterlimit="10" stroke-linecap="round" stroke-linejoin="round"/>
<path d="M158.965 131.793L179.718 190.49C180.133 192.152 180.133 193.951 179.58 195.612L172.662 216.378C172.385 217.624 171.14 218.455 169.895 218.455C168.927 218.455 167.958 217.901 167.405 217.209L153.57 200.319C152.463 198.658 151.909 196.72 151.909 194.782L148.174 133.316" stroke="#252B2D" stroke-width="1.5" stroke-miterlimit="10" stroke-linecap="round" stroke-linejoin="round"/>
<path d="M114.832 199.35L111.234 166.54L107.914 158.373" fill="white"/>
<path d="M114.832 199.35L111.234 166.54L107.914 158.373" stroke="#16A1DC" stroke-width="1.5" stroke-miterlimit="10" stroke-linecap="round" stroke-linejoin="round"/>
<path d="M70.699 190.49L41.6452 207.656C41.6452 207.656 39.1549 233.544 63.3664 258.186" stroke="#252B2D" stroke-width="1.5" stroke-miterlimit="10" stroke-linecap="round" stroke-linejoin="round"/>
<path d="M130.882 198.796C125.071 177.892 127.561 156.85 127.561 156.85L112.619 165.71" stroke="#252B2D" stroke-width="1.5" stroke-miterlimit="10" stroke-linecap="round" stroke-linejoin="round"/>
<path d="M127.562 156.85C127.562 156.85 132.542 152.697 134.479 160.172C136.139 166.125 141.12 188.275 143.334 205.164" stroke="#252B2D" stroke-width="1.5" stroke-miterlimit="10" stroke-linecap="round" stroke-linejoin="round"/>
<path d="M130.191 158.373C130.191 158.373 136.555 184.676 139.322 202.534" stroke="#252B2D" stroke-width="1.5" stroke-miterlimit="10" stroke-linecap="round" stroke-linejoin="round"/>
<path d="M129.499 165.71C129.499 165.71 130.329 184.26 134.895 199.35" stroke="#252B2D" stroke-width="1.5" stroke-miterlimit="10" stroke-linecap="round" stroke-linejoin="round"/>
<path d="M46.9023 208.625C46.9023 208.625 50.7762 228.699 57.6937 237.282" stroke="#252B2D" stroke-width="1.5" stroke-miterlimit="10" stroke-linecap="round" stroke-linejoin="round"/>
<path d="M52.3003 206.134C52.3003 206.134 55.0673 222.884 59.9096 228.56" stroke="#252B2D" stroke-width="1.5" stroke-miterlimit="10" stroke-linecap="round" stroke-linejoin="round"/>
<path d="M68.6236 196.858L57.6938 203.503C57.6938 203.503 59.2157 215.963 65.0265 222.331" stroke="#252B2D" stroke-width="1.5" stroke-miterlimit="10" stroke-linecap="round" stroke-linejoin="round"/>
<path d="M112.896 170.417L121.75 165.71C121.75 165.71 120.228 181.768 125.07 195.197" stroke="#252B2D" stroke-width="1.5" stroke-miterlimit="10" stroke-linecap="round" stroke-linejoin="round"/>
<path d="M167.13 250.018C167.13 250.018 175.431 251.818 195.216 248.08L167.13 250.018Z" fill="white"/>
<path d="M167.13 250.018C167.13 250.018 175.431 251.818 195.216 248.08" stroke="#16A1DC" stroke-width="1.5" stroke-miterlimit="10" stroke-linecap="round" stroke-linejoin="round"/>
<path d="M165.332 259.847C165.332 259.847 179.997 262.616 193.278 258.463L165.332 259.847Z" fill="white"/>
<path d="M165.332 259.847C165.332 259.847 179.997 262.616 193.278 258.463" stroke="#16A1DC" stroke-width="1.5" stroke-miterlimit="10" stroke-linecap="round" stroke-linejoin="round"/>
<path d="M112.343 162.526L114.695 155.188" stroke="#16A1DC" stroke-width="1.5" stroke-miterlimit="10" stroke-linecap="round" stroke-linejoin="round"/>
<path d="M76.3716 185.922C76.3716 185.922 78.8619 214.44 81.6289 215.132C84.396 215.824 90.2067 212.086 93.3888 209.595C96.5709 207.103 112.343 202.534 112.343 202.534L108.054 170.555L76.3716 185.922Z" fill="white"/>
<path d="M274.628 78.9095C275.927 78.9095 276.98 77.8558 276.98 76.5561C276.98 75.2563 275.927 74.2026 274.628 74.2026C273.329 74.2026 272.276 75.2563 272.276 76.5561C272.276 77.8558 273.329 78.9095 274.628 78.9095Z" stroke="#16A1DC" stroke-width="1.5" stroke-miterlimit="10" stroke-linecap="round" stroke-linejoin="round"/>
<path d="M354.176 212.778L404.259 212.501C406.473 212.501 408.133 210.702 408.133 208.625V205.58L356.805 205.856" fill="#EBF7FE"/>
<path d="M354.176 212.778L404.259 212.501C406.473 212.501 408.133 210.702 408.133 208.625V205.58L356.805 205.856" stroke="#252B2D" stroke-width="1.5" stroke-miterlimit="10"/>
<path d="M331.625 213.194C331.625 213.194 327.198 218.731 317.237 217.624L331.625 213.194Z" fill="white"/>
<path d="M331.625 213.194C331.625 213.194 327.198 218.731 317.237 217.624" stroke="#252B2D" stroke-width="1.5" stroke-miterlimit="10" stroke-linecap="round" stroke-linejoin="round"/>
<path d="M346.017 128.885C344.357 129.024 343.665 127.639 343.527 125.978L343.112 120.025C342.973 118.364 344.218 116.841 345.879 116.703L396.515 113.242C398.175 113.103 399.697 114.349 399.836 116.01L400.251 121.963C400.389 123.625 399.836 125.009 398.175 125.147" stroke="#16A1DC" stroke-width="1.5" stroke-miterlimit="10" stroke-linecap="round" stroke-linejoin="round"/>
<path d="M351.824 119.61L352.239 126.532" stroke="#16A1DC" stroke-width="1.5" stroke-miterlimit="10" stroke-linecap="round" stroke-linejoin="round"/>
<path d="M361.926 118.918L362.341 125.84" stroke="#16A1DC" stroke-width="1.5" stroke-miterlimit="10" stroke-linecap="round" stroke-linejoin="round"/>
<path d="M371.886 118.225L372.439 125.147" stroke="#16A1DC" stroke-width="1.5" stroke-miterlimit="10" stroke-linecap="round" stroke-linejoin="round"/>
<path d="M381.986 117.533L382.401 124.455" stroke="#16A1DC" stroke-width="1.5" stroke-miterlimit="10" stroke-linecap="round" stroke-linejoin="round"/>
<path d="M392.084 116.841L392.499 123.763" stroke="#16A1DC" stroke-width="1.5" stroke-miterlimit="10" stroke-linecap="round" stroke-linejoin="round"/>
<path d="M480.492 115.595L480.354 118.364" stroke="#16A1DC" stroke-width="1.5" stroke-miterlimit="10" stroke-linecap="round" stroke-linejoin="round"/>
<path d="M475.373 115.18V117.948" stroke="#16A1DC" stroke-width="1.5" stroke-miterlimit="10" stroke-linecap="round" stroke-linejoin="round"/>
<path d="M470.671 114.903V117.672" stroke="#16A1DC" stroke-width="1.5" stroke-miterlimit="10" stroke-linecap="round" stroke-linejoin="round"/>
<path d="M465.964 114.626V117.533" stroke="#16A1DC" stroke-width="1.5" stroke-miterlimit="10" stroke-linecap="round" stroke-linejoin="round"/>
<path d="M356.252 289.473L356.667 296.533" stroke="#16A1DC" stroke-width="1.5" stroke-miterlimit="10" stroke-linecap="round" stroke-linejoin="round"/>
<path d="M366.352 289.888L366.905 296.948" stroke="#16A1DC" stroke-width="1.5" stroke-miterlimit="10" stroke-linecap="round" stroke-linejoin="round"/>
<path d="M376.177 291.549L376.453 296.948" stroke="#16A1DC" stroke-width="1.5" stroke-miterlimit="10" stroke-linecap="round" stroke-linejoin="round"/>
<path d="M416.436 283.243L416.851 288.78" stroke="#16A1DC" stroke-width="1.5" stroke-miterlimit="10" stroke-linecap="round" stroke-linejoin="round"/>
<path d="M346.014 288.088L346.568 295.01" stroke="#16A1DC" stroke-width="1.5" stroke-miterlimit="10" stroke-linecap="round" stroke-linejoin="round"/>
<path d="M267.708 213.194L352.932 212.778C355.146 212.778 356.806 210.979 356.806 208.764L356.391 137.33C356.391 135.115 354.592 133.454 352.379 133.454L267.293 133.869C265.079 133.869 263.419 135.669 263.419 137.884L263.834 209.456C263.834 211.532 265.633 213.332 267.708 213.194Z" fill="#EBF7FE" stroke="#252B2D" stroke-width="1.5" stroke-miterlimit="10" stroke-linecap="round" stroke-linejoin="round"/>
<path d="M400.387 123.486C400.387 123.486 438.018 110.611 447.703 141.344C447.703 141.344 449.64 148.128 449.917 151.45" stroke="#16A1DC" stroke-width="1.5" stroke-miterlimit="10" stroke-linecap="round" stroke-linejoin="round"/>
<path d="M343.523 127.362C343.523 127.362 323.185 120.856 312.809 134.007" stroke="#16A1DC" stroke-width="1.5" stroke-miterlimit="10" stroke-linecap="round" stroke-linejoin="round"/>
<path d="M445.349 186.337C445.349 186.337 447.563 141.898 461.121 119.61" stroke="#16A1DC" stroke-width="1.5" stroke-miterlimit="10" stroke-linecap="round" stroke-linejoin="round"/>
<path d="M446.32 243.927C444.106 242.681 443.414 242.127 441.616 240.881" stroke="#252B2D" stroke-width="1.5" stroke-miterlimit="10" stroke-linecap="round" stroke-linejoin="round"/>
<path d="M483.952 121.686C483.952 121.686 518.539 211.255 480.77 240.327" stroke="#16A1DC" stroke-width="1.5" stroke-miterlimit="10" stroke-linecap="round" stroke-linejoin="round"/>
<path d="M462.229 119.61L483.397 120.717C484.504 120.717 485.611 119.887 485.611 118.779L485.749 115.595C485.749 114.488 484.919 113.38 483.812 113.38L462.644 112.273C461.538 112.273 460.431 113.103 460.431 114.211L460.293 117.395C460.154 118.641 461.123 119.61 462.229 119.61Z" stroke="#16A1DC" stroke-width="1.5" stroke-miterlimit="10" stroke-linecap="round" stroke-linejoin="round"/>
<path d="M418.513 127.085C422.248 128.885 425.845 132.9 426.122 137.053" stroke="#16A1DC" stroke-width="1.5" stroke-miterlimit="10" stroke-linecap="round" stroke-linejoin="round"/>
<path d="M425.566 127.085C425.566 127.085 430.962 130.546 430.685 135.945" stroke="#16A1DC" stroke-width="1.5" stroke-miterlimit="10" stroke-linecap="round" stroke-linejoin="round"/>
<path d="M417.683 131.1C417.683 131.1 424.877 128.331 432.625 130.962" stroke="#16A1DC" stroke-width="1.5" stroke-miterlimit="10" stroke-linecap="round" stroke-linejoin="round"/>
<path d="M419.896 134.838C419.896 134.838 427.091 132.069 434.838 134.7" stroke="#16A1DC" stroke-width="1.5" stroke-miterlimit="10" stroke-linecap="round" stroke-linejoin="round"/>
<path d="M484.642 222.469C484.919 218.316 483.259 213.194 479.8 210.979" stroke="#16A1DC" stroke-width="1.5" stroke-miterlimit="10" stroke-linecap="round" stroke-linejoin="round"/>
<path d="M488.102 216.378C488.102 216.378 487.826 209.871 482.983 207.518" stroke="#16A1DC" stroke-width="1.5" stroke-miterlimit="10" stroke-linecap="round" stroke-linejoin="round"/>
<path d="M480.77 221.085C480.77 221.085 486.719 216.239 488.379 208.21" stroke="#16A1DC" stroke-width="1.5" stroke-miterlimit="10" stroke-linecap="round" stroke-linejoin="round"/>
<path d="M478.694 217.347C478.694 217.347 484.643 212.502 486.304 204.472" stroke="#16A1DC" stroke-width="1.5" stroke-miterlimit="10" stroke-linecap="round" stroke-linejoin="round"/>
<path d="M295.238 246.419C288.735 232.575 292.056 213.055 292.056 213.055" stroke="#16A1DC" stroke-width="1.5" stroke-miterlimit="10" stroke-linecap="round" stroke-linejoin="round"/>
<path d="M338.405 212.917C338.405 212.917 344.354 240.327 333.286 253.341" stroke="#16A1DC" stroke-width="1.5" stroke-miterlimit="10" stroke-linecap="round" stroke-linejoin="round"/>
<path d="M377.559 300.548C375.069 300.686 372.44 300.825 369.811 300.825C359.158 301.101 350.027 300.132 342.694 298.471" stroke="#16A1DC" stroke-width="1.5" stroke-miterlimit="10" stroke-linecap="round" stroke-linejoin="round"/>
<path d="M441.062 226.068C441.062 226.068 442.307 234.651 440.785 246.419" stroke="#16A1DC" stroke-width="1.5" stroke-miterlimit="10" stroke-linecap="round" stroke-linejoin="round"/>
<path d="M373.963 286.15C366.354 286.427 358.33 286.012 350.305 284.766" stroke="#16A1DC" stroke-width="1.5" stroke-miterlimit="10" stroke-linecap="round" stroke-linejoin="round"/>
<path d="M422.522 277.29C419.893 278.121 416.573 279.228 412.699 280.197" stroke="#16A1DC" stroke-width="1.5" stroke-miterlimit="10" stroke-linecap="round" stroke-linejoin="round"/>
<path d="M308.108 166.955C308.108 165.017 308.662 163.218 309.63 161.695C309.077 161.556 308.385 161.556 307.693 161.556C302.713 161.556 298.701 165.71 298.839 170.693C298.839 175.677 302.989 179.692 307.97 179.553C311.014 179.553 313.643 178.03 315.303 175.677C311.291 174.846 308.108 171.247 308.108 166.955Z" fill="white" stroke="#252B2D" stroke-width="1.5" stroke-miterlimit="10" stroke-linecap="round" stroke-linejoin="round"/>
<path d="M296.623 214.578C296.346 213.471 295.239 212.778 294.133 212.778H293.026C291.781 212.778 290.674 214.163 290.674 215.547C290.674 216.931 291.781 218.039 292.887 217.762L295.101 217.07C295.931 216.931 296.623 215.962 296.623 214.855C296.761 214.716 296.761 214.578 296.623 214.578Z" fill="white" stroke="#252B2D" stroke-width="1.5" stroke-miterlimit="10" stroke-linecap="round" stroke-linejoin="round"/>
<path d="M303.953 208.487C304.23 207.379 305.199 206.549 306.305 206.687C307.274 206.825 308.104 207.518 308.242 208.625L308.934 215.409C309.072 217.07 307.827 218.454 306.167 218.593C304.368 218.731 302.985 217.208 303.123 215.409L303.953 208.487Z" fill="white" stroke="#252B2D" stroke-width="1.5" stroke-miterlimit="10" stroke-linecap="round" stroke-linejoin="round"/>
<path d="M309.626 208.625V215.962C309.626 217.485 311.009 218.731 312.531 218.454C313.915 218.316 315.022 216.931 314.745 215.547L313.5 208.348C313.361 207.379 312.393 206.687 311.286 206.826C310.318 206.964 309.626 207.656 309.626 208.625Z" fill="white" stroke="#252B2D" stroke-width="1.5" stroke-miterlimit="10" stroke-linecap="round" stroke-linejoin="round"/>
<path d="M297.59 208.487V215.824C297.59 217.347 298.973 218.593 300.495 218.316C301.879 218.177 302.986 216.793 302.709 215.409L301.464 208.21C301.325 207.241 300.357 206.549 299.25 206.687C298.282 206.826 297.59 207.518 297.59 208.487Z" fill="white" stroke="#252B2D" stroke-width="1.5" stroke-miterlimit="10" stroke-linecap="round" stroke-linejoin="round"/>
<path d="M317.238 217.624C316.131 217.347 315.163 216.931 315.024 215.685L313.918 208.071C313.779 207.102 314.471 206.272 315.301 206.133C316.131 205.995 316.961 206.549 317.238 207.379L319.175 214.578" fill="white"/>
<path d="M317.238 217.624C316.131 217.347 315.163 216.931 315.024 215.685L313.918 208.071C313.779 207.102 314.471 206.272 315.301 206.133C316.131 205.995 316.961 206.549 317.238 207.379L319.175 214.578" stroke="#252B2D" stroke-width="1.5" stroke-miterlimit="10" stroke-linecap="round" stroke-linejoin="round"/>
<path d="M481.321 113.242C481.183 110.75 481.321 105.904 481.321 105.904C482.566 99.2595 488.931 78.0785 489.899 74.3407C490.037 73.9254 489.899 73.5101 489.622 73.0948C488.931 72.1257 487.685 72.2642 486.994 73.0948L480.768 84.0314C482.151 79.0476 483.397 67.6957 483.258 64.5117C483.258 63.8195 482.566 63.1273 481.875 63.1273C481.183 63.1273 480.768 63.5426 480.491 64.0963L475.511 81.6779L474.265 63.4042C474.127 62.5735 473.435 61.8813 472.467 61.8813C471.637 61.8813 470.945 62.5735 470.807 63.4042L469.977 80.432C468.04 75.4482 465.273 68.111 464.304 66.3114C464.027 65.7576 463.336 65.4807 462.644 65.6192C461.952 65.896 461.537 66.5882 461.675 67.2804C463.474 75.5867 464.304 83.0623 464.858 86.5232C465.411 89.7073 463.059 87.9076 463.059 87.9076C458.908 84.5851 456.141 83.616 454.62 84.0314C453.651 84.3082 453.236 85.6926 454.066 86.2464C462.921 93.8604 464.858 108.119 464.858 108.119L464.719 112.134" stroke="#252B2D" stroke-width="1.5" stroke-miterlimit="10" stroke-linecap="round" stroke-linejoin="round"/>
<path d="M471.497 96.3523C471.497 96.3523 472.05 91.6455 477.308 89.0151" stroke="#252B2D" stroke-width="1.5" stroke-miterlimit="10" stroke-linecap="round" stroke-linejoin="round"/>
<path d="M391.796 5.22254L388.031 9.65137L415.958 33.4202L419.722 28.9914L391.796 5.22254Z" fill="#EBF7FE" stroke="#16A1DC" stroke-width="1.5" stroke-miterlimit="10" stroke-linecap="round" stroke-linejoin="round"/>
<path d="M422.801 31.5637L425.015 37.2396L419.066 35.9937L416.022 33.3634L419.757 28.9333L422.801 31.5637Z" fill="#EBF7FE" stroke="#252B2D" stroke-width="1.5" stroke-miterlimit="10" stroke-linecap="round" stroke-linejoin="round"/>
<path d="M417.817 31.1484L390.147 7.61401" stroke="#16A1DC" stroke-width="1.5" stroke-miterlimit="10" stroke-linecap="round" stroke-linejoin="round"/>
<path d="M425.013 37.2395L426.673 38.7623" stroke="#252B2D" stroke-width="1.5" stroke-miterlimit="10" stroke-linecap="round" stroke-linejoin="round"/>
<path d="M389.457 2.90699L385.445 7.61387C384.892 8.30606 384.892 9.41356 385.583 9.96731C386.275 10.5211 387.382 10.5211 387.935 9.82887L391.948 5.12199C392.501 4.42981 392.501 3.32231 391.809 2.76856C390.979 2.07637 390.011 2.21481 389.457 2.90699Z" fill="white" stroke="#16A1DC" stroke-width="1.5" stroke-miterlimit="10" stroke-linecap="round" stroke-linejoin="round"/>
<path d="M385.305 1.10733L383.092 3.73764C382.677 4.29139 382.677 4.98358 383.23 5.39889L385.72 7.47546L389.456 3.04546L386.966 0.968892C386.412 0.553579 385.72 0.553579 385.305 1.10733Z" fill="white" stroke="#16A1DC" stroke-width="1.5" stroke-miterlimit="10" stroke-linecap="round" stroke-linejoin="round"/>
<path d="M389.039 17.7199C389.039 17.7199 393.328 5.26051 404.673 7.47551C416.156 9.69052 434.142 28.3796 419.476 47.2071" fill="white"/>
<path d="M389.039 17.7199C389.039 17.7199 393.328 5.26051 404.673 7.47551C416.156 9.69052 434.142 28.3796 419.476 47.2071" stroke="#252B2D" stroke-width="1.5" stroke-miterlimit="10" stroke-linecap="round" stroke-linejoin="round"/>
<path d="M357.774 75.5867C355.145 75.4482 353.347 73.787 353.485 71.1567C353.623 68.5264 355.975 66.3114 358.327 65.0654" stroke="#252B2D" stroke-width="1.5" stroke-miterlimit="10" stroke-linecap="round" stroke-linejoin="round"/>
<path d="M346.979 68.1111C348.049 68.1111 348.916 67.2434 348.916 66.173C348.916 65.1026 348.049 64.2349 346.979 64.2349C345.91 64.2349 345.042 65.1026 345.042 66.173C345.042 67.2434 345.91 68.1111 346.979 68.1111Z" fill="#252B2D"/>
<path d="M371.886 69.4954C372.956 69.4954 373.823 68.6277 373.823 67.5573C373.823 66.4869 372.956 65.6191 371.886 65.6191C370.816 65.6191 369.949 66.4869 369.949 67.5573C369.949 68.6277 370.816 69.4954 371.886 69.4954Z" fill="#252B2D"/>
<path d="M336.744 51.9138C332.594 66.3113 326.091 93.0298 353.9 97.7366C360.679 98.8441 366.351 98.2904 370.917 97.0445" stroke="#252B2D" stroke-width="1.5" stroke-miterlimit="10" stroke-linecap="round" stroke-linejoin="round"/>
<path d="M349.471 97.3215C349.471 96.6293 350.025 115.872 350.025 115.872" stroke="#252B2D" stroke-width="1.5" stroke-miterlimit="10" stroke-linecap="round" stroke-linejoin="round"/>
<path d="M397.619 75.4482C397.757 75.4482 395.682 113.242 395.682 113.242" stroke="#252B2D" stroke-width="1.5" stroke-miterlimit="10" stroke-linecap="round" stroke-linejoin="round"/>
<path d="M351.547 80.709C351.547 80.709 355.836 84.8621 361.923 81.2627" stroke="#252B2D" stroke-width="1.5" stroke-miterlimit="10" stroke-linecap="round" stroke-linejoin="round"/>
<path d="M341.032 76.8326C343.248 76.8326 345.044 75.0352 345.044 72.8179C345.044 70.6007 343.248 68.8032 341.032 68.8032C338.816 68.8032 337.02 70.6007 337.02 72.8179C337.02 75.0352 338.816 76.8326 341.032 76.8326Z" stroke="#252B2D" stroke-width="1.5" stroke-miterlimit="10" stroke-linecap="round" stroke-linejoin="round"/>
<path d="M397.758 75.4483C400.802 75.5867 403.43 73.2333 403.569 70.1877C403.707 67.142 401.355 64.5117 398.311 64.3733" stroke="#252B2D" stroke-width="1.5" stroke-miterlimit="10" stroke-linecap="round" stroke-linejoin="round"/>
<path d="M398.308 71.7105C399.414 71.7105 400.383 70.8799 400.383 69.7724C400.383 68.6649 399.553 67.6958 398.446 67.6958" stroke="#252B2D" stroke-width="1.5" stroke-miterlimit="10" stroke-linecap="round" stroke-linejoin="round"/>
<path d="M333.837 61.0508C330.101 60.774 327.611 63.2658 327.473 66.3115C327.334 69.3571 329.686 71.9874 332.73 72.1258" stroke="#252B2D" stroke-width="1.5" stroke-miterlimit="10" stroke-linecap="round" stroke-linejoin="round"/>
<path d="M332.733 64.7886C331.626 64.7886 330.658 65.6192 330.658 66.7267C330.658 67.8342 331.488 68.8033 332.595 68.8033" stroke="#252B2D" stroke-width="1.5" stroke-miterlimit="10" stroke-linecap="round" stroke-linejoin="round"/>
<path d="M379.082 78.7708C381.297 78.7708 383.094 76.9734 383.094 74.7561C383.094 72.5389 381.297 70.7415 379.082 70.7415C376.866 70.7415 375.069 72.5389 375.069 74.7561C375.069 76.9734 376.866 78.7708 379.082 78.7708Z" stroke="#252B2D" stroke-width="1.5" stroke-miterlimit="10" stroke-linecap="round" stroke-linejoin="round"/>
<path d="M345.185 62.2967C345.6 61.6045 346.43 61.1892 347.398 61.1892C348.228 61.1892 348.92 61.6045 349.335 62.2967" stroke="#252B2D" stroke-width="1.5" stroke-miterlimit="10" stroke-linecap="round" stroke-linejoin="round"/>
<path d="M374.099 63.8197C373.684 63.1275 372.992 62.5737 372.023 62.5737C371.193 62.5737 370.501 62.8506 370.086 63.4044" stroke="#252B2D" stroke-width="1.5" stroke-miterlimit="10" stroke-linecap="round" stroke-linejoin="round"/>
<path d="M358.603 31.2866C357.081 32.1172 346.982 51.9138 375.344 49.1451C375.344 49.1451 374.79 63.8194 390.977 64.7885C402.322 65.4807 404.121 60.6354 404.121 60.6354" stroke="#252B2D" stroke-width="1.5" stroke-miterlimit="10" stroke-linecap="round" stroke-linejoin="round"/>
<path d="M397.065 97.0445C397.065 97.0445 449.085 81.678 411.315 35.3014C373.13 -11.4905 320.142 31.0098 333.147 42.3617C332.04 42.777 321.387 44.5767 321.663 55.2364C321.663 55.2364 321.663 62.5736 327.751 64.7886" stroke="#252B2D" stroke-width="1.5" stroke-miterlimit="10" stroke-linecap="round" stroke-linejoin="round"/>
<path d="M410.969 27.8582L421.583 36.8239L425.347 32.3951L412.993 21.78" stroke="#16A1DC" stroke-width="1.5" stroke-miterlimit="10" stroke-linecap="round" stroke-linejoin="round"/>
<path d="M428.332 35.0246L430.684 40.839L424.596 39.4546L421.553 36.8243L425.288 32.3943L428.332 35.0246Z" fill="white" stroke="#16A1DC" stroke-width="1.5" stroke-miterlimit="10" stroke-linecap="round" stroke-linejoin="round"/>
<path d="M423.115 34.4428L412.487 25.3254" stroke="#16A1DC" stroke-width="1.5" stroke-miterlimit="10" stroke-linecap="round" stroke-linejoin="round"/>
<path d="M430.13 40.2852L431.791 41.808" stroke="#252B2D" stroke-width="1.5" stroke-miterlimit="10" stroke-linecap="round" stroke-linejoin="round"/>
<path d="M409.794 30.0408C409.794 30.0408 415.743 24.9186 412.146 16.3354L409.794 30.0408Z" fill="white"/>
<path d="M409.794 30.0408C409.794 30.0408 415.743 24.9186 412.146 16.3354" stroke="#252B2D" stroke-width="1.5" stroke-miterlimit="10" stroke-linecap="round" stroke-linejoin="round"/>
<path d="M400.386 110.75C400.386 110.75 403.845 103.69 397.066 97.3215" stroke="#252B2D" stroke-width="1.5" stroke-miterlimit="10" stroke-linecap="round" stroke-linejoin="round"/>
<path d="M408.273 106.735C408.273 106.735 407.443 98.8444 398.45 97.0447" stroke="#252B2D" stroke-width="1.5" stroke-miterlimit="10" stroke-linecap="round" stroke-linejoin="round"/>
<path d="M339.51 39.1778C339.51 39.1778 341.447 29.3487 351.132 31.7021" stroke="#252B2D" stroke-width="1.5" stroke-miterlimit="10" stroke-linecap="round" stroke-linejoin="round"/>
<path d="M399.001 49.9758C399.001 49.9758 395.403 43.0539 388.486 44.9921" stroke="#252B2D" stroke-width="1.5" stroke-miterlimit="10" stroke-linecap="round" stroke-linejoin="round"/>
<path d="M333.283 49.9757C333.283 49.9757 345.735 55.6517 356.803 44.1614" stroke="#252B2D" stroke-width="1.5" stroke-miterlimit="10" stroke-linecap="round" stroke-linejoin="round"/>
<path d="M121.614 289.334C117.601 290.857 112.759 291.826 107.087 291.965C66.9648 296.672 72.2222 255.556 75.2659 241.02" stroke="#252B2D" stroke-width="1.5" stroke-miterlimit="10" stroke-linecap="round" stroke-linejoin="round"/>
<path d="M97.6772 311.9L94.9102 292.242" stroke="#252B2D" stroke-width="1.5" stroke-miterlimit="10" stroke-linecap="round" stroke-linejoin="round"/>
<path d="M140.428 264.554C140.567 264.554 146.654 304.563 146.654 304.563" stroke="#252B2D" stroke-width="1.5" stroke-miterlimit="10" stroke-linecap="round" stroke-linejoin="round"/>
<path d="M95.74 266.492C93.388 266.769 91.5894 265.662 91.1744 263.308C90.8977 260.955 92.5579 258.601 94.3564 257.217" stroke="#252B2D" stroke-width="1.5" stroke-miterlimit="10" stroke-linecap="round" stroke-linejoin="round"/>
<path d="M139.735 255.556C141.119 255.417 142.364 256.248 142.502 257.632C142.641 259.017 141.811 260.263 140.427 260.401" stroke="#252B2D" stroke-width="1.5" stroke-miterlimit="10" stroke-linecap="round" stroke-linejoin="round"/>
<path d="M114.694 258.463C115.841 258.463 116.77 257.533 116.77 256.386C116.77 255.24 115.841 254.31 114.694 254.31C113.548 254.31 112.619 255.24 112.619 256.386C112.619 257.533 113.548 258.463 114.694 258.463Z" fill="#252B2D"/>
<path d="M85.3629 262.616C86.509 262.616 87.4381 261.686 87.4381 260.539C87.4381 259.393 86.509 258.463 85.3629 258.463C84.2167 258.463 83.2876 259.393 83.2876 260.539C83.2876 261.686 84.2167 262.616 85.3629 262.616Z" fill="#252B2D"/>
<path d="M117.323 250.71C116.631 249.88 115.663 249.464 114.556 249.603C113.587 249.741 112.757 250.295 112.342 251.126" stroke="#252B2D" stroke-width="1.5" stroke-miterlimit="10" stroke-linecap="round" stroke-linejoin="round"/>
<path d="M81.6279 255.833C82.043 254.864 82.8731 254.171 83.9799 254.033C84.9484 253.894 85.9168 254.31 86.4702 254.864" stroke="#252B2D" stroke-width="1.5" stroke-miterlimit="10" stroke-linecap="round" stroke-linejoin="round"/>
<path d="M94.6323 271.476C94.7707 272.999 96.1542 273.968 97.6761 273.83C99.1979 273.691 100.166 272.307 100.028 270.784" stroke="#252B2D" stroke-width="1.5" stroke-miterlimit="10" stroke-linecap="round" stroke-linejoin="round"/>
<path d="M143.471 281.305C143.471 281.305 162.425 271.891 160.488 247.942C157.721 213.332 129.636 206.964 127.699 206.41C109.437 202.811 87.3004 214.163 80.1061 222.746C74.157 229.945 70.2832 239.635 70.2832 239.635C70.2832 239.635 100.997 249.603 124.794 228.284C124.794 228.284 126.454 251.68 131.988 255.833C137.66 260.124 138.767 250.849 138.767 250.849C142.503 250.295 145.961 252.925 146.515 256.663C147.068 260.401 144.439 263.862 140.704 264.416" stroke="#252B2D" stroke-width="1.5" stroke-miterlimit="10" stroke-linecap="round" stroke-linejoin="round"/>
<path d="M194.521 431.648C194.521 431.648 187.742 433.448 179.856 432.064L179.441 465.566C179.441 465.566 178.887 480.24 195.904 478.994" fill="white"/>
<path d="M194.521 431.648C194.521 431.648 187.742 433.448 179.856 432.064L179.441 465.566C179.441 465.566 178.887 480.24 195.904 478.994" stroke="#16A1DC" stroke-width="1.5" stroke-miterlimit="10" stroke-linecap="round" stroke-linejoin="round"/>
<path d="M179.72 440.785C179.72 440.785 188.574 441.754 195.353 440.093" stroke="#16A1DC" stroke-width="1.5" stroke-miterlimit="10" stroke-linecap="round" stroke-linejoin="round"/>
<path d="M64.8858 378.212C64.8858 378.212 49.8055 380.427 39.9826 407.283C30.1596 434.002 48.1453 464.181 48.1453 464.181L25.4557 481.763C25.4557 481.763 17.293 473.733 7.88507 449.645C-18.6784 379.457 35.6937 330.866 52.9876 320.898C72.6335 309.546 91.1725 311.761 91.1725 311.761L112.34 314.669C115.937 315.222 118.981 317.576 120.226 320.898C126.59 337.926 143.884 395.101 135.307 500.729C135.168 503.221 133.231 505.159 130.741 505.436C116.629 506.958 71.5267 510.558 66.2693 494.776C48.6987 441.893 61.1503 379.457 61.1503 379.457" stroke="#16A1DC" stroke-width="1.5" stroke-miterlimit="10" stroke-linecap="round" stroke-linejoin="round"/>
<path d="M142.641 316.468C141.949 314.53 141.534 312.454 141.673 310.377C141.811 308.162 142.641 305.947 144.993 305.532C149.697 304.563 177.367 297.502 194.661 263.862C211.817 230.222 208.911 195.889 208.911 195.889C208.911 195.889 224.96 186.199 228.972 183.845C228.972 183.845 263.837 265.8 229.526 316.884C200.057 360.768 188.85 367.275 188.85 367.275C188.85 367.275 200.333 444.523 195.906 485.639C195.63 488.685 193.831 491.177 191.064 492.561C184.7 495.884 172.248 501.836 161.18 503.498C157.998 503.913 155.093 501.421 155.231 498.099C156.753 472.072 162.287 369.49 142.641 316.468Z" stroke="#16A1DC" stroke-width="1.5" stroke-miterlimit="10" stroke-linecap="round" stroke-linejoin="round"/>
<path d="M0.968262 420.297C0.968262 420.297 29.607 398.285 14.25 362.153" stroke="#16A1DC" stroke-width="1.5" stroke-miterlimit="10" stroke-linecap="round" stroke-linejoin="round"/>
<path d="M225.233 322.006C223.02 320.76 210.015 278.537 244.464 258.878" stroke="#16A1DC" stroke-width="1.5" stroke-miterlimit="10" stroke-linecap="round" stroke-linejoin="round"/>
<path d="M65.8551 443.416C65.8551 443.416 85.2243 445.908 102.38 443.554C102.38 443.554 104.87 467.919 102.518 478.579C101.135 484.809 96.8458 493.807 87.438 494.499C78.0301 495.191 69.729 485.501 67.7921 475.256C64.8867 459.475 65.8551 443.416 65.8551 443.416Z" fill="white" stroke="#16A1DC" stroke-width="1.5" stroke-miterlimit="10" stroke-linecap="round" stroke-linejoin="round"/>
<path d="M65.7153 450.615C65.7153 450.615 85.0845 456.706 103.07 452.414" stroke="#16A1DC" stroke-width="1.5" stroke-miterlimit="10" stroke-linecap="round" stroke-linejoin="round"/>
<path d="M117.873 343.049C119.63 343.049 121.055 341.623 121.055 339.864C121.055 338.106 119.63 336.68 117.873 336.68C116.116 336.68 114.691 338.106 114.691 339.864C114.691 341.623 116.116 343.049 117.873 343.049Z" fill="white" stroke="#16A1DC" stroke-width="1.5" stroke-miterlimit="10" stroke-linecap="round" stroke-linejoin="round"/>
<path d="M121.749 360.63C123.506 360.63 124.931 359.205 124.931 357.446C124.931 355.688 123.506 354.262 121.749 354.262C119.992 354.262 118.567 355.688 118.567 357.446C118.567 359.205 119.992 360.63 121.749 360.63Z" fill="white" stroke="#16A1DC" stroke-width="1.5" stroke-miterlimit="10" stroke-linecap="round" stroke-linejoin="round"/>
<path d="M124.654 377.935C126.412 377.935 127.836 376.509 127.836 374.751C127.836 372.992 126.412 371.567 124.654 371.567C122.897 371.567 121.472 372.992 121.472 374.751C121.472 376.509 122.897 377.935 124.654 377.935Z" fill="white" stroke="#16A1DC" stroke-width="1.5" stroke-miterlimit="10" stroke-linecap="round" stroke-linejoin="round"/>
<path d="M126.454 395.378C128.211 395.378 129.636 393.952 129.636 392.194C129.636 390.435 128.211 389.01 126.454 389.01C124.696 389.01 123.271 390.435 123.271 392.194C123.271 393.952 124.696 395.378 126.454 395.378Z" fill="white" stroke="#16A1DC" stroke-width="1.5" stroke-miterlimit="10" stroke-linecap="round" stroke-linejoin="round"/>
<path d="M128.529 412.683C130.287 412.683 131.711 411.257 131.711 409.498C131.711 407.74 130.287 406.314 128.529 406.314C126.772 406.314 125.347 407.74 125.347 409.498C125.347 411.257 126.772 412.683 128.529 412.683Z" fill="white" stroke="#16A1DC" stroke-width="1.5" stroke-miterlimit="10" stroke-linecap="round" stroke-linejoin="round"/>
<path d="M130.052 429.987C131.809 429.987 133.234 428.562 133.234 426.803C133.234 425.045 131.809 423.619 130.052 423.619C128.294 423.619 126.87 425.045 126.87 426.803C126.87 428.562 128.294 429.987 130.052 429.987Z" fill="white" stroke="#16A1DC" stroke-width="1.5" stroke-miterlimit="10" stroke-linecap="round" stroke-linejoin="round"/>
<path d="M130.464 446.738C132.221 446.738 133.646 445.313 133.646 443.554C133.646 441.796 132.221 440.37 130.464 440.37C128.706 440.37 127.282 441.796 127.282 443.554C127.282 445.313 128.706 446.738 130.464 446.738Z" fill="white" stroke="#16A1DC" stroke-width="1.5" stroke-miterlimit="10" stroke-linecap="round" stroke-linejoin="round"/>
<path d="M129.36 463.489C131.117 463.489 132.542 462.063 132.542 460.305C132.542 458.546 131.117 457.121 129.36 457.121C127.602 457.121 126.178 458.546 126.178 460.305C126.178 462.063 127.602 463.489 129.36 463.489Z" fill="white" stroke="#16A1DC" stroke-width="1.5" stroke-miterlimit="10" stroke-linecap="round" stroke-linejoin="round"/>
<path d="M128.252 480.102C130.01 480.102 131.434 478.676 131.434 476.918C131.434 475.159 130.01 473.734 128.252 473.734C126.495 473.734 125.07 475.159 125.07 476.918C125.07 478.676 126.495 480.102 128.252 480.102Z" fill="white" stroke="#16A1DC" stroke-width="1.5" stroke-miterlimit="10" stroke-linecap="round" stroke-linejoin="round"/>
<path d="M125.762 496.299C127.519 496.299 128.944 494.873 128.944 493.115C128.944 491.356 127.519 489.931 125.762 489.931C124.004 489.931 122.58 491.356 122.58 493.115C122.58 494.873 124.004 496.299 125.762 496.299Z" fill="white" stroke="#16A1DC" stroke-width="1.5" stroke-miterlimit="10" stroke-linecap="round" stroke-linejoin="round"/>
<path d="M150.942 331.281L154.816 330.035" stroke="#16A1DC" stroke-width="1.5" stroke-miterlimit="10" stroke-linecap="round" stroke-linejoin="round"/>
<path d="M156.197 351.078L159.517 349.97" stroke="#16A1DC" stroke-width="1.5" stroke-miterlimit="10" stroke-linecap="round" stroke-linejoin="round"/>
<path d="M159.38 368.521L163.116 367.552" stroke="#16A1DC" stroke-width="1.5" stroke-miterlimit="10" stroke-linecap="round" stroke-linejoin="round"/>
<path d="M161.317 385.549L164.914 384.995" stroke="#16A1DC" stroke-width="1.5" stroke-miterlimit="10" stroke-linecap="round" stroke-linejoin="round"/>
<path d="M161.871 404.792L165.745 404.099" stroke="#16A1DC" stroke-width="1.5" stroke-miterlimit="10" stroke-linecap="round" stroke-linejoin="round"/>
<path d="M160.901 424.173L164.637 423.896" stroke="#16A1DC" stroke-width="1.5" stroke-miterlimit="10" stroke-linecap="round" stroke-linejoin="round"/>
<path d="M161.732 442.031H165.744" stroke="#16A1DC" stroke-width="1.5" stroke-miterlimit="10" stroke-linecap="round" stroke-linejoin="round"/>
<path d="M161.593 458.782L165.605 458.644" stroke="#16A1DC" stroke-width="1.5" stroke-miterlimit="10" stroke-linecap="round" stroke-linejoin="round"/>
<path d="M161.317 474.287L165.052 474.149" stroke="#16A1DC" stroke-width="1.5" stroke-miterlimit="10" stroke-linecap="round" stroke-linejoin="round"/>
<path d="M159.518 491.592L163.945 491.454" stroke="#16A1DC" stroke-width="1.5" stroke-miterlimit="10" stroke-linecap="round" stroke-linejoin="round"/>
<path d="M120.779 322.144C120.779 322.144 132.262 323.944 142.915 317.161" stroke="#252B2D" stroke-width="1.5" stroke-miterlimit="10" stroke-linecap="round" stroke-linejoin="round"/>
<path d="M136.691 483.147C136.691 483.147 148.175 484.116 156.199 481.763" stroke="#252B2D" stroke-width="1.5" stroke-miterlimit="10" stroke-linecap="round" stroke-linejoin="round"/>
<path d="M72.2207 621.169L72.6357 503.497" stroke="#252B2D" stroke-width="1.5" stroke-miterlimit="10" stroke-linecap="round" stroke-linejoin="round"/>
<path d="M191.063 493.945L201.855 594.451" stroke="#252B2D" stroke-width="1.5" stroke-miterlimit="10" stroke-linecap="round" stroke-linejoin="round"/>
<path d="M143.331 548.351L142.5 621.308" stroke="#252B2D" stroke-width="1.5" stroke-miterlimit="10" stroke-linecap="round" stroke-linejoin="round"/>
<path d="M139.456 551.397L151.215 541.706" stroke="#252B2D" stroke-width="1.5" stroke-miterlimit="10" stroke-linecap="round" stroke-linejoin="round"/>
<path d="M49.5284 472.626L81.3492 486.746C83.0094 487.439 83.7012 489.377 83.0094 490.9L74.4316 510.419C73.7399 512.081 71.803 512.773 70.2811 512.08L30.2976 494.499C28.6374 493.807 27.9456 491.869 28.6374 490.346L33.3413 479.825" fill="#16A1DC"/>
<path d="M49.5284 472.626L81.3492 486.746C83.0094 487.439 83.7012 489.377 83.0094 490.9L74.4316 510.419C73.7399 512.081 71.803 512.773 70.2811 512.08L30.2976 494.499C28.6374 493.807 27.9456 491.869 28.6374 490.346L33.3413 479.825" stroke="#16A1DC" stroke-width="1.5" stroke-miterlimit="10"/>
<path d="M31.6807 478.025C33.8943 480.655 33.8943 485.362 33.6176 488.269C33.2025 492.699 35.4161 498.098 37.3531 501.836C39.29 505.712 42.3337 504.743 42.3337 504.743C44.409 507.927 46.3459 505.159 46.3459 505.159C49.1129 508.758 51.0498 506.266 51.0498 506.266C52.8484 509.589 56.4455 507.097 56.5839 504.882C56.7222 502.667 54.647 498.098 54.9237 489.238C55.2004 481.209 60.8728 479.963 65.0233 481.486C69.5889 483.009 71.8025 480.101 69.4506 478.856C63.9165 475.948 58.6592 474.564 54.9237 474.01C51.7416 473.456 48.8362 471.518 47.0377 468.75L46.0692 467.365" fill="white"/>
<path d="M31.6807 478.025C33.8943 480.655 33.8943 485.362 33.6176 488.269C33.2025 492.699 35.4161 498.098 37.3531 501.836C39.29 505.712 42.3337 504.743 42.3337 504.743C44.409 507.927 46.3459 505.159 46.3459 505.159C49.1129 508.758 51.0498 506.266 51.0498 506.266C52.8484 509.589 56.4455 507.097 56.5839 504.882C56.7222 502.667 54.647 498.098 54.9237 489.238C55.2004 481.209 60.8728 479.963 65.0233 481.486C69.5889 483.009 71.8025 480.101 69.4506 478.856C63.9165 475.948 58.6592 474.564 54.9237 474.01C51.7416 473.456 48.8362 471.518 47.0377 468.75L46.0692 467.365" stroke="#252B2D" stroke-width="1.5" stroke-miterlimit="10" stroke-linecap="round" stroke-linejoin="round"/>
<path d="M50.9128 506.266C50.9128 506.266 49.9444 503.082 49.5293 500.452" stroke="#252B2D" stroke-width="1.5" stroke-miterlimit="10" stroke-linecap="round" stroke-linejoin="round"/>
<path d="M46.2081 505.159C46.2081 505.159 44.5479 501.975 44.5479 499.621" stroke="#252B2D" stroke-width="1.5" stroke-miterlimit="10" stroke-linecap="round" stroke-linejoin="round"/>
<path d="M42.1949 504.743C42.1949 504.743 40.8114 501.836 40.5347 499.621" stroke="#252B2D" stroke-width="1.5" stroke-miterlimit="10" stroke-linecap="round" stroke-linejoin="round"/>
<path d="M66.5453 496.853C67.6521 497.268 68.4822 497.96 69.1739 498.929C69.3123 498.652 69.589 498.237 69.7273 497.96C70.8342 495.191 69.3123 492.007 66.5453 491.038C63.7782 489.931 60.5961 491.453 59.6277 494.222C58.9359 495.883 59.351 497.822 60.3194 499.206C61.4263 496.991 64.1933 496.022 66.5453 496.853Z" fill="#EBF7FE" stroke="#252B2D" stroke-width="1.5" stroke-miterlimit="10" stroke-linecap="round" stroke-linejoin="round"/>
<path d="M208.22 168.202C208.22 168.202 213.201 168.479 216.245 173.739" stroke="#252B2D" stroke-width="1.5" stroke-miterlimit="10" stroke-linecap="round" stroke-linejoin="round"/>
<path d="M210.156 195.059C210.156 195.059 206.283 184.953 205.868 183.845C205.868 183.845 201.994 171.939 193.416 163.356C192.724 162.526 192.863 161.141 193.969 161.003C195.63 160.588 198.535 161.695 202.547 165.571C202.547 165.571 204.761 167.509 204.484 164.187C204.207 160.588 203.792 158.234 203.101 145.359C203.101 144.667 203.516 143.837 204.207 143.698C204.899 143.56 205.591 143.837 205.868 144.529C206.836 146.605 207.389 152.835 209.465 158.373" stroke="#252B2D" stroke-width="1.5" stroke-miterlimit="10" stroke-linecap="round" stroke-linejoin="round"/>
<path d="M210.849 165.987C211.126 167.094 212.233 167.786 213.478 167.648C214.446 167.509 215.276 166.679 215.276 165.571L215.553 158.511C215.691 156.85 214.308 155.465 212.648 155.465C210.849 155.465 209.466 157.127 209.742 158.926L210.849 165.987Z" stroke="#252B2D" stroke-width="1.5" stroke-miterlimit="10" stroke-linecap="round" stroke-linejoin="round"/>
<path d="M216.52 165.433L215.967 157.957C215.829 156.434 217.212 155.05 218.734 155.189C220.256 155.327 221.363 156.573 221.224 158.096L220.394 165.433C220.256 166.54 219.288 167.233 218.319 167.094C217.212 167.094 216.52 166.402 216.52 165.433Z" stroke="#252B2D" stroke-width="1.5" stroke-miterlimit="10" stroke-linecap="round" stroke-linejoin="round"/>
<path d="M222.47 167.648C223.3 167.786 224.13 167.094 224.268 166.263L225.79 158.511C226.067 157.403 225.237 156.296 224.13 156.019C222.885 155.742 221.64 156.573 221.501 157.957L220.81 165.848C220.81 166.817 221.501 167.648 222.47 167.648Z" stroke="#252B2D" stroke-width="1.5" stroke-miterlimit="10" stroke-linecap="round" stroke-linejoin="round"/>
<path d="M224.961 162.941C224.961 162.941 226.759 170.832 226.482 174.708C226.206 178.584 223.3 180.522 223.3 180.522L225.099 185.922" stroke="#252B2D" stroke-width="1.5" stroke-miterlimit="10" stroke-linecap="round" stroke-linejoin="round"/>
<path d="M318.348 302.348C320.423 302.348 322.221 300.686 322.221 298.471C322.221 296.256 320.285 296.533 318.348 293.349" stroke="#252B2D" stroke-width="1.5" stroke-miterlimit="10" stroke-linecap="round" stroke-linejoin="round"/>
<path d="M392.504 401.884C380.052 401.469 370.091 398.839 370.091 398.839" stroke="#16A1DC" stroke-width="1.5" stroke-miterlimit="10" stroke-linecap="round" stroke-linejoin="round"/>
<path d="M320.974 326.99V337.511C320.974 337.511 340.482 323.529 355.562 328.512C370.642 333.496 390.841 352.324 396.237 360.63C396.237 360.63 380.327 293.903 375.208 273.276L398.866 264.693C398.866 264.693 408.412 278.536 418.097 297.641" stroke="#16A1DC" stroke-width="1.5" stroke-miterlimit="10" stroke-linecap="round" stroke-linejoin="round"/>
<path d="M320.974 326.99V337.511C320.974 337.511 323.879 335.573 327.338 333.635" stroke="#252B2D" stroke-width="1.5" stroke-miterlimit="10" stroke-linecap="round" stroke-linejoin="round"/>
<path d="M274.627 300.548C274.489 300.548 274.627 343.879 274.627 343.879" stroke="#252B2D" stroke-width="1.5" stroke-miterlimit="10" stroke-linecap="round" stroke-linejoin="round"/>
<path d="M274.627 300.548C271.722 300.548 269.508 298.194 269.508 295.426C269.508 294.733 269.647 294.18 269.785 293.626" stroke="#252B2D" stroke-width="1.5" stroke-miterlimit="10" stroke-linecap="round" stroke-linejoin="round"/>
<path d="M274.213 297.087C273.106 297.087 272.276 296.256 272.276 295.149" stroke="#252B2D" stroke-width="1.5" stroke-miterlimit="10" stroke-linecap="round" stroke-linejoin="round"/>
<path d="M301.053 296.948C302.047 296.948 302.852 296.143 302.852 295.149C302.852 294.155 302.047 293.349 301.053 293.349C300.06 293.349 299.255 294.155 299.255 295.149C299.255 296.143 300.06 296.948 301.053 296.948Z" fill="#252B2D"/>
<path d="M327.341 296.948C328.334 296.948 329.139 296.143 329.139 295.149C329.139 294.155 328.334 293.349 327.341 293.349C326.347 293.349 325.542 294.155 325.542 295.149C325.542 296.143 326.347 296.948 327.341 296.948Z" fill="#252B2D"/>
<path d="M303.406 296.256C303.406 297.918 302.022 299.302 300.362 299.302C299.67 299.302 299.117 299.164 298.563 298.748" stroke="#252B2D" stroke-width="1.5" stroke-miterlimit="10" stroke-linecap="round" stroke-linejoin="round"/>
<path d="M324.988 296.256C324.988 297.918 326.371 299.302 328.032 299.302C328.723 299.302 329.277 299.164 329.83 298.748" stroke="#252B2D" stroke-width="1.5" stroke-miterlimit="10" stroke-linecap="round" stroke-linejoin="round"/>
<path d="M298.009 290.58C298.424 289.75 299.254 289.196 300.361 289.196C301.191 289.196 302.021 289.611 302.437 290.304" stroke="#252B2D" stroke-width="1.5" stroke-miterlimit="10" stroke-linecap="round" stroke-linejoin="round"/>
<path d="M329.969 290.58C329.554 289.75 328.724 289.196 327.617 289.196C326.787 289.196 325.957 289.611 325.542 290.304" stroke="#252B2D" stroke-width="1.5" stroke-miterlimit="10" stroke-linecap="round" stroke-linejoin="round"/>
<path d="M276.842 286.427C270.339 291.273 266.051 289.888 266.051 289.888C269.371 294.872 274.628 295.564 274.628 295.564C274.628 295.564 291.784 298.887 296.903 271.338C297.733 267.046 301.883 266.354 306.172 271.338C310.461 276.321 324.85 288.642 345.602 284.905C345.602 284.905 343.25 282.966 338.547 274.522C333.843 266.077 324.158 239.774 302.714 253.202C302.714 253.202 262.73 236.036 255.259 285.181C249.863 321.037 246.958 335.85 232.431 351.078C232.431 351.078 236.858 358.553 246.82 360.491" stroke="#252B2D" stroke-width="1.5" stroke-miterlimit="10" stroke-linecap="round" stroke-linejoin="round"/>
<path d="M306.724 306.639C306.724 306.639 311.566 309.823 318.76 308.024" stroke="#252B2D" stroke-width="1.5" stroke-miterlimit="10" stroke-linecap="round" stroke-linejoin="round"/>
<path d="M304.652 307.332C304.652 307.332 306.312 307.332 308.387 304.701" stroke="#252B2D" stroke-width="1.5" stroke-miterlimit="10" stroke-linecap="round" stroke-linejoin="round"/>
<path d="M334.672 286.289C337.716 300.409 342.42 323.39 318.347 327.266C312.121 327.959 301.883 326.989 297.732 325.467" stroke="#252B2D" stroke-width="1.5" stroke-miterlimit="10" stroke-linecap="round" stroke-linejoin="round"/>
<path d="M334.395 317.437C334.395 317.437 337.162 326.574 343.526 327.82" stroke="#252B2D" stroke-width="1.5" stroke-miterlimit="10" stroke-linecap="round" stroke-linejoin="round"/>
<path d="M405.37 275.491L382.819 282.966" stroke="#16A1DC" stroke-width="1.5" stroke-miterlimit="10" stroke-linecap="round" stroke-linejoin="round"/>
<path d="M381.436 278.813C382.659 278.813 383.65 277.822 383.65 276.598C383.65 275.375 382.659 274.383 381.436 274.383C380.214 274.383 379.223 275.375 379.223 276.598C379.223 277.822 380.214 278.813 381.436 278.813Z" stroke="#16A1DC" stroke-width="1.5" stroke-miterlimit="10" stroke-linecap="round" stroke-linejoin="round"/>
<path d="M260.24 349.693C260.24 349.693 308.11 374.889 328.032 333.219" stroke="#16A1DC" stroke-width="1.5" stroke-miterlimit="10" stroke-linecap="round" stroke-linejoin="round"/>
<path d="M254.016 354.4C254.016 354.4 271.725 374.197 308.942 361.322C331.631 352.185 336.473 329.62 336.473 329.62" stroke="#16A1DC" stroke-width="1.5" stroke-miterlimit="10" stroke-linecap="round" stroke-linejoin="round"/>
<path d="M377.424 272.03C377.424 272.03 374.103 257.217 362.62 250.295C361.79 249.741 361.79 248.495 362.62 248.08C364.004 247.388 366.771 247.526 371.336 249.741C371.336 249.741 373.827 250.849 372.72 248.08C371.475 245.035 371.89 245.588 365.941 233.683C365.664 233.129 365.802 232.298 366.494 231.883C367.047 231.606 367.739 231.606 368.154 232.16C369.538 233.683 373.273 237.144 376.179 241.158L373.135 225.099C372.996 224.269 373.55 223.577 374.242 223.3C375.072 223.023 375.902 223.438 376.317 224.269L381.851 239.082L382.128 223.438C382.128 222.884 382.543 222.331 383.096 222.192C383.788 222.054 384.48 222.469 384.618 223.161C385.448 226.069 387.385 233.406 387.247 238.251L390.152 230.36C390.567 229.391 391.812 229.114 392.504 229.806C392.781 230.083 393.057 230.499 393.057 230.914C393.057 234.652 393.749 246.419 394.718 259.847C394.718 259.847 394.856 263.447 395.271 265.662" stroke="#252B2D" stroke-width="1.5" stroke-miterlimit="10" stroke-linecap="round" stroke-linejoin="round"/>
<path d="M382.127 253.341C382.127 253.341 381.02 250.71 377.561 250.295" stroke="#252B2D" stroke-width="1.5" stroke-miterlimit="10" stroke-linecap="round" stroke-linejoin="round"/>
<path d="M297.889 355.931L290.533 357.237L302.811 426.48L310.167 425.174L297.889 355.931Z" fill="#EBF7FE" stroke="#252B2D" stroke-width="1.5" stroke-miterlimit="10" stroke-linecap="round" stroke-linejoin="round"/>
<path d="M351.088 346.595L297.962 356.027L310.241 425.271L363.367 415.838L351.088 346.595Z" fill="#EBF7FE" stroke="#252B2D" stroke-width="1.5" stroke-miterlimit="10" stroke-linecap="round" stroke-linejoin="round"/>
<path d="M311.658 359.069L306.99 359.648L315.635 429.44L320.303 428.861L311.658 359.069Z" fill="#16A1DC" stroke="#252B2D" stroke-width="1.5" stroke-miterlimit="10"/>
<path d="M365.151 352.443L311.604 359.083L320.249 428.875L373.796 422.235L365.151 352.443Z" fill="#16A1DC" stroke="#252B2D" stroke-width="1.5" stroke-miterlimit="10"/>
<path d="M359.029 363.006L320.722 367.757L327.07 419.001L365.376 414.251L359.029 363.006Z" fill="#EBF7FE" stroke="#252B2D" stroke-width="1.5" stroke-miterlimit="10" stroke-linecap="round" stroke-linejoin="round"/>
<path d="M332.18 402.853C332.18 402.853 341.173 390.671 338.683 377.381C338.544 376.412 339.374 375.581 340.343 375.858C341.865 376.412 343.387 378.627 344.77 383.61C344.77 383.61 345.6 386.241 346.984 383.472C348.506 380.426 348.367 381.257 353.348 368.936C353.625 368.244 354.316 367.967 355.008 368.105C355.562 368.244 355.977 368.936 355.838 369.49C355.562 371.566 355.562 376.55 354.316 381.395L364.416 368.521C364.969 367.967 365.799 367.69 366.491 368.244C367.183 368.659 367.46 369.628 367.045 370.459L359.574 384.441L371.472 374.473C371.887 374.058 372.579 374.058 373.132 374.335C373.686 374.75 373.824 375.581 373.547 376.135C371.887 378.627 367.736 384.856 363.863 388.04L371.749 384.995C372.717 384.579 373.824 385.272 373.824 386.379C373.824 386.794 373.685 387.21 373.27 387.487C370.503 389.978 362.064 398.285 352.656 407.837C352.656 407.837 348.644 412.128 347.26 413.928" fill="white"/>
<path d="M332.18 402.853C332.18 402.853 341.173 390.671 338.683 377.381C338.544 376.412 339.374 375.581 340.343 375.858C341.865 376.412 343.387 378.627 344.77 383.61C344.77 383.61 345.6 386.241 346.984 383.472C348.506 380.426 348.367 381.257 353.348 368.936C353.625 368.244 354.316 367.967 355.008 368.105C355.562 368.244 355.977 368.936 355.838 369.49C355.562 371.566 355.562 376.55 354.316 381.395L364.416 368.521C364.969 367.967 365.799 367.69 366.491 368.244C367.183 368.659 367.46 369.628 367.045 370.459L359.574 384.441L371.472 374.473C371.887 374.058 372.579 374.058 373.132 374.335C373.686 374.75 373.824 375.581 373.547 376.135C371.887 378.627 367.736 384.856 363.863 388.04L371.749 384.995C372.717 384.579 373.824 385.272 373.824 386.379C373.824 386.794 373.685 387.21 373.27 387.487C370.503 389.978 362.064 398.285 352.656 407.837C352.656 407.837 348.644 412.128 347.26 413.928" stroke="#252B2D" stroke-width="1.5" stroke-miterlimit="10" stroke-linecap="round" stroke-linejoin="round"/>
<path d="M274.628 343.879C274.628 343.879 237.411 351.493 235.198 389.979C233.261 424.588 244.606 465.427 291.23 464.735C337.854 464.043 350.306 416.559 350.306 416.559L332.735 396.208L282.237 419.881C282.237 419.881 276.565 425.28 277.395 434.002" fill="white"/>
<path d="M274.628 343.879C274.628 343.879 237.411 351.493 235.198 389.979C233.261 424.588 244.606 465.427 291.23 464.735C337.854 464.043 350.306 416.559 350.306 416.559L332.735 396.208L282.237 419.881C282.237 419.881 276.565 425.28 277.395 434.002" stroke="#16A1DC" stroke-width="1.5" stroke-miterlimit="10" stroke-linecap="round" stroke-linejoin="round"/>
<path d="M274.629 343.879C274.629 343.879 267.988 345.263 260.24 349.693L274.629 343.879Z" fill="white"/>
<path d="M274.629 343.879C274.629 343.879 267.988 345.263 260.24 349.693" stroke="#252B2D" stroke-width="1.5" stroke-miterlimit="10" stroke-linecap="round" stroke-linejoin="round"/>
<path d="M270.754 430.264C270.754 430.264 274.766 421.819 282.237 419.881" stroke="#16A1DC" stroke-width="1.5" stroke-miterlimit="10" stroke-linecap="round" stroke-linejoin="round"/>
<path d="M323.604 400.5L341.313 424.588" stroke="#16A1DC" stroke-width="1.5" stroke-miterlimit="10" stroke-linecap="round" stroke-linejoin="round"/>
<path d="M343.389 420.158C344.612 420.158 345.603 419.166 345.603 417.943C345.603 416.72 344.612 415.728 343.389 415.728C342.167 415.728 341.176 416.72 341.176 417.943C341.176 419.166 342.167 420.158 343.389 420.158Z" stroke="#16A1DC" stroke-width="1.5" stroke-miterlimit="10" stroke-linecap="round" stroke-linejoin="round"/>
<path d="M260.24 349.693C260.24 349.693 268.956 354.262 280.44 356.338" stroke="#16A1DC" stroke-width="1.5" stroke-miterlimit="10" stroke-linecap="round" stroke-linejoin="round"/>
<path d="M254.013 354.4C254.013 354.4 263.559 365.06 283.205 365.614" stroke="#16A1DC" stroke-width="1.5" stroke-miterlimit="10" stroke-linecap="round" stroke-linejoin="round"/>
<path d="M255.676 453.521L254.016 474.702C254.016 474.702 275.183 495.883 329.14 490.761C368.155 484.947 377.287 462.381 377.287 462.381C377.287 462.381 372.444 429.987 372.168 423.204" stroke="#16A1DC" stroke-width="1.5" stroke-miterlimit="10" stroke-linecap="round" stroke-linejoin="round"/>
<path d="M337.992 441.339V489.1" stroke="#16A1DC" stroke-width="1.5" stroke-miterlimit="10" stroke-linecap="round" stroke-linejoin="round"/>
<path d="M328.861 466.119C330.695 466.119 332.181 464.632 332.181 462.797C332.181 460.962 330.695 459.474 328.861 459.474C327.027 459.474 325.541 460.962 325.541 462.797C325.541 464.632 327.027 466.119 328.861 466.119Z" stroke="#16A1DC" stroke-width="1.5" stroke-miterlimit="10" stroke-linecap="round" stroke-linejoin="round"/>
<path d="M328.861 481.486C330.695 481.486 332.181 479.998 332.181 478.163C332.181 476.328 330.695 474.841 328.861 474.841C327.027 474.841 325.541 476.328 325.541 478.163C325.541 479.998 327.027 481.486 328.861 481.486Z" stroke="#16A1DC" stroke-width="1.5" stroke-miterlimit="10" stroke-linecap="round" stroke-linejoin="round"/>
<path d="M381.709 586.283L373.408 468.611" stroke="#16A1DC" stroke-width="1.5" stroke-miterlimit="10" stroke-linecap="round" stroke-linejoin="round"/>
<path d="M258.856 479.271C258.856 479.271 242.946 515.68 247.649 552.92C251.938 586.283 254.014 594.451 254.014 594.451" stroke="#16A1DC" stroke-width="1.5" stroke-miterlimit="10" stroke-linecap="round" stroke-linejoin="round"/>
<path d="M431.381 480.655C431.381 480.655 410.766 501.698 411.873 548.213C412.703 580.192 418.791 603.726 418.791 603.726" stroke="#252B2D" stroke-width="1.5" stroke-miterlimit="10" stroke-linecap="round" stroke-linejoin="round"/>
<path d="M555.069 608.572L528.921 489.515L525.462 466.396" stroke="#252B2D" stroke-width="1.5" stroke-miterlimit="10" stroke-linecap="round" stroke-linejoin="round"/>
<path d="M431.383 480.655C431.383 480.655 476.347 500.175 527.814 486.47" stroke="#252B2D" stroke-width="1.5" stroke-miterlimit="10" stroke-linecap="round" stroke-linejoin="round"/>
<path d="M428.477 484.808C428.477 484.808 450.474 501.006 494.055 501.282C516.883 500.313 529.058 492.976 529.058 492.976" stroke="#252B2D" stroke-width="1.5" stroke-miterlimit="10" stroke-linecap="round" stroke-linejoin="round"/>
<path d="M494.33 478.302C494.33 478.302 493.777 483.563 498.619 482.178" stroke="#252B2D" stroke-width="1.5" stroke-miterlimit="10" stroke-linecap="round" stroke-linejoin="round"/>
<path d="M488.38 553.612C488.38 554.581 490.041 604.418 490.041 604.418" stroke="#252B2D" stroke-width="1.5" stroke-miterlimit="10" stroke-linecap="round" stroke-linejoin="round"/>
<path d="M531.27 500.452C531.27 500.452 528.087 505.989 517.573 508.62C517.573 508.62 519.233 541.706 541.646 547.659" stroke="#252B2D" stroke-width="1.5" stroke-miterlimit="10" stroke-linecap="round" stroke-linejoin="round"/>
<path d="M412.149 538.522C413.533 544.89 427.368 550.428 439.543 546.136C450.473 542.26 463.339 508.62 463.339 508.62C463.339 508.62 433.317 500.175 426.123 488.685" stroke="#252B2D" stroke-width="1.5" stroke-miterlimit="10" stroke-linecap="round" stroke-linejoin="round"/>
<path d="M432.074 508.204C433.297 508.204 434.288 507.213 434.288 505.989C434.288 504.766 433.297 503.774 432.074 503.774C430.851 503.774 429.86 504.766 429.86 505.989C429.86 507.213 430.851 508.204 432.074 508.204Z" stroke="#252B2D" stroke-width="1.5" stroke-miterlimit="10" stroke-linecap="round" stroke-linejoin="round"/>
<path d="M530.302 512.081C531.524 512.081 532.516 511.089 532.516 509.866C532.516 508.642 531.524 507.651 530.302 507.651C529.079 507.651 528.088 508.642 528.088 509.866C528.088 511.089 529.079 512.081 530.302 512.081Z" stroke="#252B2D" stroke-width="1.5" stroke-miterlimit="10" stroke-linecap="round" stroke-linejoin="round"/>
<path d="M472.359 377.227L426.519 391.026L450.992 472.423L496.832 458.623L472.359 377.227Z" fill="#16A1DC" stroke="#252B2D" stroke-width="1.5" stroke-miterlimit="10"/>
<path d="M480.954 374.548L434.482 386.04L454.861 468.558L501.333 457.067L480.954 374.548Z" fill="#EBF7FE" stroke="#252B2D" stroke-width="1.5" stroke-miterlimit="10" stroke-linecap="round" stroke-linejoin="round"/>
<path d="M478.009 379.805L431.944 392.838L455.058 474.634L501.123 461.601L478.009 379.805Z" fill="#EBF7FE" stroke="#252B2D" stroke-width="1.5" stroke-miterlimit="10" stroke-linecap="round" stroke-linejoin="round"/>
<path d="M485.159 382.412L438.385 392.609L456.471 475.664L503.244 465.466L485.159 382.412Z" fill="#EBF7FE" stroke="#252B2D" stroke-width="1.5" stroke-miterlimit="10" stroke-linecap="round" stroke-linejoin="round"/>
<path d="M445.075 399.115L482.014 391.64" stroke="#252B2D" stroke-width="1.5" stroke-miterlimit="10" stroke-linecap="round" stroke-linejoin="round"/>
<path d="M446.044 403.545L482.984 396.07" stroke="#252B2D" stroke-width="1.5" stroke-miterlimit="10" stroke-linecap="round" stroke-linejoin="round"/>
<path d="M447.151 407.975L484.091 400.5" stroke="#252B2D" stroke-width="1.5" stroke-miterlimit="10" stroke-linecap="round" stroke-linejoin="round"/>
<path d="M447.978 412.544L484.917 405.068" stroke="#252B2D" stroke-width="1.5" stroke-miterlimit="10" stroke-linecap="round" stroke-linejoin="round"/>
<path d="M449.085 416.974L486.025 409.498" stroke="#252B2D" stroke-width="1.5" stroke-miterlimit="10" stroke-linecap="round" stroke-linejoin="round"/>
<path d="M451.991 429.156L488.793 421.819" stroke="#252B2D" stroke-width="1.5" stroke-miterlimit="10" stroke-linecap="round" stroke-linejoin="round"/>
<path d="M453.098 434.002L490.037 426.665" stroke="#252B2D" stroke-width="1.5" stroke-miterlimit="10" stroke-linecap="round" stroke-linejoin="round"/>
<path d="M453.79 438.847L490.591 431.371" stroke="#252B2D" stroke-width="1.5" stroke-miterlimit="10" stroke-linecap="round" stroke-linejoin="round"/>
<path d="M445.63 299.717C442.725 299.717 440.234 297.225 440.373 294.318C440.373 291.411 442.863 288.919 445.768 289.058" stroke="#252B2D" stroke-width="1.5" stroke-miterlimit="10" stroke-linecap="round" stroke-linejoin="round"/>
<path d="M445.217 296.118C444.11 296.118 443.28 295.149 443.28 294.18C443.28 293.072 444.249 292.242 445.217 292.242" stroke="#252B2D" stroke-width="1.5" stroke-miterlimit="10" stroke-linecap="round" stroke-linejoin="round"/>
<path d="M500.278 297.225C501.348 297.225 502.215 296.358 502.215 295.287C502.215 294.217 501.348 293.349 500.278 293.349C499.208 293.349 498.341 294.217 498.341 295.287C498.341 296.358 499.208 297.225 500.278 297.225Z" fill="#252B2D"/>
<path d="M473.437 296.81C474.507 296.81 475.374 295.942 475.374 294.872C475.374 293.802 474.507 292.934 473.437 292.934C472.368 292.934 471.5 293.802 471.5 294.872C471.5 295.942 472.368 296.81 473.437 296.81Z" fill="#252B2D"/>
<path d="M465.692 303.593C466.226 303.593 466.66 303.16 466.66 302.624C466.66 302.089 466.226 301.655 465.692 301.655C465.157 301.655 464.723 302.089 464.723 302.624C464.723 303.16 465.157 303.593 465.692 303.593Z" fill="#252B2D"/>
<path d="M470.12 306.639C470.655 306.639 471.088 306.205 471.088 305.67C471.088 305.135 470.655 304.701 470.12 304.701C469.585 304.701 469.151 305.135 469.151 305.67C469.151 306.205 469.585 306.639 470.12 306.639Z" fill="#252B2D"/>
<path d="M471.085 301.655C471.62 301.655 472.053 301.222 472.053 300.686C472.053 300.151 471.62 299.717 471.085 299.717C470.55 299.717 470.116 300.151 470.116 300.686C470.116 301.222 470.55 301.655 471.085 301.655Z" fill="#252B2D"/>
<path d="M501.524 303.732C502.059 303.732 502.492 303.298 502.492 302.763C502.492 302.228 502.059 301.794 501.524 301.794C500.989 301.794 500.555 302.228 500.555 302.763C500.555 303.298 500.989 303.732 501.524 303.732Z" fill="#252B2D"/>
<path d="M506.09 306.777C506.624 306.777 507.058 306.344 507.058 305.808C507.058 305.273 506.624 304.839 506.09 304.839C505.555 304.839 505.121 305.273 505.121 305.808C505.121 306.344 505.555 306.777 506.09 306.777Z" fill="#252B2D"/>
<path d="M507.058 301.794C507.593 301.794 508.026 301.36 508.026 300.825C508.026 300.29 507.593 299.856 507.058 299.856C506.523 299.856 506.089 300.29 506.089 300.825C506.089 301.36 506.523 301.794 507.058 301.794Z" fill="#252B2D"/>
<path d="M489.487 298.748C490.022 298.748 490.456 298.314 490.456 297.779C490.456 297.244 490.022 296.81 489.487 296.81C488.953 296.81 488.519 297.244 488.519 297.779C488.519 298.314 488.953 298.748 489.487 298.748Z" fill="#252B2D"/>
<path d="M486.304 295.287C486.839 295.287 487.272 294.853 487.272 294.318C487.272 293.783 486.839 293.349 486.304 293.349C485.769 293.349 485.335 293.783 485.335 294.318C485.335 294.853 485.769 295.287 486.304 295.287Z" fill="#252B2D"/>
<path d="M490.594 294.318C491.129 294.318 491.563 293.884 491.563 293.349C491.563 292.814 491.129 292.38 490.594 292.38C490.06 292.38 489.626 292.814 489.626 293.349C489.626 293.884 490.06 294.318 490.594 294.318Z" fill="#252B2D"/>
<path d="M445.629 299.717L444.799 342.356" stroke="#252B2D" stroke-width="1.5" stroke-miterlimit="10" stroke-linecap="round" stroke-linejoin="round"/>
<path d="M502.214 291.826C501.799 291.134 501.108 290.58 500.139 290.58C499.309 290.58 498.617 290.996 498.202 291.549" stroke="#252B2D" stroke-width="1.5" stroke-miterlimit="10" stroke-linecap="round" stroke-linejoin="round"/>
<path d="M471.5 291.272C471.916 290.58 472.746 290.165 473.576 290.165C474.406 290.165 475.098 290.58 475.513 291.134" stroke="#252B2D" stroke-width="1.5" stroke-miterlimit="10" stroke-linecap="round" stroke-linejoin="round"/>
<path d="M487.827 343.048C487.827 343.048 469.288 358.276 445.076 342.356" stroke="#16A1DC" stroke-width="1.5" stroke-miterlimit="10" stroke-linecap="round" stroke-linejoin="round"/>
<path d="M506.918 277.982C506.918 277.982 526.425 319.237 485.335 325.051C478.694 325.605 473.298 324.774 469.009 323.251" stroke="#252B2D" stroke-width="1.5" stroke-miterlimit="10" stroke-linecap="round" stroke-linejoin="round"/>
<path d="M489.348 251.541C489.348 251.541 502.768 251.541 510.101 262.616C520.062 277.706 510.793 290.58 510.793 290.58" stroke="#252B2D" stroke-width="1.5" stroke-miterlimit="10" stroke-linecap="round" stroke-linejoin="round"/>
<path d="M489.349 251.541C489.349 251.541 479.941 235.621 454.761 243.512C432.348 250.572 426.538 271.199 425.016 283.382C424.186 289.888 422.664 296.395 419.067 301.932C406.892 320.898 410.489 337.926 444.938 340.695" stroke="#252B2D" stroke-width="1.5" stroke-miterlimit="10" stroke-linecap="round" stroke-linejoin="round"/>
<path d="M511.07 292.38C511.9 296.533 512.73 300.133 514.944 303.732C526.427 323.113 522.277 340.003 487.827 341.664" stroke="#252B2D" stroke-width="1.5" stroke-miterlimit="10" stroke-linecap="round" stroke-linejoin="round"/>
<path d="M488.104 324.913C487.965 324.913 487.827 343.048 487.827 343.048" stroke="#252B2D" stroke-width="1.5" stroke-miterlimit="10" stroke-linecap="round" stroke-linejoin="round"/>
<path d="M495.575 307.331C495.575 307.331 491.147 311.069 485.613 307.193" stroke="#252B2D" stroke-width="1.5" stroke-miterlimit="10" stroke-linecap="round" stroke-linejoin="round"/>
<path d="M492.116 289.057C492.116 289.057 489.764 287.396 487.827 288.919" stroke="#16A1DC" stroke-width="1.5" stroke-miterlimit="10" stroke-linecap="round" stroke-linejoin="round"/>
<path d="M465.967 288.504L445.768 289.058" stroke="#16A1DC" stroke-width="1.5" stroke-miterlimit="10" stroke-linecap="round" stroke-linejoin="round"/>
<path d="M495.852 301.517C497.789 303.04 500.141 304.147 502.908 304.147C509.134 304.286 514.253 299.302 514.391 293.072C514.529 286.843 509.549 281.72 503.323 281.582C497.097 281.443 491.978 286.427 491.84 292.657C491.84 293.903 491.978 295.287 492.393 296.395" stroke="#16A1DC" stroke-width="1.5" stroke-miterlimit="10" stroke-linecap="round" stroke-linejoin="round"/>
<path d="M476.483 303.732C482.749 303.732 487.828 298.649 487.828 292.38C487.828 286.11 482.749 281.028 476.483 281.028C470.217 281.028 465.138 286.11 465.138 292.38C465.138 298.649 470.217 303.732 476.483 303.732Z" stroke="#16A1DC" stroke-width="1.5" stroke-miterlimit="10" stroke-linecap="round" stroke-linejoin="round"/>
<path d="M434.562 291.411C434.562 291.411 457.667 293.487 469.565 285.873C481.325 278.121 485.614 274.522 486.859 271.061C488.104 267.6 476.067 266.492 476.067 266.492L444.247 278.813L434.562 291.411Z" fill="white"/>
<path d="M509.963 278.398C494.883 277.983 488.242 261.509 488.242 261.509C488.242 261.509 489.902 264.554 485.752 272.722C485.752 272.722 475.375 292.519 436.914 291.549" stroke="#252B2D" stroke-width="1.5" stroke-miterlimit="10" stroke-linecap="round" stroke-linejoin="round"/>
<path d="M491.84 304.286C494.053 304.286 495.714 302.624 495.852 300.409C495.852 298.194 494.192 296.533 491.978 296.395" stroke="#252B2D" stroke-width="1.5" stroke-miterlimit="10" stroke-linecap="round" stroke-linejoin="round"/>
<path d="M521.309 318.683L528.503 312.73L549.256 352.324C549.256 352.324 546.627 365.752 530.302 387.625" stroke="#16A1DC" stroke-width="1.5" stroke-miterlimit="10" stroke-linecap="round" stroke-linejoin="round"/>
<path d="M530.024 312.869C530.024 312.869 553.267 290.027 553.405 264.416C553.544 238.805 546.488 220.669 546.488 220.669" stroke="#252B2D" stroke-width="1.5" stroke-miterlimit="10" stroke-linecap="round" stroke-linejoin="round"/>
<path d="M548.15 348.447C548.15 348.447 577.204 318.96 578.311 290.58C579.417 262.201 567.104 225.238 559.08 213.886" stroke="#252B2D" stroke-width="1.5" stroke-miterlimit="10" stroke-linecap="round" stroke-linejoin="round"/>
<path d="M563.367 280.059L559.078 277.429L565.027 275.768" stroke="#252B2D" stroke-width="1.5" stroke-miterlimit="10" stroke-linecap="round" stroke-linejoin="round"/>
<path d="M463.754 478.579C463.754 478.579 523.66 474.287 542.061 455.598L526.843 370.459" stroke="#16A1DC" stroke-width="1.5" stroke-miterlimit="10" stroke-linecap="round" stroke-linejoin="round"/>
<path d="M439.406 437.74C439.406 437.74 445.77 446.876 459.328 444.523C473.025 442.17 487.829 421.819 488.52 420.85C489.212 419.881 491.841 415.313 491.841 415.313L498.067 417.528L499.173 436.632C499.173 436.632 491.703 462.243 470.811 474.702C466.384 478.163 456.285 482.04 448.399 481.901L439.406 437.74Z" fill="white"/>
<path d="M431.518 471.38C431.518 471.38 427.921 468.334 426.953 471.242C426.538 472.349 427.921 475.118 432.763 475.533C437.467 475.81 438.851 470.688 432.072 466.535" stroke="#252B2D" stroke-width="1.5" stroke-miterlimit="10" stroke-linecap="round" stroke-linejoin="round"/>
<path d="M444.8 342.356C444.8 342.356 394.44 354.539 394.025 391.917L431.933 409.914C431.933 409.914 429.72 438.017 449.227 443.969C470.81 450.614 490.041 418.635 490.041 418.635" stroke="#16A1DC" stroke-width="1.5" stroke-miterlimit="10" stroke-linecap="round" stroke-linejoin="round"/>
<path d="M431.933 409.914C431.933 409.914 429.719 438.017 449.227 443.969C470.809 450.614 490.04 418.635 490.04 418.635" stroke="#252B2D" stroke-width="1.5" stroke-miterlimit="10" stroke-linecap="round" stroke-linejoin="round"/>
<path d="M397.481 394.686C397.481 394.686 386.552 473.733 436.081 481.486C485.611 489.238 500.691 432.341 500.691 432.341" stroke="#252B2D" stroke-width="1.5" stroke-miterlimit="10" stroke-linecap="round" stroke-linejoin="round"/>
<path d="M487.826 395.378L487.549 398.285L490.04 402.992L492.253 402.576L491.7 398.839L490.455 395.516L487.826 395.378Z" fill="white"/>
<path d="M488.38 391.917C488.38 391.917 496.681 383.334 511.07 389.148" stroke="#252B2D" stroke-width="1.5" stroke-miterlimit="10" stroke-linecap="round" stroke-linejoin="round"/>
<path d="M493.636 391.778C490.593 377.242 479.94 369.49 479.94 369.49C478.971 368.798 478.833 367.413 479.525 366.583C480.216 365.613 481.6 365.475 482.43 366.167C482.983 366.583 494.19 374.612 498.064 392.332" fill="white"/>
<path d="M493.636 391.778C490.593 377.242 479.94 369.49 479.94 369.49C478.971 368.798 478.833 367.413 479.525 366.583C480.216 365.613 481.6 365.475 482.43 366.167C482.983 366.583 494.19 374.612 498.064 392.332" stroke="#252B2D" stroke-width="1.5" stroke-miterlimit="10" stroke-linecap="round" stroke-linejoin="round"/>
<path d="M482.843 372.12C482.705 371.982 483.95 369.628 485.887 369.213" stroke="#252B2D" stroke-width="1.5" stroke-miterlimit="10" stroke-linecap="round" stroke-linejoin="round"/>
<path d="M490.039 418.635C490.039 418.635 485.612 410.329 485.335 398.977C485.196 396.208 488.932 396.762 489.762 401.469C490.592 405.76 494.466 410.19 501.522 406.453C509.408 402.3 512.452 398.285 514.389 397.316C516.325 396.347 520.338 398.285 518.262 401.469C518.262 401.469 521.444 401.884 519.646 406.037C519.646 406.037 522.966 406.453 521.168 409.775C521.168 409.775 523.381 411.852 521.029 415.451C518.677 418.912 516.325 421.265 509.546 424.311C506.779 425.557 502.49 426.388 500.692 432.202" fill="white"/>
<path d="M490.039 418.635C490.039 418.635 485.612 410.329 485.335 398.977C485.196 396.208 488.932 396.762 489.762 401.469C490.592 405.76 494.466 410.19 501.522 406.453C509.408 402.3 512.452 398.285 514.389 397.316C516.325 396.347 520.338 398.285 518.262 401.469C518.262 401.469 521.444 401.884 519.646 406.037C519.646 406.037 522.966 406.453 521.168 409.775C521.168 409.775 523.381 411.852 521.029 415.451C518.677 418.912 516.325 421.265 509.546 424.311C506.779 425.557 502.49 426.388 500.692 432.202" stroke="#252B2D" stroke-width="1.5" stroke-miterlimit="10" stroke-linecap="round" stroke-linejoin="round"/>
<path d="M518.125 401.607C518.125 401.607 515.773 403.961 513.836 405.622" stroke="#252B2D" stroke-width="1.5" stroke-miterlimit="10" stroke-linecap="round" stroke-linejoin="round"/>
<path d="M519.509 406.176C519.509 406.176 517.572 409.221 515.497 410.467" stroke="#252B2D" stroke-width="1.5" stroke-miterlimit="10" stroke-linecap="round" stroke-linejoin="round"/>
<path d="M521.17 409.914C521.17 409.914 519.372 412.544 517.573 413.928" stroke="#252B2D" stroke-width="1.5" stroke-miterlimit="10" stroke-linecap="round" stroke-linejoin="round"/>
<path d="M487.688 397.177C487.688 397.177 487.827 393.163 488.38 391.917C488.38 391.917 503.737 394.824 511.07 389.148C511.07 389.148 513.837 392.747 513.837 397.731" fill="white"/>
<path d="M487.688 397.177C487.688 397.177 487.827 393.163 488.38 391.917C488.38 391.917 503.737 394.824 511.07 389.148C511.07 389.148 513.837 392.747 513.837 397.731" stroke="#252B2D" stroke-width="1.5" stroke-miterlimit="10" stroke-linecap="round" stroke-linejoin="round"/>
<path d="M499.864 381.395C499.864 381.395 505.398 381.257 505.122 376.412C504.707 371.151 496.959 375.027 495.991 369.213C494.884 361.737 506.644 366.029 505.675 358" fill="white"/>
<path d="M499.864 381.395C499.864 381.395 505.398 381.257 505.122 376.412C504.707 371.151 496.959 375.027 495.991 369.213C494.884 361.737 506.644 366.029 505.675 358" stroke="#252B2D" stroke-width="1.5" stroke-miterlimit="10" stroke-linecap="round" stroke-linejoin="round"/>
<path d="M492.39 396.347C492.39 396.347 503.734 399.254 512.312 392.886" stroke="#252B2D" stroke-width="1.5" stroke-miterlimit="10" stroke-linecap="round" stroke-linejoin="round"/>
<path d="M546.626 220.669C546.626 220.669 540.816 209.594 531.269 205.995C530.439 205.718 530.301 204.472 530.993 203.919C532.238 203.088 534.728 203.088 539.017 204.611C539.017 204.611 541.369 205.303 540.124 202.949C538.602 200.319 539.155 200.734 532.515 190.629C532.1 190.075 532.238 189.383 532.791 188.967C533.206 188.69 533.898 188.69 534.313 188.967C535.697 190.213 539.432 192.844 542.476 196.443L538.049 182.184C537.91 181.492 538.187 180.661 538.879 180.384C539.57 180.107 540.401 180.384 540.816 181.076L547.318 193.951L546.073 179.83C546.073 179.277 546.35 178.723 546.903 178.584C547.456 178.308 548.148 178.723 548.425 179.277C549.532 181.769 552.022 188.275 552.299 192.705L554.097 185.229C554.374 184.26 555.481 183.845 556.173 184.399C556.449 184.676 556.726 184.953 556.726 185.368C557.141 188.69 558.11 207.933 559.078 213.748" stroke="#252B2D" stroke-width="1.5" stroke-miterlimit="10" stroke-linecap="round" stroke-linejoin="round"/>
<path d="M548.286 208.902C548.286 208.902 547.318 204.888 550.777 201.15" stroke="#252B2D" stroke-width="1.5" stroke-miterlimit="10" stroke-linecap="round" stroke-linejoin="round"/>
</g>
<defs>
<clipPath id="clip0">
<rect width="579" height="622" fill="white"/>
</clipPath>
</defs>
</svg>
