<svg width="368" height="103" viewBox="0 0 368 103" fill="none" xmlns="http://www.w3.org/2000/svg">
<g clip-path="url(#clip0)">
<path d="M84.4048 102.78L92.4987 86.9204H95.7231L99.4082 102.78H96.2276L95.416 98.8481H89.4059L87.5415 102.736L84.4048 102.78ZM90.7659 96.1902H94.8677L93.6613 90.435L90.7659 96.1902Z" fill="#16A1DC"/>
<path d="M103.465 102.78L105.659 86.9205H110.046C111.462 86.8085 112.881 87.0897 114.148 87.7333C114.55 88.0041 114.876 88.3755 115.091 88.8109C115.307 89.2463 115.405 89.7304 115.376 90.2155C115.409 91.3068 115.102 92.3814 114.499 93.2908C113.946 94.1198 113.112 94.7205 112.152 94.9822C112.546 95.114 112.81 95.4874 112.985 96.1244L114.016 99.5731C114.042 99.6809 114.094 99.7809 114.166 99.8649C114.239 99.9489 114.33 100.014 114.433 100.056C114.768 100.187 115.126 100.247 115.486 100.232L114.674 102.846H114.06C113.403 102.863 112.755 102.687 112.195 102.341C111.687 101.984 111.328 101.452 111.186 100.847L110.199 97.1788C110.13 96.9245 110.027 96.6807 109.892 96.4539C109.752 96.2805 109.56 96.1572 109.344 96.1024C108.984 96.0198 108.616 95.9829 108.247 95.9926H107.479L106.536 102.582L103.465 102.78ZM107.852 93.4225H109.366C109.713 93.4197 110.06 93.3754 110.397 93.2908C110.741 93.2012 111.073 93.0684 111.384 92.8954C111.692 92.7261 111.956 92.485 112.152 92.1924C112.355 91.8786 112.461 91.512 112.459 91.1381C112.451 90.9247 112.393 90.7161 112.291 90.5292C112.188 90.3422 112.042 90.1821 111.866 90.0617C111.374 89.7573 110.799 89.6116 110.221 89.6443H108.357L107.852 93.4225Z" fill="#16A1DC"/>
<path d="M119.368 96.2787C119.353 94.9527 119.606 93.6373 120.114 92.4126C120.556 91.2712 121.237 90.2377 122.11 89.3813C122.979 88.5342 124.008 87.8695 125.137 87.4263C126.345 86.9469 127.634 86.7082 128.932 86.7233C130.621 86.7297 132.286 87.1202 133.802 87.8656L132.244 90.4796C131.139 89.8718 129.907 89.5332 128.647 89.4911C127.778 89.4807 126.917 89.6606 126.124 90.0183C125.383 90.3236 124.722 90.7974 124.194 91.4022C123.666 92.0002 123.257 92.6935 122.988 93.445C122.704 94.2262 122.563 95.0521 122.571 95.8833C122.542 96.4751 122.629 97.0669 122.829 97.6248C123.028 98.1827 123.336 98.6957 123.733 99.1343C124.166 99.5592 124.681 99.8898 125.248 100.105C125.814 100.321 126.419 100.416 127.024 100.386C127.708 100.394 128.391 100.335 129.064 100.211L129.875 94.4555H132.902L131.827 102.166C130.143 102.653 128.403 102.918 126.651 102.956C124.7 103.082 122.778 102.435 121.299 101.155C120.652 100.524 120.146 99.764 119.813 98.9236C119.48 98.0832 119.329 97.1818 119.368 96.2787Z" fill="#16A1DC"/>
<path d="M136.961 102.78L139.154 86.9204H148.608L148.257 89.6003H141.852L141.348 93.2028H147.599L147.204 95.9046H140.975L140.383 100.078H146.963L146.568 102.78H136.961Z" fill="#16A1DC"/>
<path d="M151.592 102.78L153.786 86.9204H156.857L156.571 88.9193L162.318 94.6086L163.437 86.9204H166.486L164.183 102.78H161.2L161.858 98.3868L156.089 92.6756L154.663 102.802L151.592 102.78Z" fill="#16A1DC"/>
<path d="M170.126 89.6003L170.499 86.9204H181.729L181.357 89.6003H177.321L175.478 102.78H172.341L174.184 89.6003H170.126Z" fill="#16A1DC"/>
<path d="M183.461 102.78L185.655 86.9204H188.814L186.62 102.78H183.461Z" fill="#16A1DC"/>
<path d="M192.04 102.78L194.234 86.9204H197.414L197.129 88.9193L202.92 94.6086L204.016 86.9204H207.065L204.872 102.78H201.647L202.284 98.3868L196.515 92.6756L195.221 102.78H192.04Z" fill="#16A1DC"/>
<path d="M210.289 96.344C210.283 95.0372 210.521 93.7408 210.991 92.5219C211.431 91.3767 212.094 90.3311 212.943 89.4466C213.775 88.5786 214.775 87.8908 215.883 87.4257C217.035 86.9391 218.273 86.6925 219.524 86.7008C220.447 86.6521 221.371 86.7883 222.241 87.1013C223.111 87.4144 223.909 87.898 224.591 88.524C225.223 89.1675 225.717 89.9343 226.042 90.777C226.366 91.6196 226.515 92.5201 226.477 93.4225C226.482 94.666 226.266 95.9006 225.841 97.0689C225.447 98.1902 224.844 99.2264 224.064 100.122C223.256 101.06 222.253 101.81 221.125 102.319C219.894 102.857 218.563 103.126 217.221 103.11C216.297 103.163 215.372 103.034 214.499 102.729C213.625 102.423 212.821 101.948 212.132 101.33C211.489 100.678 210.992 99.8956 210.674 99.0359C210.357 98.1761 210.225 97.2585 210.289 96.344ZM213.47 95.8827C213.434 96.4649 213.515 97.0483 213.707 97.5989C213.899 98.1495 214.199 98.6564 214.588 99.0898C214.973 99.4959 215.44 99.8141 215.959 100.023C216.478 100.231 217.035 100.325 217.593 100.298C218.357 100.289 219.109 100.101 219.787 99.7488C220.481 99.4058 221.094 98.9191 221.586 98.321C222.083 97.7088 222.476 97.0186 222.748 96.2781C223.028 95.5111 223.169 94.7003 223.165 93.8838C223.21 92.705 222.81 91.5524 222.046 90.6547C221.668 90.2371 221.203 89.9083 220.684 89.6918C220.164 89.4754 219.603 89.3766 219.041 89.4027C218.016 89.3923 217.012 89.6991 216.168 90.2813C215.273 90.8641 214.559 91.6859 214.106 92.6537C213.65 93.6672 213.432 94.7718 213.47 95.8827Z" fill="#16A1DC"/>
<path d="M65.8047 14.2122L67.8446 0H82.5848L80.501 14.2122H65.8047Z" fill="#010101"/>
<path d="M0 14.2122L1.90833 0H61.1323L59.2239 14.2122H37.9472L28.7784 78.0683H12.2615L21.3425 14.2122H0Z" fill="#010101"/>
<path d="M58.4117 66.602C58.3994 65.977 58.4434 65.352 58.5433 64.7349L64.7728 20.0994H79.5129L73.6564 62.0989C73.6732 62.2081 73.6732 62.3193 73.6564 62.4284C73.6456 62.516 73.6456 62.6045 73.6564 62.692C73.6502 63.1545 73.7618 63.611 73.9805 64.0183C74.1992 64.4257 74.518 64.7706 74.9066 65.0205C76.2673 65.8195 77.7491 66.3908 79.2936 66.7119L72.7132 79.4084C68.9779 79.1489 65.4147 77.7369 62.5135 75.3666C61.2067 74.3165 60.1575 72.9805 59.4465 71.4612C58.7354 69.9419 58.3815 68.2797 58.4117 66.602Z" fill="#010101"/>
<path d="M85.5452 54.2787C85.5351 49.5727 86.4133 44.9072 88.1335 40.5278C89.7521 36.3682 92.141 32.5523 95.1746 29.2811C98.2226 26.0593 101.885 23.4823 105.945 21.7027C110.176 19.8203 114.76 18.8618 119.391 18.891C122.597 18.7171 125.804 19.1959 128.821 20.2983C131.837 21.4007 134.598 23.104 136.938 25.3052C139.171 27.6321 140.906 30.3908 142.038 33.4123C143.169 36.4339 143.673 39.6549 143.519 42.8782V43.4494L133.341 54.9158H101.075C101.149 56.5188 101.55 58.0898 102.251 59.5326C102.953 60.9754 103.941 62.2597 105.155 63.3069C107.841 65.6257 111.307 66.8351 114.85 66.6897C118.135 66.6627 121.404 66.2423 124.589 65.4376C127.459 64.8016 130.247 63.8436 132.902 62.582L135.381 74.5536C127.954 77.735 119.945 79.3286 111.867 79.2325C103.422 79.2325 96.9075 77.0358 92.3889 72.4668C90.067 70.0648 88.2618 67.2115 87.0847 64.0831C85.9075 60.9548 85.3836 57.6179 85.5452 54.2787ZM103.093 42.1753H130.073C129.987 39.2659 128.751 36.5096 126.637 34.512C124.523 32.5144 121.704 31.4389 118.798 31.5216C115.33 31.5631 111.963 32.6924 109.169 34.7507C106.404 36.5128 104.275 39.1145 103.093 42.1753Z" fill="#010101"/>
<path d="M147.576 78.0684L155.736 20.0993H169.621L169.401 25.0198C171.541 23.3863 173.868 22.0147 176.333 20.9341C178.808 19.7562 181.511 19.134 184.251 19.1109C187.256 19.0766 190.237 19.6364 193.025 20.7583C195.547 21.7067 197.699 23.4387 199.167 25.7007C201.818 23.8659 204.674 22.3473 207.677 21.1757C210.97 19.8222 214.493 19.121 218.053 19.1109C229.327 19.1109 234.964 24.8514 234.964 36.3324C234.908 38.636 234.695 40.9331 234.328 43.2079L231.521 62.67C231.507 63.1109 231.611 63.5473 231.823 63.9338C232.036 64.3202 232.348 64.6424 232.727 64.8667C234.118 65.5999 235.591 66.1675 237.114 66.5581L230.534 79.2546C226.821 79.0051 223.275 77.6169 220.378 75.2787C218.917 73.9537 217.807 72.2877 217.145 70.429C216.483 68.5703 216.29 66.5765 216.583 64.625L219.544 43.3617C219.742 42.1639 219.838 40.9513 219.829 39.7372C219.829 34.8607 217.709 32.4224 213.468 32.4224C211.22 32.5054 209.034 33.1797 207.129 34.3774C205.067 35.5624 203.14 36.9693 201.382 38.573C201.318 40.111 201.164 41.6439 200.922 43.164L195.877 78.0684H181.071L185.962 43.3397C186.116 41.7581 186.203 40.6818 186.203 40.0667C186.203 34.9559 184.01 32.4005 179.623 32.4005C177.384 32.5461 175.229 33.3061 173.393 34.5971C171.381 35.8335 169.525 37.3086 167.866 38.9904L162.316 78.0684H147.576Z" fill="#010101"/>
<path d="M239.922 102.539L251.503 20.0992H264.357L264.599 23.5699C266.74 22.2349 269.039 21.1723 271.442 20.4068C274.118 19.4874 276.926 19.0126 279.755 19.0009C282.893 18.8413 286.029 19.3655 288.945 20.5373C291.861 21.7092 294.488 23.5008 296.645 25.7885C300.875 30.5444 303.099 36.7563 302.853 43.1199C302.941 49.4606 301.376 55.7146 298.312 61.2641C295.253 66.7045 290.771 71.2076 285.349 74.2901C279.611 77.5515 273.103 79.2056 266.507 79.0787C263.62 79.1362 260.739 78.7812 257.952 78.0244L254.443 102.539H239.922ZM259.795 64.9764C262.382 66.0603 265.174 66.5699 267.976 66.4701C270.651 66.4589 273.291 65.8634 275.711 64.7253C278.132 63.5871 280.276 61.9336 281.993 59.8802C285.833 55.8684 287.972 50.5224 287.959 44.9651C288.13 41.5851 287.017 38.2655 284.844 35.6733C283.655 34.4699 282.22 33.5385 280.637 32.9432C279.054 32.3479 277.362 32.1028 275.676 32.2246C273.408 32.2709 271.172 32.7635 269.095 33.6744C267.204 34.364 265.435 35.3501 263.853 36.5959L259.795 64.9764Z" fill="#010101"/>
<path d="M306.911 54.586C306.834 48.2243 308.382 41.9485 311.407 36.354C314.302 31.0168 318.614 26.5849 323.866 23.5476C329.329 20.4094 335.534 18.8008 341.831 18.8908C349.917 18.8908 356.3 21.1533 360.98 25.6784C363.342 28.0503 365.185 30.8881 366.394 34.0116C367.602 37.1351 368.149 40.4762 367.999 43.8225C368.003 47.4723 367.524 51.1066 366.573 54.63C364.71 61.5259 360.746 67.6686 355.233 72.203C352.323 74.4944 349.034 76.2565 345.516 77.409C341.579 78.6944 337.461 79.3324 333.32 79.2981C325.116 79.2981 318.646 77.1015 313.952 72.7082C311.556 70.3647 309.688 67.5353 308.474 64.4097C307.259 61.2842 306.726 57.9347 306.911 54.586ZM321.804 52.2137C321.633 55.9731 322.914 59.6541 325.38 62.4939C326.637 63.7989 328.158 64.8192 329.842 65.486C331.525 66.1529 333.332 66.4509 335.141 66.36C337.576 66.3667 339.981 65.8254 342.18 64.7761C344.378 63.7267 346.313 62.196 347.841 60.2973C351.307 56.3992 353.199 51.3483 353.149 46.129C353.303 42.3654 352.025 38.6835 349.574 35.8268C348.377 34.4795 346.896 33.4158 345.238 32.7129C343.58 32.01 341.787 31.6855 339.988 31.763C337.544 31.7482 335.126 32.274 332.908 33.3031C330.69 34.3321 328.726 35.8389 327.156 37.7159C323.591 41.6878 321.676 46.8743 321.804 52.2137Z" fill="#010101"/>
</g>
<defs>
<clipPath id="clip0">
<rect width="368" height="103" fill="white"/>
</clipPath>
</defs>
</svg>
