<svg width="179" height="182" viewBox="0 0 179 182" fill="none" xmlns="http://www.w3.org/2000/svg">
<path d="M123.778 52.18C123.778 45.8127 122.097 39.5583 118.904 34.0493C115.711 28.5403 111.12 23.9721 105.595 20.8066C100.071 17.6411 93.808 15.9905 87.4408 16.0218C81.0735 16.0531 74.8274 17.7651 69.3341 20.9848C63.8407 24.2045 59.2949 28.8176 56.1564 34.3577C53.0179 39.8978 51.3979 46.1684 51.4602 52.5354C51.5226 58.9025 53.2651 65.1402 56.5115 70.6177C59.7579 76.0953 64.3932 80.6185 69.9485 83.73C70.9878 85.8952 71.2836 88.3429 70.79 90.6934C70.2964 93.0439 69.041 95.1658 67.2185 96.73C71.016 98.507 75.3631 98.7059 79.3071 97.2832C83.251 95.8605 86.47 92.9321 88.2585 89.14C88.3885 88.87 88.4885 88.59 88.5985 88.32C98.0152 88.0672 106.961 84.1487 113.532 77.3986C120.103 70.6485 123.779 61.6001 123.778 52.18Z" fill="white" stroke="#252B2D" stroke-width="1.5" stroke-linecap="round" stroke-linejoin="round"/>
<path d="M105.258 89.43C105.259 83.0627 106.94 76.8083 110.133 71.2993C113.326 65.7903 117.917 61.2221 123.441 58.0566C128.966 54.8911 135.229 53.2405 141.596 53.2718C147.963 53.3031 154.209 55.0151 159.703 58.2348C165.196 61.4545 169.742 66.0676 172.88 71.6077C176.019 77.1478 177.639 83.4184 177.577 89.7854C177.514 96.1525 175.772 102.39 172.525 107.868C169.279 113.345 164.644 117.869 159.088 120.98C158.049 123.145 157.753 125.593 158.247 127.943C158.74 130.294 159.996 132.416 161.818 133.98C159.934 134.865 157.894 135.37 155.814 135.466C153.735 135.562 151.657 135.247 149.699 134.54C147.741 133.832 145.942 132.745 144.404 131.342C142.867 129.938 141.621 128.245 140.738 126.36C140.608 126.09 140.508 125.81 140.398 125.54C130.995 125.275 122.065 121.355 115.504 114.613C108.943 107.871 105.268 98.8374 105.258 89.43Z" fill="white" stroke="#16A1DC" stroke-width="1.5" stroke-linecap="round" stroke-linejoin="round"/>
<path d="M105.258 46.75C105.139 45.8905 104.708 45.1047 104.049 44.5409C103.389 43.9771 102.546 43.6744 101.678 43.69H86.0082C87.177 41.5405 88.1091 39.2705 88.7882 36.92L88.8882 36.55C89.167 35.659 89.108 34.6966 88.7225 33.8464C88.337 32.9961 87.6521 32.3175 86.7983 31.94C86.3216 31.7477 85.8099 31.6578 85.2963 31.6759C84.7827 31.694 84.2786 31.8197 83.8166 32.045C83.3547 32.2703 82.9452 32.5902 82.6148 32.9838C82.2843 33.3774 82.0402 33.836 81.8982 34.33C81.1325 37.2128 79.9999 39.9855 78.5282 42.58C77.483 44.2627 76.1689 45.7626 74.6382 47.02C73.1199 48.3338 71.9137 49.9697 71.1076 51.8086C70.3014 53.6475 69.9156 55.6431 69.9783 57.65C70.1983 65.06 76.6282 70.78 84.0382 70.78H97.1182C97.9775 70.7997 98.8145 70.5062 99.4732 69.9542C100.132 69.4022 100.567 68.6294 100.698 67.78C100.747 67.3053 100.696 66.8257 100.548 66.3721C100.4 65.9185 100.158 65.501 99.8389 65.1466C99.5194 64.7922 99.129 64.5088 98.6931 64.3147C98.2572 64.1207 97.7854 64.0203 97.3083 64.02H98.6482C99.5291 64.0439 100.387 63.7384 101.055 63.1633C101.722 62.5881 102.152 61.7847 102.258 60.91C102.307 60.4358 102.256 59.9566 102.108 59.5035C101.96 59.0504 101.718 58.6335 101.398 58.2799C101.079 57.9263 100.688 57.6439 100.252 57.4509C99.8165 57.258 99.3449 57.1589 98.8682 57.16H100.258C101.132 57.1791 101.98 56.867 102.633 56.2864C103.286 55.7059 103.695 54.8997 103.778 54.03C103.822 53.2136 103.571 52.4087 103.072 51.7612C102.573 51.1136 101.859 50.6662 101.058 50.5H101.898C102.372 50.4954 102.839 50.3922 103.271 50.1969C103.703 50.0016 104.089 49.7185 104.405 49.3657C104.721 49.0129 104.96 48.5981 105.107 48.1477C105.254 47.6974 105.306 47.2213 105.258 46.75Z" fill="white" stroke="#252B2D" stroke-width="1.5" stroke-linecap="round" stroke-linejoin="round"/>
<path d="M101.029 50.5H93.8887" stroke="#252B2D" stroke-width="1.5" stroke-linecap="round" stroke-linejoin="round"/>
<path d="M99.5787 57.14H93.8887" stroke="#252B2D" stroke-width="1.5" stroke-linecap="round" stroke-linejoin="round"/>
<path d="M97.4484 64.02H93.8784" stroke="#252B2D" stroke-width="1.5" stroke-linecap="round" stroke-linejoin="round"/>
<path d="M137.179 110.25C136.745 110.251 136.316 110.167 135.916 110.001C135.515 109.836 135.152 109.593 134.846 109.286C134.54 108.979 134.298 108.615 134.133 108.214C133.969 107.813 133.886 107.383 133.889 106.95C133.882 106.506 133.964 106.065 134.129 105.653C134.294 105.24 134.54 104.865 134.852 104.549C135.164 104.232 135.535 103.981 135.945 103.81C136.355 103.638 136.794 103.55 137.239 103.55C137.68 103.544 138.117 103.63 138.524 103.802C138.93 103.974 139.296 104.229 139.599 104.55C139.918 104.86 140.172 105.232 140.344 105.642C140.516 106.053 140.602 106.495 140.599 106.94C140.606 107.378 140.521 107.814 140.349 108.217C140.176 108.62 139.921 108.983 139.599 109.28C139.282 109.597 138.904 109.846 138.488 110.012C138.072 110.179 137.627 110.26 137.179 110.25ZM134.369 94.25C134.324 92.7146 134.701 91.1963 135.459 89.86C136.209 88.6433 137.155 87.5588 138.259 86.65C139.387 85.6844 140.587 84.8052 141.849 84.02C143.129 83.22 144.319 82.41 145.439 81.6C146.475 80.8579 147.406 79.9801 148.209 78.99C148.916 78.0795 149.287 76.9526 149.259 75.8C149.278 75.1126 149.145 74.4295 148.868 73.7999C148.591 73.1704 148.178 72.6102 147.659 72.16C146.503 71.1835 145.02 70.6798 143.509 70.75C142.174 70.702 140.859 71.0841 139.759 71.84C139.295 72.1426 138.915 72.5565 138.653 73.0439C138.391 73.5313 138.255 74.0766 138.259 74.63C138.22 74.8954 138.254 75.1662 138.356 75.4142C138.458 75.6622 138.625 75.8783 138.839 76.04C139.245 76.2784 139.673 76.476 140.119 76.63C140.567 76.7843 140.996 76.989 141.399 77.24C141.615 77.4283 141.782 77.6678 141.883 77.9366C141.985 78.2055 142.017 78.4953 141.979 78.78C141.998 79.1353 141.939 79.4906 141.806 79.8206C141.673 80.1506 141.469 80.4474 141.209 80.69C140.606 81.1857 139.837 81.4325 139.059 81.38C138.376 81.3965 137.697 81.2678 137.068 81.0023C136.439 80.7368 135.873 80.3406 135.409 79.84C134.925 79.3289 134.548 78.7275 134.297 78.0704C134.047 77.4132 133.928 76.713 133.949 76.01C133.955 74.9619 134.219 73.9316 134.719 73.01C135.247 72.0464 135.961 71.1968 136.819 70.51C137.76 69.7743 138.822 69.2091 139.959 68.84C141.193 68.4265 142.487 68.2203 143.789 68.23C145.039 68.2117 146.282 68.4184 147.459 68.84C148.49 69.205 149.432 69.7877 150.219 70.5486C151.005 71.3096 151.619 72.2309 152.019 73.25C152.459 74.3601 152.676 75.546 152.659 76.74C152.699 78.3797 152.305 80.0009 151.519 81.44C150.758 82.7665 149.796 83.9674 148.669 85C147.527 86.0572 146.28 86.9954 144.949 87.8C143.615 88.6133 142.375 89.41 141.229 90.19C140.198 90.8782 139.243 91.6725 138.379 92.56C137.677 93.2452 137.275 94.1796 137.259 95.16C137.259 96.58 138.069 97.29 139.699 97.29C141.329 97.29 142.699 96.38 143.639 94.57L145.069 95.42C143.735 98.1867 141.769 99.57 139.169 99.57C138.512 99.6223 137.852 99.5313 137.233 99.3034C136.615 99.0755 136.054 98.7161 135.589 98.25C134.699 97.1378 134.263 95.7302 134.369 94.31V94.25Z" fill="#16A1DC"/>
<path d="M147.598 5.97V4.66C147.598 3.68931 147.984 2.75837 148.67 2.07199C149.357 1.38561 150.288 1 151.258 1C152.229 1 153.16 1.38561 153.846 2.07199C154.533 2.75837 154.918 3.68931 154.918 4.66V5.97C157.972 6.78031 160.674 8.57602 162.603 11.0785C164.532 13.5809 165.582 16.6502 165.588 19.81V30.44C165.589 31.421 165.727 32.3972 165.998 33.34L168.488 36.96C168.637 37.1819 168.723 37.4403 168.736 37.7074C168.75 37.9744 168.69 38.2401 168.563 38.4756C168.437 38.7112 168.248 38.9078 168.018 39.0442C167.788 39.1807 167.526 39.2518 167.258 39.25H135.258C134.991 39.2494 134.729 39.1759 134.5 39.0375C134.272 38.8991 134.085 38.701 133.961 38.4644C133.836 38.2279 133.779 37.9619 133.794 37.695C133.809 37.4282 133.897 37.1706 134.048 36.95L136.538 33.33C136.809 32.3872 136.947 31.411 136.948 30.43V19.81C136.955 16.6533 138.003 13.5868 139.928 11.085C141.853 8.58327 144.549 6.78556 147.598 5.97Z" fill="white" stroke="#252B2D" stroke-width="1.5" stroke-miterlimit="10"/>
<path d="M144.488 39.25H158.038V39.41C158.04 40.3007 157.865 41.183 157.525 42.0061C157.185 42.8293 156.685 43.5773 156.055 44.2071C155.426 44.837 154.678 45.3363 153.854 45.6766C153.031 46.0168 152.149 46.1913 151.258 46.19C149.463 46.19 147.741 45.4767 146.471 44.2071C145.202 42.9375 144.488 41.2155 144.488 39.42V39.25Z" fill="white" stroke="#252B2D" stroke-width="1.5" stroke-miterlimit="10"/>
<path d="M127.769 15.93C128.557 12.5032 130.094 9.29314 132.269 6.53003" stroke="#252B2D" stroke-width="1.5" stroke-miterlimit="10"/>
<path d="M131.639 16.25C132.053 14.4426 132.727 12.7047 133.639 11.09C133.919 10.6 134.209 10.09 134.529 9.66998" stroke="#252B2D" stroke-width="1.5" stroke-miterlimit="10"/>
<path d="M174.368 15.93C173.578 12.5058 172.045 9.29684 169.878 6.53003" stroke="#252B2D" stroke-width="1.5" stroke-miterlimit="10"/>
<path d="M170.498 16.25C170.084 14.4426 169.41 12.7046 168.498 11.09C168.218 10.6 167.918 10.09 167.608 9.66998" stroke="#252B2D" stroke-width="1.5" stroke-miterlimit="10"/>
<path d="M32.1385 160.98C34.2602 160.98 36.2951 160.137 37.7953 158.637C39.2956 157.137 40.1385 155.102 40.1385 152.98V121.63C40.1385 120.556 39.7118 119.526 38.9523 118.766C38.1928 118.007 37.1626 117.58 36.0885 117.58C35.0144 117.58 33.9842 118.007 33.2247 118.766C32.4652 119.526 32.0385 120.556 32.0385 121.63V115.25C32.0658 114.701 31.9811 114.151 31.7897 113.636C31.5982 113.12 31.3039 112.648 30.9247 112.25C30.5455 111.851 30.0892 111.534 29.5836 111.317C29.078 111.1 28.5336 110.989 27.9835 110.989C27.4334 110.989 26.889 111.1 26.3834 111.317C25.8778 111.534 25.4215 111.851 25.0423 112.25C24.6631 112.648 24.3688 113.12 24.1773 113.636C23.9859 114.151 23.9012 114.701 23.9285 115.25V130.25V108.45C23.8768 107.409 23.427 106.428 22.6722 105.71C21.9174 104.992 20.9154 104.591 19.8735 104.591C18.8316 104.591 17.8296 104.992 17.0748 105.71C16.32 106.428 15.8702 107.409 15.8185 108.45V116.76C15.7668 115.719 15.317 114.738 14.5622 114.02C13.8074 113.302 12.8054 112.901 11.7635 112.901C10.7216 112.901 9.71956 113.302 8.96477 114.02C8.20997 114.738 7.76019 115.719 7.7085 116.76V130.76" stroke="#252B2D" stroke-width="1.5" stroke-linecap="round" stroke-linejoin="round"/>
<path d="M15.7686 116.71V130.14" stroke="#252B2D" stroke-width="1.5" stroke-linecap="round" stroke-linejoin="round"/>
<path d="M31.9585 121.05V130.16" stroke="#252B2D" stroke-width="1.5" stroke-linecap="round" stroke-linejoin="round"/>
<path d="M18.1786 154.34C18.4763 153.1 18.4891 151.808 18.216 150.563C17.9429 149.317 17.3911 148.149 16.6019 147.147C15.8127 146.146 14.8068 145.336 13.6596 144.778C12.5125 144.221 11.254 143.931 9.97865 143.93H9.64865V134.25C9.64996 133.717 9.54618 133.19 9.34323 132.697C9.14029 132.205 8.84218 131.757 8.46597 131.38C8.08976 131.003 7.64285 130.703 7.15083 130.499C6.65881 130.295 6.13134 130.19 5.59865 130.19V130.19C4.53147 130.203 3.51264 130.637 2.76361 131.397C2.01459 132.158 1.59593 133.183 1.59865 134.25V152C1.59865 152.14 1.59865 152.49 1.59865 152.63C1.59865 157.04 3.77865 161.03 11.3786 161.03V169.25" stroke="#252B2D" stroke-width="1.5" stroke-linecap="round" stroke-linejoin="round"/>
<path d="M33.4282 160.98V169.26" stroke="#252B2D" stroke-width="1.5" stroke-linecap="round" stroke-linejoin="round"/>
<path d="M7.91846 180.97V170.84C7.91846 170.418 8.08597 170.014 8.38416 169.716C8.68234 169.418 9.08676 169.25 9.50846 169.25H34.8585C35.0659 169.25 35.2714 169.291 35.4631 169.37C35.6548 169.45 35.829 169.566 35.9757 169.713C36.1224 169.859 36.2388 170.034 36.3182 170.225C36.3976 170.417 36.4385 170.623 36.4385 170.83V180.96" stroke="#252B2D" stroke-width="1.5" stroke-linecap="round" stroke-linejoin="round"/>
<path d="M79.5987 160.98C81.7204 160.98 83.7553 160.137 85.2555 158.637C86.7558 157.137 87.5987 155.102 87.5987 152.98V121.63C87.547 120.589 87.0972 119.608 86.3424 118.89C85.5876 118.172 84.5856 117.771 83.5437 117.771C82.5018 117.771 81.4998 118.172 80.745 118.89C79.9902 119.608 79.5404 120.589 79.4887 121.63V115.25C79.516 114.701 79.4313 114.151 79.2399 113.636C79.0484 113.12 78.7541 112.648 78.3749 112.25C77.9957 111.851 77.5394 111.534 77.0338 111.317C76.5282 111.1 75.9838 110.989 75.4337 110.989C74.8836 110.989 74.3392 111.1 73.8336 111.317C73.328 111.534 72.8717 111.851 72.4925 112.25C72.1133 112.648 71.819 113.12 71.6275 113.636C71.436 114.151 71.3514 114.701 71.3787 115.25V130.25V108.45C71.327 107.409 70.8772 106.428 70.1224 105.71C69.3676 104.992 68.3656 104.591 67.3237 104.591C66.2818 104.591 65.2798 104.992 64.525 105.71C63.7702 106.428 63.3204 107.409 63.2687 108.45V116.76C63.217 115.719 62.7672 114.738 62.0124 114.02C61.2576 113.302 60.2556 112.901 59.2137 112.901C58.1718 112.901 57.1698 113.302 56.415 114.02C55.6602 114.738 55.2104 115.719 55.1587 116.76V130.76" stroke="#252B2D" stroke-width="1.5" stroke-linecap="round" stroke-linejoin="round"/>
<path d="M63.2285 116.71V130.14" stroke="#252B2D" stroke-width="1.5" stroke-linecap="round" stroke-linejoin="round"/>
<path d="M79.4185 121.05V130.16" stroke="#252B2D" stroke-width="1.5" stroke-linecap="round" stroke-linejoin="round"/>
<path d="M65.6385 154.34C65.9364 153.099 65.949 151.807 65.6754 150.56C65.4017 149.314 64.849 148.146 64.0587 147.144C63.2684 146.141 62.2612 145.332 61.1128 144.775C59.9644 144.218 58.7047 143.93 57.4285 143.93C57.3185 143.93 57.2185 143.93 57.1085 143.93V134.25C57.1098 133.717 57.0061 133.19 56.8031 132.697C56.6002 132.205 56.3021 131.757 55.9259 131.38C55.5496 131.003 55.1027 130.703 54.6107 130.499C54.1187 130.295 53.5912 130.19 53.0585 130.19V130.19C51.9818 130.19 50.9491 130.618 50.1877 131.379C49.4263 132.141 48.9985 133.173 48.9985 134.25V152V152.63C48.9985 157.04 51.1885 161.03 58.7885 161.03V169.25" stroke="#252B2D" stroke-width="1.5" stroke-linecap="round" stroke-linejoin="round"/>
<path d="M80.8784 160.98V169.26" stroke="#252B2D" stroke-width="1.5" stroke-linecap="round" stroke-linejoin="round"/>
<path d="M55.3784 180.97V170.84C55.3771 170.632 55.417 170.425 55.4958 170.232C55.5747 170.039 55.6908 169.864 55.8377 169.716C55.9845 169.569 56.1591 169.451 56.3515 169.371C56.5438 169.291 56.7501 169.25 56.9585 169.25H82.3085C82.7284 169.25 83.1313 169.416 83.4292 169.712C83.7271 170.008 83.8958 170.41 83.8985 170.83V180.96" stroke="#252B2D" stroke-width="1.5" stroke-linecap="round" stroke-linejoin="round"/>
<path d="M127.058 160.98C128.109 160.98 129.149 160.773 130.12 160.371C131.09 159.969 131.972 159.38 132.715 158.637C133.458 157.894 134.047 157.012 134.449 156.041C134.851 155.071 135.058 154.031 135.058 152.98V121.63C135.007 120.589 134.557 119.608 133.802 118.89C133.047 118.172 132.045 117.771 131.003 117.771C129.962 117.771 128.959 118.172 128.205 118.89C127.45 119.608 127 120.589 126.948 121.63V115.25C126.976 114.701 126.891 114.151 126.7 113.636C126.508 113.12 126.214 112.648 125.835 112.25C125.455 111.851 124.999 111.534 124.494 111.317C123.988 111.1 123.444 110.989 122.893 110.989C122.343 110.989 121.799 111.1 121.293 111.317C120.788 111.534 120.331 111.851 119.952 112.25C119.573 112.648 119.279 113.12 119.087 113.636C118.896 114.151 118.811 114.701 118.838 115.25V130.25V108.45C118.838 107.376 118.412 106.346 117.652 105.586C116.893 104.827 115.863 104.4 114.788 104.4C113.714 104.4 112.684 104.827 111.925 105.586C111.165 106.346 110.738 107.376 110.738 108.45V116.76C110.687 115.719 110.237 114.738 109.482 114.02C108.727 113.302 107.725 112.901 106.683 112.901C105.642 112.901 104.639 113.302 103.885 114.02C103.13 114.738 102.68 115.719 102.628 116.76V130.76" fill="white"/>
<path d="M127.058 160.98C128.109 160.98 129.149 160.773 130.12 160.371C131.09 159.969 131.972 159.38 132.715 158.637C133.458 157.894 134.047 157.012 134.449 156.041C134.851 155.071 135.058 154.031 135.058 152.98V121.63C135.007 120.589 134.557 119.608 133.802 118.89C133.047 118.172 132.045 117.771 131.003 117.771C129.962 117.771 128.959 118.172 128.205 118.89C127.45 119.608 127 120.589 126.948 121.63V115.25C126.976 114.701 126.891 114.151 126.7 113.636C126.508 113.12 126.214 112.648 125.835 112.25C125.455 111.851 124.999 111.534 124.494 111.317C123.988 111.1 123.444 110.989 122.893 110.989C122.343 110.989 121.799 111.1 121.293 111.317C120.788 111.534 120.331 111.851 119.952 112.25C119.573 112.648 119.279 113.12 119.087 113.636C118.896 114.151 118.811 114.701 118.838 115.25V130.25V108.45C118.838 107.376 118.412 106.346 117.652 105.586C116.893 104.827 115.863 104.4 114.788 104.4C113.714 104.4 112.684 104.827 111.925 105.586C111.165 106.346 110.738 107.376 110.738 108.45V116.76C110.687 115.719 110.237 114.738 109.482 114.02C108.727 113.302 107.725 112.901 106.683 112.901C105.642 112.901 104.639 113.302 103.885 114.02C103.13 114.738 102.68 115.719 102.628 116.76V130.76" stroke="#252B2D" stroke-width="1.5" stroke-linecap="round" stroke-linejoin="round"/>
<path d="M110.688 116.71V130.14" stroke="#252B2D" stroke-width="1.5" stroke-linecap="round" stroke-linejoin="round"/>
<path d="M126.878 121.05V130.16" stroke="#252B2D" stroke-width="1.5" stroke-linecap="round" stroke-linejoin="round"/>
<path d="M113.089 154.34C113.386 153.1 113.399 151.808 113.126 150.563C112.853 149.317 112.301 148.149 111.512 147.147C110.723 146.146 109.717 145.336 108.569 144.778C107.422 144.221 106.164 143.931 104.888 143.93C104.778 143.93 104.678 143.93 104.568 143.93V134.25C104.569 133.184 104.149 132.16 103.401 131.4C102.652 130.64 101.635 130.206 100.568 130.19C100.031 130.183 99.4978 130.284 98.9994 130.485C98.5011 130.686 98.0476 130.984 97.6653 131.361C97.283 131.739 96.9794 132.189 96.7723 132.685C96.5651 133.181 96.4585 133.713 96.4585 134.25V152V152.63C96.4585 157.04 98.6485 161.03 106.248 161.03V169.25" fill="white"/>
<path d="M113.089 154.34C113.386 153.1 113.399 151.808 113.126 150.563C112.853 149.317 112.301 148.149 111.512 147.147C110.723 146.146 109.717 145.336 108.569 144.778C107.422 144.221 106.164 143.931 104.888 143.93C104.778 143.93 104.678 143.93 104.568 143.93V134.25C104.569 133.184 104.149 132.16 103.401 131.4C102.652 130.64 101.635 130.206 100.568 130.19V130.19C100.031 130.183 99.4978 130.284 98.9994 130.485C98.5011 130.686 98.0476 130.984 97.6653 131.361C97.283 131.739 96.9794 132.189 96.7723 132.685C96.5651 133.181 96.4585 133.713 96.4585 134.25V152V152.63C96.4585 157.04 98.6485 161.03 106.248 161.03V169.25" stroke="#252B2D" stroke-width="1.5" stroke-linecap="round" stroke-linejoin="round"/>
<path d="M128.338 160.98V169.26" stroke="#252B2D" stroke-width="1.5" stroke-linecap="round" stroke-linejoin="round"/>
<path d="M102.838 180.97V170.84C102.838 170.421 103.005 170.019 103.301 169.723C103.597 169.426 103.999 169.26 104.418 169.26H129.768C130.187 169.26 130.589 169.426 130.886 169.723C131.182 170.019 131.348 170.421 131.348 170.84V180.97" fill="white"/>
<path d="M102.838 180.97V170.84C102.838 170.421 103.005 170.019 103.301 169.723C103.597 169.426 103.999 169.26 104.418 169.26H129.768C130.187 169.26 130.589 169.426 130.886 169.723C131.182 170.019 131.348 170.421 131.348 170.84V180.97" stroke="#252B2D" stroke-width="1.5" stroke-linecap="round" stroke-linejoin="round"/>
<path d="M43.3083 49.03C42.621 48.1468 41.7415 47.432 40.7364 46.9399C39.7314 46.4478 38.6273 46.1913 37.5083 46.19C37.3083 46.19 37.0983 46.19 36.8983 46.19C31.8183 46.6 29.5483 52.86 32.8983 56.68L36.5883 60.84L43.4783 68.62L49.9683 61.09L53.5783 56.88C56.7583 53.25 54.8483 47.35 50.0783 46.57C49.6812 46.5095 49.28 46.4794 48.8783 46.48C47.8212 46.4801 46.7765 46.7079 45.8154 47.148C44.8542 47.588 43.9991 48.2299 43.3083 49.03Z" fill="#16A1DC"/>
<path d="M43.3083 49.03C42.621 48.1468 41.7415 47.432 40.7364 46.9399C39.7314 46.4478 38.6273 46.1913 37.5083 46.19C37.3083 46.19 37.0983 46.19 36.8983 46.19C31.8183 46.6 29.5483 52.86 32.8983 56.68L36.5883 60.84L43.4783 68.62L49.9683 61.09L53.5783 56.88C56.7583 53.25 54.8483 47.35 50.0783 46.57C49.6812 46.5095 49.28 46.4794 48.8783 46.48C47.8212 46.4801 46.7765 46.7079 45.8154 47.148C44.8542 47.588 43.9991 48.2299 43.3083 49.03" stroke="#16A1DC" stroke-width="1.5" stroke-linecap="round" stroke-linejoin="round"/>
<path d="M43.3083 82.46C42.6231 81.5739 41.7441 80.8563 40.7388 80.3623C39.7335 79.8683 38.6284 79.611 37.5083 79.61C37.3083 79.61 37.0983 79.61 36.8983 79.61C31.8183 80.02 29.5483 86.28 32.8983 90.1L36.6183 94.25L43.5083 102.03L49.9983 94.5L53.6083 90.29C56.7583 86.63 54.8483 80.73 50.0783 79.96C49.682 79.8911 49.2805 79.8577 48.8783 79.86C47.8201 79.8594 46.7743 80.0878 45.8128 80.5297C44.8513 80.9717 43.9969 81.6165 43.3083 82.42" fill="#16A1DC"/>
<path d="M43.3083 82.46C42.6231 81.5739 41.7441 80.8563 40.7388 80.3623C39.7335 79.8683 38.6284 79.611 37.5083 79.61C37.3083 79.61 37.0983 79.61 36.8983 79.61C31.8183 80.02 29.5483 86.28 32.8983 90.1L36.6183 94.25L43.5083 102.03L49.9983 94.5L53.6083 90.29C56.7583 86.63 54.8483 80.73 50.0783 79.96C49.682 79.8911 49.2805 79.8577 48.8783 79.86C47.8201 79.8594 46.7743 80.0878 45.8128 80.5297C44.8513 80.9717 43.9969 81.6165 43.3083 82.42" stroke="#16A1DC" stroke-width="1.5" stroke-linecap="round" stroke-linejoin="round"/>
<path d="M12.9985 64.51C12.3107 63.6249 11.4296 62.9089 10.4226 62.4167C9.41558 61.9244 8.30933 61.669 7.18846 61.67H6.58846C1.49846 62.09 -0.771543 68.34 2.58846 72.16L6.25846 76.34L13.1585 84.13L19.6385 76.59L23.2585 72.39C26.4085 68.72 24.4985 62.83 19.7285 62.05C19.3316 61.9861 18.9304 61.9527 18.5285 61.95C17.4705 61.9507 16.4251 62.1798 15.4638 62.6216C14.5025 63.0634 13.6479 63.7075 12.9585 64.51" fill="#16A1DC"/>
<path d="M12.9985 64.51C12.3107 63.6249 11.4296 62.9089 10.4226 62.4167C9.41558 61.9244 8.30933 61.669 7.18846 61.67H6.58846C1.49846 62.09 -0.771543 68.34 2.58846 72.16L6.25846 76.34L13.1585 84.13L19.6385 76.59L23.2585 72.39C26.4085 68.72 24.4985 62.83 19.7285 62.05C19.3316 61.9861 18.9304 61.9527 18.5285 61.95C17.4705 61.9507 16.4251 62.1798 15.4638 62.6216C14.5025 63.0634 13.6479 63.7075 12.9585 64.51" stroke="#16A1DC" stroke-width="1.5" stroke-linecap="round" stroke-linejoin="round"/>
<path d="M24.5186 66.2L35.2386 59.31" stroke="#16A1DC" stroke-width="1.5" stroke-linecap="round" stroke-linejoin="round"/>
<path d="M19.6782 76.59L31.3182 84.13" stroke="#16A1DC" stroke-width="1.5" stroke-linecap="round" stroke-linejoin="round"/>
</svg>
