<svg width="196" height="183" viewBox="0 0 196 183" fill="none" xmlns="http://www.w3.org/2000/svg">
<path d="M19.57 158.7H7.85996C7.74177 158.7 7.62474 158.723 7.51555 158.769C7.40635 158.814 7.30714 158.88 7.22356 158.964C7.13999 159.047 7.0737 159.146 7.02847 159.256C6.98324 159.365 6.95996 159.482 6.95996 159.6V169.79C6.95995 171.991 7.8324 174.103 9.38622 175.663C10.94 177.222 13.0486 178.102 15.25 178.11H50.14C51.0876 178.111 52.0263 177.926 52.9022 177.564C53.7781 177.202 54.5741 176.671 55.2447 176.002C55.9152 175.332 56.4472 174.537 56.8102 173.661C57.1731 172.786 57.36 171.848 57.36 170.9V131.74C57.36 131.621 57.3364 131.503 57.2905 131.393C57.2447 131.283 57.1775 131.184 57.0928 131.1C57.0082 131.016 56.9078 130.95 56.7974 130.906C56.6871 130.861 56.569 130.839 56.45 130.84H20.45C20.2113 130.84 19.9823 130.935 19.8136 131.104C19.6448 131.272 19.55 131.501 19.55 131.74V173.33C19.55 174.598 19.0464 175.814 18.1499 176.71C17.2535 177.606 16.0377 178.11 14.77 178.11" fill="white"/>
<path d="M19.57 158.7H7.85996C7.74177 158.7 7.62474 158.723 7.51555 158.769C7.40635 158.814 7.30714 158.88 7.22356 158.964C7.13999 159.047 7.0737 159.146 7.02847 159.256C6.98324 159.365 6.95996 159.482 6.95996 159.6V169.79C6.95995 171.991 7.8324 174.103 9.38622 175.663C10.94 177.222 13.0486 178.102 15.25 178.11H50.14C51.0876 178.111 52.0263 177.926 52.9022 177.564C53.7781 177.202 54.5741 176.671 55.2447 176.002C55.9152 175.332 56.4472 174.537 56.8102 173.661C57.1731 172.786 57.36 171.848 57.36 170.9V131.74C57.36 131.621 57.3364 131.503 57.2905 131.393C57.2447 131.283 57.1775 131.184 57.0928 131.1C57.0082 131.016 56.9078 130.95 56.7974 130.906C56.6871 130.861 56.569 130.839 56.45 130.84H20.45C20.2113 130.84 19.9823 130.935 19.8136 131.104C19.6448 131.272 19.55 131.501 19.55 131.74V173.33C19.55 174.598 19.0464 175.814 18.1499 176.71C17.2535 177.606 16.0377 178.11 14.77 178.11" stroke="#252B2D" stroke-width="1.5" stroke-linecap="round" stroke-linejoin="round"/>
<path d="M25.9702 154.99H46.5602" stroke="#252B2D" stroke-width="1.5" stroke-linecap="round" stroke-linejoin="round"/>
<path d="M25.9702 160.73H51.4902" stroke="#252B2D" stroke-width="1.5" stroke-linecap="round" stroke-linejoin="round"/>
<path d="M25.9702 166.46H51.4902" stroke="#252B2D" stroke-width="1.5" stroke-linecap="round" stroke-linejoin="round"/>
<path d="M25.9702 143.52H43.4102" stroke="#252B2D" stroke-width="1.5" stroke-linecap="round" stroke-linejoin="round"/>
<path d="M25.9702 149.25H44.4602" stroke="#252B2D" stroke-width="1.5" stroke-linecap="round" stroke-linejoin="round"/>
<path d="M10.9702 164.15H19.5702" stroke="#252B2D" stroke-width="1.5" stroke-linecap="round" stroke-linejoin="round"/>
<path d="M10.9702 169.89H19.5702" stroke="#252B2D" stroke-width="1.5" stroke-linecap="round" stroke-linejoin="round"/>
<path d="M25.9702 171.95H51.4902" stroke="#252B2D" stroke-width="1.5" stroke-linecap="round" stroke-linejoin="round"/>
<path d="M66.08 159.39C74.5465 159.39 81.41 152.527 81.41 144.06C81.41 135.593 74.5465 128.73 66.08 128.73C57.6135 128.73 50.75 135.593 50.75 144.06C50.75 152.527 57.6135 159.39 66.08 159.39Z" fill="white"/>
<path d="M117.06 6.18C115.564 4.25612 113.649 2.69927 111.46 1.62825C109.271 0.557217 106.867 0.00030568 104.43 0C103.99 0 103.55 0 103.11 0.05C92.0399 0.95 87.1099 14.56 94.4599 22.88L102.46 31.94L117.46 48.88L131.56 32.48L139.44 23.32C146.3 15.32 142.13 2.52 131.75 0.83C129.042 0.383553 126.265 0.641178 123.685 1.57811C121.105 2.51504 118.81 4.09978 117.02 6.18" fill="#16A1DC"/>
<path d="M109.7 16.08L110.23 12.15H126.58L126.05 16.08H120.16L117.65 33.7H113.09L115.6 16.08H109.7Z" fill="white"/>
<path d="M142.76 149.8L146.14 158.59L137.56 155L121.76 139.2C121.074 138.509 120.688 137.574 120.688 136.6C120.688 135.626 121.074 134.691 121.76 134V134C122.102 133.657 122.508 133.386 122.955 133.2C123.402 133.015 123.881 132.919 124.365 132.919C124.849 132.919 125.328 133.015 125.775 133.2C126.222 133.386 126.628 133.657 126.97 134L142.76 149.8Z" stroke="#16A1DC" stroke-width="1.5" stroke-linecap="round" stroke-linejoin="round"/>
<path d="M123.29 140.73L128.5 135.53" stroke="#16A1DC" stroke-width="1.5" stroke-linecap="round" stroke-linejoin="round"/>
<path d="M122.5 141.74L121.01 143.23L125.64 147.86" stroke="#16A1DC" stroke-width="1.5" stroke-linecap="round" stroke-linejoin="round"/>
<path d="M129.79 149.88L135.45 143.63C135.876 143.556 136.315 143.595 136.721 143.742C137.128 143.89 137.49 144.14 137.77 144.47C138.55 145.58 138.08 149.01 137.32 149.88C136.56 150.75 141.76 150.31 142.68 152.12C143.6 153.93 144.76 158.56 143.22 159.6C141.68 160.64 137.57 159.6 137.57 159.6L129.79 149.88Z" fill="white"/>
<path d="M146.36 94.16C147.398 94.16 148.24 93.3183 148.24 92.28C148.24 91.2417 147.398 90.4 146.36 90.4C145.322 90.4 144.48 91.2417 144.48 92.28C144.48 93.3183 145.322 94.16 146.36 94.16Z" fill="#252B2D"/>
<path d="M147.01 101.22C148.378 102.296 150.06 102.896 151.8 102.93C152.154 102.934 152.508 102.914 152.86 102.87" stroke="#252B2D" stroke-width="1.5" stroke-linecap="round" stroke-linejoin="round"/>
<path d="M127.85 90.5C126.429 90.5 125.065 91.0647 124.06 92.0699C123.055 93.0751 122.49 94.4384 122.49 95.86C122.49 97.2816 123.055 98.6449 124.06 99.6501C125.065 100.655 126.429 101.22 127.85 101.22" stroke="#252B2D" stroke-width="1.5" stroke-linecap="round" stroke-linejoin="round"/>
<path d="M127.42 94.15C126.968 94.2418 126.561 94.4871 126.269 94.8443C125.977 95.2015 125.818 95.6487 125.818 96.11C125.818 96.5714 125.977 97.0185 126.269 97.3757C126.561 97.7329 126.968 97.9782 127.42 98.07" stroke="#252B2D" stroke-width="1.5" stroke-linecap="round" stroke-linejoin="round"/>
<path d="M146.71 87.92C146.396 87.657 146.018 87.4808 145.615 87.4089C145.211 87.337 144.796 87.3718 144.41 87.51C144.064 87.6334 143.751 87.8373 143.499 88.1051C143.247 88.3729 143.062 88.6967 142.96 89.05" stroke="#252B2D" stroke-width="1.5" stroke-linecap="round" stroke-linejoin="round"/>
<path d="M127.42 89.58C127.42 89.58 142.53 94.76 145.82 77.44" stroke="#252B2D" stroke-width="1.5" stroke-linecap="round" stroke-linejoin="round"/>
<path d="M125.46 100.66C125.46 100.66 143.7 113.59 136.99 124.38C136.049 125.814 134.795 127.016 133.323 127.896C131.851 128.776 130.199 129.31 128.49 129.46C123.7 129.97 115.33 129 109.49 127.29C92.42 122.29 103.73 99.19 109.99 85.1C115.99 71.67 133.76 73.23 133.76 73.23C139.084 73.2389 144.208 75.2612 148.103 78.891C151.998 82.5209 154.376 87.4896 154.76 92.8C156.33 95.49 157.36 95.67 157.36 96.96C157.36 97.266 157.3 97.569 157.183 97.8517C157.066 98.1343 156.894 98.3912 156.678 98.6076C156.461 98.8239 156.204 98.9955 155.922 99.1126C155.639 99.2297 155.336 99.29 155.03 99.29C154.767 99.2899 154.506 99.2425 154.26 99.15C153.328 103.123 151.264 106.741 148.318 109.565C145.371 112.389 141.669 114.297 137.66 115.06" stroke="#252B2D" stroke-width="1.5" stroke-linecap="round" stroke-linejoin="round"/>
<path d="M118.74 75.94C118.74 75.94 120.85 72.75 119.42 70.01C117.99 67.27 110.49 62.64 105.25 72.01C100.01 81.38 105.49 84.73 111.25 82.71" stroke="#252B2D" stroke-width="1.5" stroke-linecap="round" stroke-linejoin="round"/>
<path d="M117.9 80.72C118.09 82.2725 118.641 83.7588 119.509 85.0597C120.377 86.3605 121.539 87.4395 122.9 88.21" stroke="#252B2D" stroke-width="1.5" stroke-linecap="round" stroke-linejoin="round"/>
<path d="M114.8 83.88C114.8 83.88 113.55 90.31 118.74 94.33" stroke="#252B2D" stroke-width="1.5" stroke-linecap="round" stroke-linejoin="round"/>
<path d="M108.19 144.84H94.1602" stroke="#252B2D" stroke-width="1.5" stroke-linecap="round" stroke-linejoin="round"/>
<path d="M150.15 133.77V161.27" stroke="#252B2D" stroke-width="1.5" stroke-linecap="round" stroke-linejoin="round"/>
<path d="M150.15 142.28L167.07 161.27" stroke="#252B2D" stroke-width="1.5" stroke-linecap="round" stroke-linejoin="round"/>
<path d="M157.63 150.19L169.46 139.02" stroke="#252B2D" stroke-width="1.5" stroke-linecap="round" stroke-linejoin="round"/>
<path d="M104.12 124.21C101.468 124.21 98.9244 125.264 97.0491 127.139C95.1737 129.014 94.1201 131.558 94.1201 134.21V155.09C94.1188 155.907 94.2788 156.717 94.5909 157.472C94.903 158.227 95.3611 158.913 95.939 159.491C96.5168 160.069 97.203 160.527 97.9583 160.839C98.7135 161.151 99.5229 161.311 100.34 161.31H138.49C139.928 161.31 141.306 160.739 142.323 159.723C143.339 158.706 143.91 157.327 143.91 155.89V155.89C143.91 154.452 143.339 153.072 142.323 152.054C141.307 151.036 139.929 150.463 138.49 150.46H136.49L138.04 148.24C138.49 147.701 138.709 147.006 138.647 146.307C138.585 145.607 138.248 144.961 137.71 144.51V144.51C137.17 144.062 136.476 143.846 135.777 143.908C135.079 143.969 134.433 144.304 133.98 144.84L129.44 150.27L129.34 150.46H108.19V138.53" stroke="#252B2D" stroke-width="1.5" stroke-linecap="round" stroke-linejoin="round"/>
<path d="M183.73 159.07L165.57 132.52C164.018 129.979 161.839 127.881 159.242 126.426C156.645 124.97 153.717 124.207 150.74 124.21H136.99" stroke="#252B2D" stroke-width="1.5" stroke-linecap="round" stroke-linejoin="round"/>
<path d="M180.83 156.07H182.96C184.286 156.07 185.558 156.597 186.496 157.534C187.433 158.472 187.96 159.744 187.96 161.07H175.79C175.79 159.744 176.317 158.472 177.255 157.534C178.192 156.597 179.464 156.07 180.79 156.07H180.83Z" fill="white" stroke="#252B2D" stroke-width="1.5" stroke-linecap="round" stroke-linejoin="round"/>
<path d="M87.8501 161.28H190.42C190.928 161.28 191.432 161.38 191.901 161.575C192.371 161.769 192.797 162.054 193.157 162.414C193.516 162.773 193.801 163.2 193.996 163.669C194.19 164.139 194.29 164.642 194.29 165.15" stroke="#252B2D" stroke-width="1.5" stroke-linecap="round" stroke-linejoin="round"/>
<path d="M90.46 120.24V104.21" stroke="#252B2D" stroke-width="1.5" stroke-linecap="round" stroke-linejoin="round"/>
<path d="M79.4102 50.36C90.4102 44.89 86.9902 29.29 86.9902 29.29C81.4902 5.77002 55.6002 10.37 55.6002 10.37C41.9702 12.37 35.2002 21.94 34.3902 33.27C32.7602 36.06 31.6802 36.27 31.6802 37.58C31.6828 38.221 31.9386 38.835 32.3919 39.2883C32.8451 39.7416 33.4591 39.9974 34.1002 40C34.3735 39.9965 34.6441 39.9458 34.9002 39.85C35.2861 41.1753 35.7811 42.4664 36.3802 43.71C36.7431 43.7342 37.1072 43.7342 37.4702 43.71C39.2841 43.6842 41.04 43.0661 42.4702 41.95C42.4702 41.95 44.6202 47.78 40.6602 50.32C43.7468 53.4961 47.7704 55.599 52.1402 56.32L56.3302 56.71V65.79H45.1302C42.0451 65.7877 39.0113 66.5784 36.3198 68.0861C33.6283 69.5938 31.3695 71.768 29.7602 74.4L21.6602 91V72.65H10.6602V98.51C10.6588 99.902 10.9317 101.281 11.4632 102.567C11.9947 103.854 12.7744 105.023 13.7578 106.008C14.7411 106.994 15.9089 107.775 17.1945 108.309C18.48 108.843 19.8581 109.119 21.2502 109.12C22.9876 109.119 24.6982 108.691 26.2311 107.873C27.764 107.055 29.0722 105.873 30.0402 104.43L41.1602 88V130.21" fill="white"/>
<path d="M79.4102 50.36C90.4102 44.89 86.9902 29.29 86.9902 29.29C81.4902 5.77002 55.6002 10.37 55.6002 10.37C41.9702 12.37 35.2002 21.94 34.3902 33.27C32.7602 36.06 31.6802 36.27 31.6802 37.58C31.6828 38.221 31.9386 38.835 32.3919 39.2883C32.8451 39.7416 33.4591 39.9974 34.1002 40C34.3735 39.9965 34.6441 39.9458 34.9002 39.85C35.2861 41.1753 35.7811 42.4664 36.3802 43.71C36.7431 43.7342 37.1072 43.7342 37.4702 43.71C39.2841 43.6842 41.04 43.0661 42.4702 41.95C42.4702 41.95 44.6202 47.78 40.6602 50.32C43.7468 53.4961 47.7704 55.599 52.1402 56.32L56.3302 56.71V65.79H45.1302C42.0451 65.7877 39.0113 66.5784 36.3198 68.0861C33.6283 69.5938 31.3695 71.768 29.7602 74.4L21.6602 91V72.65H10.6602V98.51C10.6588 99.902 10.9317 101.281 11.4632 102.567C11.9947 103.854 12.7744 105.023 13.7578 106.008C14.7411 106.994 15.9089 107.775 17.1945 108.309C18.48 108.843 19.8581 109.119 21.2502 109.12V109.12C22.9876 109.119 24.6982 108.691 26.2311 107.873C27.764 107.055 29.0722 105.873 30.0402 104.43L41.1602 88V130.21" stroke="#252B2D" stroke-width="1.5" stroke-linecap="round" stroke-linejoin="round"/>
<path d="M20.36 64.31V69.77C20.36 70.5003 20.0706 71.2008 19.5551 71.7181C19.0397 72.2354 18.3402 72.5274 17.61 72.53H13.73" fill="white"/>
<path d="M20.36 64.31V69.77C20.36 70.5003 20.0706 71.2008 19.5551 71.7181C19.0397 72.2354 18.3402 72.5274 17.61 72.53H13.73" stroke="#252B2D" stroke-width="1.5" stroke-linecap="round" stroke-linejoin="round"/>
<path d="M41.1602 32.73C41.1954 33.2217 41.4157 33.6819 41.7766 34.0178C42.1374 34.3537 42.6121 34.5404 43.1052 34.5404C43.5982 34.5404 44.0729 34.3537 44.4338 34.0178C44.7946 33.6819 45.0149 33.2217 45.0502 32.73" stroke="#252B2D" stroke-width="1.5" stroke-linecap="round" stroke-linejoin="round"/>
<path d="M62.25 30.89C63.6825 30.9508 65.0361 31.5626 66.0283 32.5978C67.0204 33.6329 67.5743 35.0112 67.5743 36.445C67.5743 37.8788 67.0204 39.2572 66.0283 40.2923C65.0361 41.3274 63.6825 41.9392 62.25 42" stroke="#252B2D" stroke-width="1.5" stroke-linecap="round" stroke-linejoin="round"/>
<path d="M62.73 34.67C63.2684 34.67 63.7847 34.8839 64.1654 35.2646C64.5461 35.6453 64.76 36.1616 64.76 36.7C64.76 37.2384 64.5461 37.7547 64.1654 38.1354C63.7847 38.5161 63.2684 38.73 62.73 38.73" stroke="#252B2D" stroke-width="1.5" stroke-linecap="round" stroke-linejoin="round"/>
<path d="M42.7402 28.22C43.0481 27.9587 43.4164 27.7786 43.8117 27.696C44.207 27.6135 44.6166 27.6312 45.0033 27.7475C45.39 27.8638 45.7414 28.075 46.0256 28.3619C46.3097 28.6488 46.5176 29.0022 46.6302 29.39" stroke="#252B2D" stroke-width="1.5" stroke-linecap="round" stroke-linejoin="round"/>
<path d="M45.0498 15.11C46.6298 35.87 63.7498 30.53 63.7498 30.53" stroke="#252B2D" stroke-width="1.5" stroke-linecap="round" stroke-linejoin="round"/>
<path d="M69.2998 92V75.72H47.5898V94.01" stroke="#16A1DC" stroke-width="1.5" stroke-linecap="round" stroke-linejoin="round"/>
<path d="M75.21 92V71.34H53.5V75.72" stroke="#16A1DC" stroke-width="1.5" stroke-linecap="round" stroke-linejoin="round"/>
<path d="M4.43993 78.53C4.15571 78.2883 3.92228 77.9926 3.75316 77.66C3.58403 77.3275 3.48258 76.9647 3.45468 76.5926C3.42677 76.2206 3.47297 75.8467 3.5906 75.4926C3.70823 75.1386 3.89494 74.8114 4.13993 74.53L16.8199 59.91L21.0999 63.59L8.42993 78.23C8.18835 78.5127 7.89323 78.7449 7.56156 78.9131C7.22988 79.0814 6.86821 79.1823 6.49736 79.2102C6.1265 79.2381 5.7538 79.1923 5.4007 79.0756C5.0476 78.9589 4.72108 78.7734 4.43993 78.53Z" fill="#16A1DC" stroke="#16A1DC" stroke-width="1.5" stroke-linecap="round" stroke-linejoin="round"/>
<path d="M24.1599 63.99C28.7328 63.99 32.4399 60.2829 32.4399 55.71C32.4399 51.1371 28.7328 47.43 24.1599 47.43C19.587 47.43 15.8799 51.1371 15.8799 55.71C15.8799 60.2829 19.587 63.99 24.1599 63.99Z" fill="white" stroke="#16A1DC" stroke-width="1.5" stroke-linecap="round" stroke-linejoin="round"/>
<path d="M5.43088 65.9076L10.3702 60.9475C10.8437 60.4721 11.4867 60.2042 12.1577 60.2028C12.8287 60.2014 13.4727 60.4666 13.9482 60.94L14.7489 61.7374C15.8765 62.8602 16.5118 64.385 16.5151 65.9763C16.5185 67.5676 15.8895 69.0951 14.7667 70.2227C13.6438 71.3502 12.119 71.9856 10.5277 71.9889C8.93643 71.9922 7.40899 71.3633 6.28142 70.2404L5.47362 69.436C5.00837 68.9693 4.74359 68.3395 4.73561 67.6805C4.72763 67.0215 4.97707 66.3855 5.43088 65.9076Z" fill="white" stroke="#252B2D" stroke-width="1.5" stroke-linecap="round" stroke-linejoin="round"/>
<path d="M4.25 78.35L1 81.57" stroke="#16A1DC" stroke-width="1.5" stroke-linecap="round" stroke-linejoin="round"/>
<path d="M79.4099 50.36H72.9298C72.5925 50.3614 72.2583 50.2953 71.9469 50.1656C71.6355 50.036 71.3531 49.8453 71.1165 49.605C70.8798 49.3646 70.6936 49.0793 70.5688 48.7659C70.444 48.4525 70.3832 48.1173 70.3898 47.78C70.4498 45.06 70.1198 40.87 67.8398 38.73" fill="white"/>
<path d="M79.4099 50.36H72.9298C72.5925 50.3614 72.2583 50.2953 71.9469 50.1656C71.6355 50.036 71.3531 49.8453 71.1165 49.605C70.8798 49.3646 70.6936 49.0793 70.5688 48.7659C70.444 48.4525 70.3832 48.1173 70.3898 47.78C70.4498 45.06 70.1198 40.87 67.8398 38.73" stroke="#252B2D" stroke-width="1.5" stroke-linecap="round" stroke-linejoin="round"/>
<path d="M56.25 60.66C56.25 60.66 67.58 65.66 79.37 60.66" stroke="#252B2D" stroke-width="1.5" stroke-linecap="round" stroke-linejoin="round"/>
<path d="M82.6599 80.65V93H60.6599L60.5599 92.8L55.8499 87.18C55.3831 86.623 54.7142 86.2743 53.9903 86.2106C53.2664 86.1468 52.5468 86.3732 51.9899 86.84V86.84C51.713 87.0703 51.4844 87.3532 51.3173 87.6723C51.1502 87.9914 51.0479 88.3404 51.0163 88.6992C50.9847 89.058 51.0244 89.4195 51.1331 89.7629C51.2419 90.1063 51.4175 90.4248 51.6499 90.7L53.2499 93H51.2499C49.7594 93 48.3299 93.5921 47.2759 94.646C46.222 95.7 45.6299 97.1295 45.6299 98.62C45.6378 100.105 46.2334 101.527 47.2865 102.575C48.3396 103.622 49.7645 104.21 51.2499 104.21H90.7499C91.5956 104.21 92.433 104.043 93.2144 103.72C93.9957 103.396 94.7056 102.922 95.3036 102.324C95.9017 101.726 96.376 101.016 96.6997 100.234C97.0233 99.4531 97.1899 98.6157 97.1899 97.77V76.13C97.1899 73.3929 96.1026 70.768 94.1672 68.8326C92.2318 66.8973 89.6069 65.81 86.8699 65.81H79.4099V50.36" stroke="#252B2D" stroke-width="1.5" stroke-linecap="round" stroke-linejoin="round"/>
<path d="M64.7598 104.05V92.97" stroke="#252B2D" stroke-width="1.5" stroke-linecap="round" stroke-linejoin="round"/>
<path d="M55.25 17.64C55.25 17.64 57.67 24.28 63.77 24.28" stroke="#252B2D" stroke-width="1.5" stroke-linecap="round" stroke-linejoin="round"/>
<path d="M174.71 51.65C174.716 49.7578 174.259 47.8929 173.378 46.218C172.498 44.543 171.221 43.1088 169.659 42.0405C168.098 40.9722 166.298 40.3022 164.418 40.0889C162.538 39.8755 160.634 40.1254 158.873 40.8166C157.111 41.5078 155.546 42.6195 154.312 44.0546C153.079 45.4897 152.216 47.2048 151.797 49.0502C151.379 50.8955 151.418 52.8153 151.912 54.6419C152.406 56.4686 153.339 58.1467 154.63 59.53H154.57V66.13C154.569 66.8859 154.717 67.6347 155.005 68.3335C155.293 69.0323 155.717 69.6673 156.251 70.2023C156.785 70.7373 157.419 71.1618 158.117 71.4513C158.816 71.7409 159.564 71.89 160.32 71.89H165.9C167.426 71.8873 168.889 71.2793 169.967 70.1994C171.045 69.1195 171.65 67.6559 171.65 66.13V59.53H171.58C173.586 57.3957 174.705 54.5787 174.71 51.65V51.65Z" stroke="#16A1DC" stroke-width="1.5" stroke-linecap="round" stroke-linejoin="round"/>
<path d="M163.11 75.9C162.732 75.8987 162.357 75.8225 162.008 75.6758C161.659 75.5291 161.342 75.3148 161.077 75.0453C160.811 74.7757 160.601 74.4562 160.459 74.1052C160.317 73.7542 160.246 73.3786 160.25 73V71.89H165.99V73C165.994 73.3803 165.922 73.7575 165.779 74.1099C165.636 74.4622 165.425 74.7826 165.157 75.0524C164.889 75.3222 164.57 75.5361 164.219 75.6816C163.867 75.8271 163.49 75.9014 163.11 75.9Z" fill="#16A1DC" stroke="#16A1DC" stroke-width="1.5" stroke-linecap="round" stroke-linejoin="round"/>
<path d="M155.08 67.6H171.14" stroke="#16A1DC" stroke-width="1.5" stroke-linecap="round" stroke-linejoin="round"/>
<path d="M171.54 63.96H154.68" stroke="#16A1DC" stroke-width="1.5" stroke-linecap="round" stroke-linejoin="round"/>
<path d="M167.56 50.09L163.11 59.19V59.11L158.66 50.02" stroke="#16A1DC" stroke-width="1.5" stroke-linecap="round" stroke-linejoin="round"/>
<path d="M149.18 40.05L142.9 37.89" stroke="#16A1DC" stroke-width="1.5" stroke-linecap="round" stroke-linejoin="round"/>
<path d="M155.13 35.58L151.58 29.36" stroke="#16A1DC" stroke-width="1.5" stroke-linecap="round" stroke-linejoin="round"/>
<path d="M177.22 40.05L183.5 37.89" stroke="#16A1DC" stroke-width="1.5" stroke-linecap="round" stroke-linejoin="round"/>
<path d="M171.27 35.58L174.82 29.36" stroke="#16A1DC" stroke-width="1.5" stroke-linecap="round" stroke-linejoin="round"/>
<path d="M163.11 32.86V25.87" stroke="#16A1DC" stroke-width="1.5" stroke-linecap="round" stroke-linejoin="round"/>
<path d="M79.2502 132.35C76.8354 129.732 73.6982 127.889 70.2357 127.055C66.7731 126.22 63.1409 126.432 59.7987 127.663C56.4565 128.894 53.5545 131.088 51.4601 133.969C49.3657 136.85 48.173 140.287 48.033 143.846C47.8929 147.405 48.8118 150.925 50.6733 153.962C52.5349 156.998 55.2554 159.414 58.4905 160.904C61.7257 162.394 65.33 162.89 68.8474 162.33C72.3648 161.771 75.6371 160.18 78.2502 157.76C81.7479 154.52 83.8176 150.026 84.0051 145.262C84.1926 140.498 82.4825 135.854 79.2502 132.35ZM76.2502 155.59C74.0637 157.59 71.3337 158.898 68.4047 159.348C65.4757 159.798 62.479 159.371 59.7927 158.12C57.1064 156.869 54.8509 154.85 53.3107 152.318C51.7705 149.787 51.0148 146.855 51.1388 143.895C51.2628 140.934 52.261 138.076 54.0075 135.682C55.7539 133.288 58.1704 131.465 60.9519 130.443C63.7334 129.421 66.7554 129.245 69.6364 129.939C72.5175 130.633 75.1286 132.164 77.1402 134.34C78.4818 135.791 79.5234 137.493 80.2051 139.349C80.8868 141.204 81.1952 143.175 81.1125 145.15C81.0298 147.125 80.5577 149.064 79.7232 150.855C78.8888 152.647 77.7085 154.256 76.2502 155.59Z" fill="white" stroke="#16A1DC" stroke-width="1.5" stroke-linecap="round" stroke-linejoin="round"/>
<path d="M55.0998 147.07C54.6985 145.205 54.7707 143.27 55.3098 141.44" stroke="#16A1DC" stroke-width="1.5" stroke-linecap="round" stroke-linejoin="round"/>
<path d="M73.8301 153C71.6187 155.031 68.6915 156.102 65.6914 155.976C62.6914 155.85 59.8639 154.539 57.8301 152.33" stroke="#16A1DC" stroke-width="1.5" stroke-linecap="round" stroke-linejoin="round"/>
<path d="M81.9218 158.778L78.9033 161.553C78.0169 162.368 77.9589 163.747 78.7736 164.633L92.762 179.851C93.5768 180.737 94.9559 180.795 95.8423 179.981L98.8608 177.206C99.7471 176.391 99.8052 175.012 98.9904 174.126L85.002 158.908C84.1872 158.022 82.8082 157.964 81.9218 158.778Z" fill="white" stroke="#16A1DC" stroke-width="1.5" stroke-linecap="round" stroke-linejoin="round"/>
<path d="M78.9102 161.55L76.7002 159.14" stroke="#16A1DC" stroke-width="1.5" stroke-linecap="round" stroke-linejoin="round"/>
<path d="M82.19 158.54L79.98 156.13" stroke="#16A1DC" stroke-width="1.5" stroke-linecap="round" stroke-linejoin="round"/>
</svg>
