<svg width="243" height="101" viewBox="0 0 243 101" fill="none" xmlns="http://www.w3.org/2000/svg">
<g clip-path="url(#clip0)">
<path d="M139.621 13.5802C137.082 10.3095 133.829 7.66263 130.111 5.84201C126.392 4.02138 122.306 3.07523 118.166 3.07593C117.414 3.07593 116.672 3.07593 115.931 3.16861C97.1225 4.69276 88.7176 27.8124 101.232 41.9313L114.859 57.3169L140.362 86.152L164.331 58.2952L177.721 42.7448C189.36 29.1408 182.284 7.33941 164.64 4.48679C160.04 3.73016 155.322 4.16918 150.941 5.76166C146.559 7.35414 142.661 10.0466 139.621 13.5802Z" fill="white"/>
<path d="M139.621 13.5802C137.082 10.3095 133.829 7.66263 130.111 5.84201C126.392 4.02138 122.306 3.07523 118.166 3.07593C117.414 3.07593 116.672 3.07593 115.931 3.16861C97.1225 4.69276 88.7176 27.8124 101.232 41.9313L114.859 57.3169L140.362 86.152L164.331 58.2952L177.721 42.7448C189.36 29.1408 182.284 7.33941 164.64 4.48679C160.04 3.73016 155.322 4.16918 150.941 5.76166C146.559 7.35414 142.661 10.0466 139.621 13.5802" stroke="#16A1DC" stroke-width="1.5" stroke-miterlimit="10" stroke-linecap="round"/>
<path d="M203.561 31.0654C202.838 31.625 202.235 32.3255 201.789 33.1248C201.344 33.9241 201.065 34.8054 200.969 35.7157C200.873 36.6259 200.963 37.5462 201.232 38.4209C201.501 39.2955 201.945 40.1065 202.536 40.8047L202.454 40.8868C201.161 39.7928 199.505 39.2248 197.813 39.2951C196.122 39.3654 194.519 40.069 193.321 41.2666C192.125 42.4659 191.422 44.0712 191.352 45.7647C191.282 47.4581 191.849 49.1162 192.942 50.4107L192.86 50.5031C191.566 49.413 189.911 48.8482 188.222 48.9203C186.533 48.9924 184.932 49.6961 183.736 50.8925C182.54 52.0888 181.835 53.6908 181.761 55.382C181.687 57.0732 182.25 58.7306 183.337 60.0269L161.227 37.9927C160.055 36.7669 158.473 36.0154 156.784 35.881C155.094 35.7467 153.414 36.2389 152.063 37.2641C151.341 37.8517 150.749 38.5848 150.328 39.4159C149.906 40.247 149.664 41.1576 149.617 42.0885C149.569 43.0194 149.718 43.9499 150.053 44.8196C150.388 45.6893 150.902 46.4788 151.561 47.1369L173.876 69.4481L178.632 74.2101L184.731 80.3677H168.044C166.18 80.3277 164.368 80.9748 162.95 82.1859C161.533 83.397 160.609 85.0875 160.356 86.9359C160.253 87.9531 160.364 88.9807 160.682 89.9523C161 90.9238 161.519 91.8176 162.204 92.576C162.889 93.3343 163.725 93.9403 164.658 94.3548C165.592 94.7692 166.602 94.9828 167.623 94.9819H192.88C196.699 94.9199 200.487 95.6612 204.002 97.1576C209.451 99.5791 215.547 100.13 221.342 98.7253C227.136 97.3204 232.305 94.0381 236.044 89.3887C244.829 78.5307 243.332 62.5721 233.461 52.6993L223.805 43.0318L219.162 38.3725L212.725 31.8967C211.552 30.6789 209.98 29.9247 208.298 29.772C206.615 29.6194 204.933 30.0785 203.561 31.0654Z" fill="white" stroke="#2E2A26" stroke-width="1.5" stroke-linecap="round" stroke-linejoin="round"/>
<path d="M183.423 59.4866L190.596 66.666" stroke="#2E2A26" stroke-width="1.5" stroke-linecap="round" stroke-linejoin="round"/>
<path d="M192.646 50.2559L199.819 57.4353" stroke="#2E2A26" stroke-width="1.5" stroke-linecap="round" stroke-linejoin="round"/>
<path d="M201.868 41.0253L209.041 48.2047" stroke="#2E2A26" stroke-width="1.5" stroke-linecap="round" stroke-linejoin="round"/>
<path d="M98.6494 17.5054L50.6807 12.7596C48.1577 12.51 45.9121 14.3386 45.6651 16.8439L38.5103 89.4252C38.2634 91.9306 40.1085 94.1639 42.6316 94.4136L90.6002 99.1594C93.1233 99.409 95.3689 97.5804 95.6159 95.075L102.771 22.4937C103.018 19.9884 101.172 17.755 98.6494 17.5054Z" fill="white" stroke="#2E2A26" stroke-width="1.5" stroke-linecap="round" stroke-linejoin="round"/>
<path d="M88.6983 35.2982L56.6221 32.1247C54.7792 31.9424 53.1389 33.278 52.9585 35.1079L49.2854 72.3702C49.105 74.2001 50.4528 75.8314 52.2957 76.0137L84.3719 79.1872C86.2149 79.3695 87.8551 78.0339 88.0355 76.204L91.7087 38.9417C91.8891 37.1118 90.5413 35.4805 88.6983 35.2982Z" stroke="#16A1DC" stroke-width="1.5" stroke-linecap="round" stroke-linejoin="round"/>
<path d="M55.3345 76.4406L56.367 65.5716C56.4536 64.6895 56.7122 63.8332 57.128 63.0516C57.5439 62.27 58.1088 61.5784 58.7906 61.0164C59.4723 60.4544 60.2575 60.0329 61.1014 59.7761C61.9452 59.5192 62.8311 59.432 63.7084 59.5195L75.9234 60.7237C76.8018 60.8107 77.6544 61.071 78.4326 61.4898C79.2107 61.9085 79.8991 62.4774 80.4582 63.164C81.0174 63.8505 81.4364 64.6412 81.6912 65.4908C81.946 66.3404 82.0316 67.2321 81.9432 68.115L80.9106 78.9736" stroke="#16A1DC" stroke-width="1.5" stroke-linecap="round" stroke-linejoin="round"/>
<path d="M70.7051 60.5122C76.3644 60.5122 80.9522 55.9203 80.9522 50.2559C80.9522 44.5915 76.3644 39.9996 70.7051 39.9996C65.0458 39.9996 60.458 44.5915 60.458 50.2559C60.458 55.9203 65.0458 60.5122 70.7051 60.5122Z" stroke="#16A1DC" stroke-width="1.5" stroke-linecap="round" stroke-linejoin="round"/>
<path d="M52.2603 82.0505L83.0016 85.1264" stroke="#16A1DC" stroke-width="1.5" stroke-linecap="round" stroke-linejoin="round"/>
<path d="M51.2358 87.1786L81.9772 90.2545" stroke="#16A1DC" stroke-width="1.5" stroke-linecap="round" stroke-linejoin="round"/>
<path d="M84.9468 21.6056L63.5322 19.4869L62.8279 26.6317L84.2425 28.7503L84.9468 21.6056Z" stroke="#2E2A26" stroke-width="1.5" stroke-linecap="round" stroke-linejoin="round"/>
<path d="M72.8926 0.317676L77.6565 0.788847C78.5161 0.873873 79.3048 1.31801 79.8491 2.02354C80.3933 2.72908 80.6485 3.63822 80.5585 4.55097L78.8854 21.5188C78.8052 22.332 78.424 23.0817 77.8258 23.6032C77.2275 24.1246 76.4611 24.375 75.6952 24.2993L70.2536 23.7611C69.4877 23.6853 68.7851 23.2896 68.3002 22.6611C67.8153 22.0325 67.588 21.2225 67.6682 20.4093L69.3464 3.38939C69.4478 2.49236 69.8755 1.66892 70.5381 1.09497C71.2007 0.521016 72.0457 0.242055 72.8926 0.317676Z" fill="white" stroke="#2E2A26" stroke-width="1.5" stroke-linecap="round" stroke-linejoin="round"/>
<path d="M1.78578 67.7509C2.18295 68.1963 2.42889 68.7566 2.48819 69.351C2.54748 69.9455 2.41708 70.5435 2.11574 71.0589L1.37334 72.3615C1.17782 72.7113 1.05805 73.0985 1.02184 73.4979C0.985636 73.8973 1.0338 74.2998 1.1632 74.6792C1.2926 75.0587 1.50033 75.4065 1.77283 75.7C2.04534 75.9936 2.3765 76.2262 2.74473 76.3828L4.08518 76.9721C4.63331 77.197 5.09778 77.5878 5.41384 78.09C5.7299 78.5922 5.88181 79.1807 5.8484 79.7736L5.73497 81.2208C5.70444 81.626 5.76121 82.033 5.90143 82.4142C6.04165 82.7955 6.26204 83.142 6.54764 83.4303C6.83324 83.7186 7.17736 83.9419 7.55665 84.0851C7.93594 84.2282 8.34151 84.2879 8.74584 84.2601L10.2203 84.167C10.8143 84.1263 11.4057 84.2769 11.9083 84.5967C12.411 84.9165 12.7986 85.389 13.0147 85.9451L13.5612 87.3304C13.7138 87.7053 13.9435 88.0439 14.2354 88.324C14.5272 88.604 14.8746 88.8193 15.2549 88.9559C15.6353 89.0924 16.04 89.1471 16.4428 89.1164C16.8456 89.0857 17.2375 88.9702 17.5929 88.7776L18.9127 88.0747C19.4372 87.7891 20.0371 87.6735 20.6299 87.7439C21.2226 87.8142 21.7791 88.067 22.2226 88.4675L23.2537 89.5013C23.5522 89.7776 23.9065 89.9864 24.2926 90.1135C24.6786 90.2406 25.0874 90.2831 25.4912 90.238C25.8951 90.1929 26.2845 90.0613 26.6332 89.8522C26.9819 89.643 27.2817 89.3612 27.5122 89.0257L28.3681 87.8059C28.7149 87.3354 29.1981 86.9837 29.7517 86.7986C30.3053 86.6136 30.9024 86.6044 31.4614 86.7721L32.8844 87.196C33.271 87.3167 33.6791 87.3524 34.0807 87.3006C34.4823 87.2488 34.8681 87.1108 35.2117 86.8959C35.5552 86.6809 35.8485 86.3942 36.0715 86.0553C36.2944 85.7164 36.4418 85.3333 36.5036 84.932L36.7717 83.4744C36.861 82.8685 37.1431 82.3078 37.576 81.8756C38.0089 81.4435 38.5695 81.1631 39.1742 81.0761L40.6281 80.828C41.0271 80.7629 41.408 80.6141 41.7458 80.3915C42.0837 80.1689 42.3709 79.8774 42.5888 79.536C42.8068 79.1946 42.9505 78.811 43.0106 78.4102C43.0707 78.0094 43.0459 77.6004 42.9378 77.2098L42.546 75.8142C42.3913 75.2442 42.4164 74.6402 42.6176 74.085C42.8188 73.5298 43.1864 73.0505 43.6699 72.713L44.866 71.8756C45.2042 71.6442 45.4889 71.3425 45.7006 70.991C45.9124 70.6396 46.0462 70.2466 46.0932 69.8387C46.1401 69.4309 46.099 69.0176 45.9727 68.6271C45.8463 68.2365 45.6377 67.8778 45.3609 67.5752L44.3814 66.5414C43.9872 66.0941 43.7441 65.5334 43.6867 64.9393C43.6293 64.3453 43.7606 63.7482 44.0617 63.2334L44.8041 61.9308C44.998 61.5806 45.1164 61.1936 45.1518 60.7946C45.1872 60.3957 45.1387 59.9937 45.0094 59.6147C44.8802 59.2358 44.6731 58.8882 44.4015 58.5945C44.1299 58.3007 43.7999 58.0674 43.4327 57.9095L42.0923 57.3202C41.5423 57.0979 41.076 56.7077 40.7596 56.2049C40.4431 55.702 40.2925 55.1122 40.329 54.5188L40.4425 53.0715C40.4714 52.6658 40.4132 52.2586 40.2718 51.8774C40.1304 51.4962 39.909 51.1498 39.6226 50.8617C39.3362 50.5736 38.9915 50.3505 38.6118 50.2074C38.232 50.0643 37.826 50.0046 37.4213 50.0322L35.9468 50.1253C35.3552 50.1677 34.7656 50.019 34.2645 49.7008C33.7635 49.3827 33.3773 48.9119 33.1628 48.3575L32.6163 46.9723C32.4636 46.5973 32.2339 46.2588 31.9421 45.9787C31.6502 45.6986 31.3029 45.4833 30.9225 45.3468C30.5422 45.2103 30.1374 45.1556 29.7346 45.1863C29.3318 45.217 28.94 45.3324 28.5846 45.525L27.1101 46.2383C26.5856 46.5239 25.9856 46.6395 25.3929 46.5691C24.8002 46.4988 24.2437 46.246 23.8002 45.8455L22.7691 44.8117C22.4686 44.5464 22.1155 44.3478 21.733 44.2292C21.3505 44.1105 20.9473 44.0744 20.5498 44.1232C20.1524 44.1721 19.7698 44.3047 19.4272 44.5125C19.0846 44.7202 18.7898 44.9984 18.5621 45.3286L17.7166 46.5484C17.3688 47.0178 16.8855 47.3686 16.3322 47.5535C15.7789 47.7384 15.1824 47.7484 14.6232 47.5822L13.1693 47.1687C12.7827 47.0498 12.3751 47.0154 11.9741 47.068C11.5731 47.1206 11.188 47.2588 10.8449 47.4735C10.5018 47.6881 10.2087 47.9741 9.98528 48.3121C9.7619 48.6501 9.6135 49.0322 9.55012 49.4326L9.27172 50.8902C9.17146 51.4819 8.88705 52.0265 8.45919 52.4462C8.03134 52.8658 7.48199 53.139 6.88983 53.2266L5.42564 53.4747C5.02808 53.5428 4.64909 53.6934 4.31293 53.9168C3.97676 54.1402 3.69082 54.4315 3.47341 54.7721C3.256 55.1127 3.1119 55.495 3.05034 55.8946C2.98879 56.2943 3.01113 56.7024 3.11593 57.0928L3.53869 58.5401C3.68726 59.1103 3.65932 59.7123 3.45857 60.2662C3.25783 60.8202 2.89378 61.2998 2.41477 61.6414L1.21867 62.4787C0.8892 62.7108 0.612192 63.0098 0.40569 63.3564C0.199188 63.7029 0.0678244 64.0892 0.0201576 64.49C-0.0275092 64.8909 0.00958989 65.2973 0.129038 65.6828C0.248486 66.0683 0.447604 66.4243 0.713419 66.7275L1.78578 67.7509ZM11.1999 63.4815L18.3456 62.2513L20.4078 55.2734C20.4907 54.9829 20.6587 54.724 20.8901 54.5302C21.1214 54.3365 21.4054 54.2169 21.7054 54.1868C22.0053 54.1567 22.3073 54.2176 22.5723 54.3616C22.8374 54.5056 23.0532 54.726 23.1918 54.9943L26.5945 61.4346L33.8124 61.2279C34.1263 61.1947 34.4428 61.26 34.7182 61.4147C34.9936 61.5693 35.2144 61.8059 35.3501 62.0916C35.4859 62.3774 35.5299 62.6983 35.476 63.0102C35.4222 63.322 35.2733 63.6095 35.0497 63.8329L29.8941 69.0638L32.3172 75.959C32.4187 76.2465 32.4328 76.5577 32.3576 76.8533C32.2825 77.1488 32.1215 77.4153 31.8951 77.619C31.6687 77.8228 31.3871 77.9545 31.0859 77.9976C30.7848 78.0407 30.4776 77.9932 30.2035 77.8611L23.728 74.6047L17.9744 79.0292C17.7297 79.2113 17.4369 79.3169 17.1326 79.3328C16.8283 79.3486 16.5262 79.274 16.264 79.1183C16.0019 78.9626 15.7915 78.7328 15.6591 78.4576C15.5268 78.1824 15.4785 77.8742 15.5203 77.5716L16.5514 70.3353L10.5606 66.2003C10.3074 66.0322 10.1118 65.7904 9.99991 65.5074C9.88807 65.2244 9.86547 64.9138 9.93513 64.6175C10.0048 64.3212 10.1634 64.0534 10.3896 63.8503C10.6157 63.6472 10.8985 63.5185 11.1999 63.4815Z" fill="#FFBB0F"/>
</g>
<defs>
<clipPath id="clip0">
<rect width="243" height="100.481" fill="white"/>
</clipPath>
</defs>
</svg>
