<svg width="235" height="110" viewBox="0 0 235 110" fill="none" xmlns="http://www.w3.org/2000/svg">
<g clip-path="url(#clip0)">
<path d="M49.3293 103.108C76.1597 103.108 97.9101 81.3681 97.9101 54.5512C97.9101 27.7342 76.1597 5.99475 49.3293 5.99475C22.4989 5.99475 0.748535 27.7342 0.748535 54.5512C0.748535 81.3681 22.4989 103.108 49.3293 103.108Z" fill="white" stroke="#2E2A26" stroke-width="1.5" stroke-miterlimit="10" stroke-linecap="round"/>
<path d="M74.2682 45.8832C74.2682 52.4968 71.6396 58.8395 66.9608 63.516C62.2819 68.1925 55.9361 70.8197 49.3192 70.8197C42.7023 70.8197 36.3564 68.1925 31.6775 63.516C26.9987 58.8395 24.3701 52.4968 24.3701 45.8832" stroke="#2E2A26" stroke-width="1.5" stroke-miterlimit="10" stroke-linecap="round"/>
<path d="M12.4746 40.4271C12.5304 39.2147 13.0516 38.0704 13.9298 37.2321C14.808 36.3938 15.9756 35.926 17.19 35.926C18.4043 35.926 19.572 36.3938 20.4502 37.2321C21.3283 38.0704 21.8495 39.2147 21.9053 40.4271" stroke="#2E2A26" stroke-width="1.5" stroke-miterlimit="10" stroke-linecap="round"/>
<path d="M74.3682 40.4271C74.3682 39.1758 74.8655 37.9758 75.7507 37.091C76.636 36.2062 77.8366 35.7091 79.0885 35.7091C80.3404 35.7091 81.5411 36.2062 82.4263 37.091C83.3116 37.9758 83.8089 39.1758 83.8089 40.4271" stroke="#2E2A26" stroke-width="1.5" stroke-miterlimit="10" stroke-linecap="round"/>
<path d="M185.591 31.4101L152.089 1.00745L118.588 31.4101H136.781V72.5453H167.408V31.4101H185.591Z" fill="white" stroke="#16A1DC" stroke-width="1.5" stroke-miterlimit="10" stroke-linecap="round"/>
<path d="M116.033 86.6195C129.536 86.6195 140.483 75.6783 140.483 62.1817C140.483 48.6851 129.536 37.7439 116.033 37.7439C102.53 37.7439 91.583 48.6851 91.583 62.1817C91.583 75.6783 102.53 86.6195 116.033 86.6195Z" fill="white" stroke="#2E2A26" stroke-width="1.5" stroke-miterlimit="10"/>
<path d="M138.387 87.3975H94.6865C93.2535 87.3975 92.0918 88.5586 92.0918 89.9909V95.7363C92.0918 97.1686 93.2535 98.3297 94.6865 98.3297H138.387C139.82 98.3297 140.982 97.1686 140.982 95.7363V89.9909C140.982 88.5586 139.82 87.3975 138.387 87.3975Z" stroke="#2E2A26" stroke-width="1.5" stroke-miterlimit="10" stroke-linecap="round"/>
<path d="M99.4771 90.3999V95.3174" stroke="#2E2A26" stroke-width="1.5" stroke-miterlimit="10" stroke-linecap="round"/>
<path d="M108.009 90.3999V95.3174" stroke="#2E2A26" stroke-width="1.5" stroke-miterlimit="10" stroke-linecap="round"/>
<path d="M116.542 90.3999V95.3174" stroke="#2E2A26" stroke-width="1.5" stroke-miterlimit="10" stroke-linecap="round"/>
<path d="M125.064 90.3999V95.3174" stroke="#2E2A26" stroke-width="1.5" stroke-miterlimit="10" stroke-linecap="round"/>
<path d="M133.597 90.3999V95.3174" stroke="#2E2A26" stroke-width="1.5" stroke-miterlimit="10" stroke-linecap="round"/>
<path d="M146.301 98.3198H102.601C101.168 98.3198 100.006 99.4809 100.006 100.913V106.659C100.006 108.091 101.168 109.252 102.601 109.252H146.301C147.734 109.252 148.896 108.091 148.896 106.659V100.913C148.896 99.4809 147.734 98.3198 146.301 98.3198Z" stroke="#2E2A26" stroke-width="1.5" stroke-miterlimit="10" stroke-linecap="round"/>
<path d="M107.391 101.332V106.25" stroke="#2E2A26" stroke-width="1.5" stroke-miterlimit="10" stroke-linecap="round"/>
<path d="M115.923 101.332V106.25" stroke="#2E2A26" stroke-width="1.5" stroke-miterlimit="10" stroke-linecap="round"/>
<path d="M124.446 101.332V106.25" stroke="#2E2A26" stroke-width="1.5" stroke-miterlimit="10" stroke-linecap="round"/>
<path d="M132.979 101.332V106.25" stroke="#2E2A26" stroke-width="1.5" stroke-miterlimit="10" stroke-linecap="round"/>
<path d="M141.501 101.332V106.25" stroke="#2E2A26" stroke-width="1.5" stroke-miterlimit="10" stroke-linecap="round"/>
<path d="M116.762 45.6039V49.4341C117.621 49.5173 118.465 49.7083 119.277 50.0027C120.024 50.2667 120.73 50.6362 121.372 51.0999C121.916 51.5053 122.383 52.0054 122.749 52.5761C123.079 53.0813 123.259 53.669 123.268 54.2718C123.283 54.5 123.252 54.7289 123.177 54.9448C123.101 55.1607 122.983 55.3593 122.829 55.5286C122.671 55.6809 122.483 55.7993 122.277 55.8764C122.071 55.9536 121.851 55.988 121.632 55.9775C121.266 55.9974 120.907 55.8719 120.634 55.6284C120.403 55.3777 120.226 55.0823 120.115 54.7606C119.982 54.3844 119.868 54.0015 119.775 53.6135C119.671 53.2023 119.514 52.8066 119.306 52.4365C119.085 52.0413 118.778 51.7006 118.408 51.439C117.916 51.1132 117.35 50.9175 116.762 50.8705V59.5484C117.957 60.0592 119.12 60.6422 120.245 61.2939C121.074 61.7689 121.839 62.3489 122.52 63.0196C123.057 63.5625 123.475 64.2113 123.747 64.9247C124.004 65.6103 124.132 66.3372 124.127 67.0692C124.136 68.0011 123.953 68.9248 123.588 69.7823C123.237 70.6013 122.725 71.341 122.081 71.9568C121.405 72.5922 120.616 73.0962 119.756 73.443C118.801 73.8327 117.79 74.0652 116.762 74.1313V79.2283H115.035V74.1712C114.019 74.1335 113.013 73.9625 112.041 73.6625C111.155 73.3987 110.312 73.009 109.536 72.5054C108.844 72.0662 108.247 71.493 107.78 70.8197C107.355 70.171 107.133 69.4106 107.141 68.6353C107.113 68.3655 107.14 68.0928 107.221 67.8339C107.301 67.5749 107.434 67.3351 107.61 67.1291C107.75 66.9885 107.917 66.8772 108.1 66.8018C108.283 66.7265 108.48 66.6885 108.678 66.6902C108.86 66.6764 109.044 66.7013 109.216 66.7632C109.388 66.825 109.544 66.9226 109.676 67.0493C109.927 67.2993 110.124 67.598 110.255 67.9271C110.403 68.2787 110.52 68.6425 110.604 69.0143C110.684 69.3933 110.764 69.7025 110.824 69.9519C110.899 70.3032 111.03 70.64 111.213 70.9494C111.407 71.2766 111.665 71.5615 111.971 71.7872C112.34 72.0625 112.756 72.2686 113.199 72.3957C113.795 72.5712 114.413 72.6619 115.035 72.665V63.1692C114.237 62.83 113.458 62.4809 112.68 62.1019C111.926 61.7398 111.227 61.2731 110.604 60.7154C109.991 60.1684 109.489 59.5079 109.127 58.7704C108.727 57.9162 108.532 56.9802 108.558 56.0373C108.545 55.1516 108.701 54.2715 109.017 53.4439C109.311 52.6962 109.756 52.0171 110.325 51.449C110.892 50.8617 111.57 50.3936 112.321 50.0725C113.169 49.7098 114.074 49.5004 114.995 49.4541V45.6039H116.762ZM111.512 54.4613C111.508 55.3318 111.804 56.1772 112.351 56.8552C113.086 57.7116 114.003 58.3932 115.035 58.8502V50.9702C114.076 51.0727 113.174 51.478 112.46 52.1273C112.144 52.4273 111.894 52.7897 111.726 53.1915C111.558 53.5934 111.475 54.0258 111.482 54.4613H111.512ZM120.883 68.5754C120.894 68.0191 120.782 67.4673 120.554 66.9595C120.339 66.4915 120.041 66.0658 119.676 65.7027C119.288 65.3117 118.848 64.9761 118.368 64.7053C117.869 64.426 117.37 64.1567 116.762 63.9073V72.5154C117.915 72.4452 119.01 71.9843 119.865 71.2087C120.196 70.8566 120.453 70.4426 120.622 69.9907C120.792 69.5387 120.87 69.0578 120.853 68.5754H120.883Z" fill="#2E2A26"/>
<path d="M196.998 40.7064C196.293 41.2502 195.707 41.9311 195.273 42.708C194.839 43.4848 194.568 44.3414 194.474 45.2261C194.381 46.1108 194.468 47.0052 194.73 47.8553C194.993 48.7054 195.424 49.4936 196 50.1723L195.92 50.2521C194.66 49.1881 193.046 48.6357 191.397 48.704C189.749 48.7723 188.186 49.4565 187.018 50.6211C185.857 51.7893 185.176 53.3498 185.11 54.995C185.043 56.6402 185.596 58.2506 186.659 59.5085L186.569 59.5983C185.315 58.5272 183.703 57.967 182.055 58.0293C180.407 58.0916 178.842 58.7718 177.672 59.9345C176.503 61.0972 175.814 62.6574 175.743 64.3046C175.671 65.9519 176.223 67.5656 177.288 68.8248L155.782 47.4392C154.641 46.2478 153.101 45.5174 151.456 45.3868C149.811 45.2562 148.175 45.7346 146.86 46.731C146.157 47.3021 145.581 48.0146 145.17 48.8224C144.76 49.6302 144.524 50.5152 144.478 51.42C144.432 52.3248 144.577 53.2292 144.903 54.0744C145.229 54.9197 145.729 55.687 146.371 56.3266L168.097 78.0413L172.727 82.6696L178.665 88.6543H162.408C160.595 88.6176 158.832 89.2473 157.452 90.424C156.072 91.6007 155.173 93.2425 154.924 95.0381C154.823 96.0285 154.932 97.029 155.242 97.975C155.552 98.921 156.058 99.7914 156.725 100.53C157.393 101.269 158.208 101.86 159.118 102.264C160.028 102.668 161.013 102.878 162.009 102.878H186.619C190.334 102.805 194.022 103.512 197.447 104.953C202.752 107.31 208.688 107.847 214.33 106.482C219.973 105.116 225.005 101.924 228.643 97.4021C237.186 86.8489 235.739 71.3384 226.128 61.7428L216.728 52.3467L212.207 47.8183L205.95 41.5642C204.812 40.3652 203.28 39.6179 201.634 39.4602C199.989 39.3025 198.342 39.7452 196.998 40.7064Z" fill="white" stroke="#2E2A26" stroke-width="1.5" stroke-linecap="round" stroke-linejoin="round"/>
<path d="M177.288 68.8547L184.563 76.1162" stroke="#2E2A26" stroke-width="1.5" stroke-linecap="round" stroke-linejoin="round"/>
<path d="M186.479 59.5185L193.744 66.79" stroke="#2E2A26" stroke-width="1.5" stroke-linecap="round" stroke-linejoin="round"/>
<path d="M195.85 50.4515L203.125 57.7131" stroke="#2E2A26" stroke-width="1.5" stroke-linecap="round" stroke-linejoin="round"/>
</g>
<defs>
<clipPath id="clip0">
<rect width="235" height="110" fill="white"/>
</clipPath>
</defs>
</svg>
