<svg width="481" height="241" viewBox="0 0 481 241" fill="none" xmlns="http://www.w3.org/2000/svg">
<path d="M473 167.475H180.02C177.127 167.475 174.781 169.816 174.781 172.705C174.781 175.593 177.127 177.935 180.02 177.935H473C475.894 177.935 478.24 175.593 478.24 172.705C478.24 169.816 475.894 167.475 473 167.475Z" stroke="#16A1DC" stroke-width="2" stroke-miterlimit="10"/>
<path d="M473 193H180.02C177.127 193 174.781 195.342 174.781 198.23C174.781 201.119 177.127 203.46 180.02 203.46H473C475.894 203.46 478.24 201.119 478.24 198.23C478.24 195.342 475.894 193 473 193Z" stroke="#16A1DC" stroke-width="2" stroke-miterlimit="10"/>
<path d="M203.281 165.445V179.81C203.281 182.704 205.622 185.05 208.511 185.05C211.399 185.05 213.741 182.704 213.741 179.81V165.445C213.741 162.551 211.399 160.205 208.511 160.205C205.622 160.205 203.281 162.551 203.281 165.445Z" fill="white" stroke="#252B2D" stroke-width="2" stroke-miterlimit="10"/>
<path d="M473 142.475H180.02C177.127 142.475 174.781 144.816 174.781 147.705C174.781 150.593 177.127 152.935 180.02 152.935H473C475.894 152.935 478.24 150.593 478.24 147.705C478.24 144.816 475.894 142.475 473 142.475Z" stroke="#16A1DC" stroke-width="2" stroke-miterlimit="10"/>
<path d="M295 139.053V153.418C295 156.312 297.342 158.658 300.23 158.658C303.119 158.658 305.46 156.312 305.46 153.418V139.053C305.46 136.159 303.119 133.813 300.23 133.813C297.342 133.813 295 136.159 295 139.053Z" fill="white" stroke="#252B2D" stroke-width="2" stroke-miterlimit="10"/>
<path d="M368 190.522V204.887C368 207.781 370.342 210.127 373.23 210.127C376.119 210.127 378.46 207.781 378.46 204.887V190.522C378.46 187.628 376.119 185.282 373.23 185.282C370.342 185.282 368 187.628 368 190.522Z" fill="white" stroke="#252B2D" stroke-width="2" stroke-miterlimit="10"/>
<path d="M145.392 1.69825H49.1434C42.7364 1.69825 37.5425 6.89213 37.5425 13.2991V214.342C37.5425 220.749 42.7364 225.943 49.1434 225.943H145.392C151.799 225.943 156.993 220.749 156.993 214.342V13.2991C156.993 6.89213 151.799 1.69825 145.392 1.69825Z" fill="white" stroke="#252B2D" stroke-width="2" stroke-miterlimit="10"/>
<path d="M140.848 12.9511H122.789V16.5087C122.789 18.9086 121.836 21.2101 120.139 22.9071C118.442 24.604 116.141 25.5574 113.741 25.5574H80.8715C79.6816 25.5599 78.5029 25.3277 77.4028 24.8741C76.3028 24.4205 75.303 23.7544 74.4607 22.9139C73.6184 22.0734 72.9501 21.0751 72.4942 19.976C72.0382 18.8769 71.8035 17.6986 71.8035 16.5087V12.9511H53.6868C52.4815 12.951 51.3247 13.4258 50.467 14.2727C49.6093 15.1195 49.1197 16.2702 49.1045 17.4754V209.296C49.1096 210.508 49.5946 211.668 50.4534 212.524C51.3122 213.379 52.4749 213.859 53.6868 213.859H140.848C141.447 213.859 142.041 213.741 142.594 213.511C143.148 213.282 143.651 212.946 144.075 212.522C144.498 212.099 144.834 211.596 145.064 211.042C145.293 210.488 145.411 209.895 145.411 209.296V17.4754C145.396 16.2736 144.909 15.1258 144.055 14.2794C143.202 13.4331 142.05 12.9561 140.848 12.9511V12.9511Z" stroke="#252B2D" stroke-width="2" stroke-miterlimit="10"/>
<path d="M78.5329 138.047C72.1303 134.799 66.7533 129.839 62.9989 123.72C59.2445 117.6 57.2596 110.559 57.2647 103.38" stroke="#16A1DC" stroke-width="2" stroke-miterlimit="10"/>
<path d="M81.0269 67.5719C90.1692 63.6755 100.458 63.4334 109.773 66.8953C119.089 70.3573 126.722 77.2597 131.101 86.181C135.48 95.1024 136.271 105.363 133.311 114.85C130.351 124.337 123.866 132.328 115.191 137.177" stroke="#16A1DC" stroke-width="2" stroke-miterlimit="10"/>
<path d="M96.0306 130.545C111.034 130.545 123.196 118.383 123.196 103.38C123.196 88.3769 111.034 76.2145 96.0306 76.2145C81.0276 76.2145 68.8652 88.3769 68.8652 103.38C68.8652 118.383 81.0276 130.545 96.0306 130.545Z" stroke="#16A1DC" stroke-width="2" stroke-miterlimit="10"/>
<path d="M96.03 117.436C103.793 117.436 110.086 111.143 110.086 103.38C110.086 95.6168 103.793 89.3235 96.03 89.3235C88.2669 89.3235 81.9736 95.6168 81.9736 103.38C81.9736 111.143 88.2669 117.436 96.03 117.436Z" stroke="#16A1DC" stroke-width="2" stroke-miterlimit="10"/>
<path d="M32.4384 159.315L77.063 114.691C80.3218 111.461 84.7239 109.65 89.3116 109.65C93.8994 109.65 98.3015 111.461 101.56 114.691C104.789 117.949 106.601 122.352 106.601 126.939C106.601 131.527 104.789 135.929 101.56 139.188L64.8241 175.924C70.8982 182.849 74.2391 191.751 74.2208 200.963C74.2259 205.962 73.2462 210.913 71.3377 215.534C69.4292 220.155 66.6292 224.355 63.0977 227.894C59.5661 231.432 55.3722 234.241 50.7552 236.159C46.1383 238.077 41.1888 239.066 36.1893 239.071C26.8565 239.071 17.906 235.364 11.3067 228.765C4.70743 222.165 1 213.215 1 203.882V129.753C1.00035 124.934 2.15362 120.186 4.36348 115.904C6.57335 111.622 9.77565 107.931 13.703 105.139L32.7477 90.7929" fill="white"/>
<path d="M32.4384 159.315L77.063 114.691C80.3218 111.461 84.7239 109.65 89.3116 109.65C93.8994 109.65 98.3015 111.461 101.56 114.691V114.691C104.789 117.949 106.601 122.352 106.601 126.939C106.601 131.527 104.789 135.929 101.56 139.188L64.8241 175.924C70.8982 182.849 74.2391 191.751 74.2208 200.963V200.963C74.2259 205.962 73.2462 210.913 71.3377 215.534C69.4292 220.155 66.6292 224.355 63.0977 227.894C59.5661 231.432 55.3722 234.241 50.7552 236.159C46.1383 238.077 41.1888 239.066 36.1893 239.071V239.071C26.8565 239.071 17.906 235.364 11.3067 228.765C4.70743 222.165 1 213.215 1 203.882V129.753C1.00035 124.934 2.15362 120.186 4.36348 115.904C6.57335 111.622 9.77566 107.931 13.703 105.139L32.7477 90.7929" stroke="#252B2D" stroke-width="2" stroke-miterlimit="10"/>
<path d="M31.5098 91.6243L36.9235 87.4867" stroke="#252B2D" stroke-width="2" stroke-miterlimit="10"/>
<path d="M249.084 64.4203C249.08 73.9261 246.258 83.2173 240.974 91.1192C235.69 99.0211 228.182 105.179 219.399 108.814C210.615 112.449 200.952 113.398 191.629 111.541C182.306 109.684 173.743 105.105 167.023 98.3821C160.303 91.6592 155.727 83.0946 153.874 73.7711C152.021 64.4477 152.974 54.7842 156.612 46.0023C160.251 37.2205 166.412 29.7147 174.316 24.434C182.22 19.1532 191.512 16.3347 201.018 16.3347C207.332 16.3347 213.584 17.5786 219.417 19.9954C225.25 22.4121 230.549 25.9544 235.013 30.4198C239.476 34.8852 243.017 40.1863 245.431 46.0202C247.845 51.8541 249.087 58.1065 249.084 64.4203Z" fill="white" stroke="#252B2D" stroke-width="2" stroke-linecap="round" stroke-linejoin="round"/>
<path d="M223.485 74.8804L208.888 102.955L183.308 84.3351L182.65 49.3972L208.482 43.2294L223.485 74.8804Z" stroke="#252B2D" stroke-width="2" stroke-linecap="round" stroke-linejoin="round"/>
<path d="M205.137 30.5589L179.934 36.4839C176.192 37.3637 173.872 41.1105 174.752 44.8527L174.756 44.8715C175.636 48.6137 179.383 50.9341 183.125 50.0543L208.327 44.1293C212.069 43.2495 214.39 39.5027 213.51 35.7605L213.505 35.7417C212.626 31.9995 208.879 29.6791 205.137 30.5589Z" fill="#16A1DC" stroke="#16A1DC" stroke-width="2" stroke-linecap="round" stroke-linejoin="round"/>
<path d="M202.603 7.30534L171.88 14.5172L179.46 36.2495L205.504 30.1204L202.603 7.30534Z" fill="#16A1DC" stroke="#16A1DC" stroke-width="2" stroke-linecap="round" stroke-linejoin="round"/>
<path d="M203.338 79.3467L208.887 102.955" stroke="#252B2D" stroke-width="2" stroke-linecap="round" stroke-linejoin="round"/>
<path d="M201.985 79.5014C205.263 79.5014 207.921 76.8439 207.921 73.5657C207.921 70.2874 205.263 67.6299 201.985 67.6299C198.707 67.6299 196.049 70.2874 196.049 73.5657C196.049 76.8439 198.707 79.5014 201.985 79.5014Z" stroke="#252B2D" stroke-width="2" stroke-linecap="round" stroke-linejoin="round"/>
<path d="M480 62.5254C480.004 72.0366 477.187 81.3354 471.906 89.2456C466.624 97.1557 459.116 103.322 450.33 106.964C441.544 110.607 431.875 111.562 422.546 109.709C413.217 107.855 404.647 103.277 397.92 96.5532C391.193 89.8291 386.611 81.2611 384.754 71.9328C382.898 62.6046 383.849 52.9352 387.488 44.1476C391.126 35.36 397.29 27.8489 405.198 22.5643C413.106 17.2797 422.403 14.4591 431.915 14.4591C444.664 14.4591 456.892 19.5226 465.91 28.5362C474.927 37.5498 479.995 49.7756 480 62.5254Z" fill="white" stroke="#252B2D" stroke-width="2" stroke-linecap="round" stroke-linejoin="round"/>
<path d="M431.914 109.084C439.036 109.183 446.079 107.59 452.465 104.437C458.852 101.285 464.399 96.6613 468.65 90.9475C464.338 85.296 458.78 80.7158 452.408 77.563C446.036 74.4103 439.023 72.7701 431.914 72.7701C424.805 72.7701 417.792 74.4103 411.421 77.563C405.049 80.7158 399.491 85.296 395.178 90.9475C399.429 96.6624 404.976 101.287 411.362 104.439C417.749 107.592 424.793 109.184 431.914 109.084Z" fill="#16A1DC"/>
<path d="M462.309 35.766C462.309 52.5486 431.914 85.7658 431.914 85.7658C431.914 85.7658 401.54 52.5486 401.54 35.766C401.74 27.8402 405.028 20.3063 410.705 14.7712C416.381 9.2362 423.996 6.13827 431.924 6.13827C439.852 6.13827 447.467 9.2362 453.143 14.7712C458.82 20.3063 462.109 27.8402 462.309 35.766Z" fill="white" stroke="#252B2D" stroke-width="2" stroke-linecap="round" stroke-linejoin="round"/>
<path d="M431.915 44.486C437.35 44.486 441.756 40.0799 441.756 34.6446C441.756 29.2093 437.35 24.8032 431.915 24.8032C426.479 24.8032 422.073 29.2093 422.073 34.6446C422.073 40.0799 426.479 44.486 431.915 44.486Z" fill="white" stroke="#252B2D" stroke-width="2" stroke-linecap="round" stroke-linejoin="round"/>
<path d="M363.992 64.1621C363.992 73.6725 361.171 82.9694 355.888 90.877C350.604 98.7847 343.094 104.948 334.308 108.587C325.521 112.227 315.853 113.179 306.525 111.324C297.197 109.468 288.629 104.889 281.904 98.1638C275.179 91.4389 270.6 82.8708 268.744 73.5431C266.889 64.2155 267.841 54.547 271.481 45.7605C275.12 36.974 281.283 29.4641 289.191 24.1804C297.099 18.8967 306.396 16.0765 315.906 16.0765C322.221 16.074 328.475 17.316 334.311 19.7316C340.146 22.1472 345.448 25.6891 349.913 30.1548C354.379 34.6204 357.921 39.9224 360.336 45.7575C362.752 51.5927 363.994 57.8467 363.992 64.1621Z" fill="white" stroke="#252B2D" stroke-width="2" stroke-linecap="round" stroke-linejoin="round"/>
<path d="M282.766 98.52V13.447C282.763 12.7404 282.9 12.0403 283.17 11.387C283.439 10.7337 283.835 10.1401 284.334 9.64051C284.834 9.14088 285.427 8.74505 286.081 8.47584C286.734 8.20662 287.434 8.06933 288.141 8.07189H346.242C346.947 8.07188 347.645 8.21105 348.296 8.48141C348.947 8.75177 349.538 9.148 350.036 9.64738C350.533 10.1468 350.927 10.7394 351.195 11.3915C351.463 12.0435 351.6 12.742 351.598 13.447V95.9292" fill="white"/>
<path d="M282.766 98.52V13.447C282.763 12.7404 282.9 12.0403 283.17 11.387C283.439 10.7337 283.835 10.1401 284.334 9.64051C284.834 9.14088 285.427 8.74505 286.081 8.47584C286.734 8.20662 287.434 8.06933 288.141 8.07189H346.242C346.947 8.07188 347.645 8.21105 348.296 8.48141C348.947 8.75177 349.538 9.148 350.036 9.64738C350.533 10.1468 350.927 10.7394 351.195 11.3915C351.463 12.0435 351.6 12.742 351.598 13.447V95.9291" stroke="#252B2D" stroke-width="2" stroke-linecap="round" stroke-linejoin="round"/>
<path d="M294.85 78.6052H339.532" stroke="#16A1DC" stroke-width="2" stroke-linecap="round" stroke-linejoin="round"/>
<path d="M294.85 91.9462H339.532" stroke="#16A1DC" stroke-width="2" stroke-linecap="round" stroke-linejoin="round"/>
<path d="M295.779 33.1491L309.313 32.2017L314.611 19.5568C314.817 19.0275 315.179 18.573 315.648 18.2525C316.117 17.9321 316.672 17.7606 317.24 17.7606C317.808 17.7606 318.363 17.9321 318.832 18.2525C319.302 18.573 319.663 19.0275 319.87 19.5568L325.051 32.2017L338.586 33.1491C339.159 33.1896 339.707 33.4005 340.159 33.7547C340.611 34.1089 340.947 34.5902 341.124 35.1369C341.301 35.6835 341.31 36.2705 341.15 36.8224C340.991 37.3743 340.67 37.8659 340.229 38.2342L329.788 47.0315L333.037 60.3531C333.167 60.9077 333.131 61.4883 332.933 62.0224C332.735 62.5566 332.384 63.0206 331.925 63.3568C331.465 63.6929 330.916 63.8862 330.347 63.9125C329.778 63.9388 329.214 63.797 328.725 63.5047L317.24 56.2348L305.639 63.408C305.15 63.7003 304.586 63.8421 304.017 63.8158C303.448 63.7895 302.9 63.5962 302.44 63.2601C301.98 62.924 301.629 62.4599 301.431 61.9257C301.234 61.3916 301.198 60.811 301.328 60.2565L304.595 46.9348L294.154 38.1375C293.71 37.7812 293.384 37.2979 293.221 36.752C293.058 36.2061 293.065 35.6235 293.242 35.0817C293.418 34.54 293.755 34.0648 294.209 33.7196C294.662 33.3743 295.209 33.1753 295.779 33.1491Z" fill="#16A1DC"/>
</svg>
